<svg width="108" height="17" viewBox="0 0 108 17" fill="none" xmlns="http://www.w3.org/2000/svg">
<path d="M10.4234 3.91797C10.4234 4.17839 10.3779 4.44531 10.2867 4.71875C9.9612 5.63021 9.2125 6.27474 8.04063 6.65234C8.35313 6.69141 8.65261 6.75 8.93906 6.82812C10.5146 7.24479 11.3023 8.17578 11.3023 9.62109C11.3023 10.2721 11.107 10.8711 10.7164 11.418C9.92214 12.4727 8.63307 13 6.84922 13H0.169533V12.4727H1.73203V1.80859H0.169533V1.28125H6.49766C7.2138 1.28125 7.85182 1.35938 8.41172 1.51562C9.75287 1.90625 10.4234 2.70703 10.4234 3.91797ZM5.40391 1.80859H4.46641V6.37891H5.56016C5.79453 6.37891 6.01589 6.35286 6.22422 6.30078C7.13568 6.04036 7.59141 5.29818 7.59141 4.07422C7.57839 2.58984 6.84922 1.83464 5.40391 1.80859ZM6.06797 6.92578H4.46641V12.4727H5.775C5.94427 12.4727 6.11354 12.4596 6.28281 12.4336C7.63698 12.2383 8.31406 11.2552 8.31406 9.48438C8.31406 9.09375 8.25547 8.72917 8.13828 8.39062C7.79974 7.41406 7.10964 6.92578 6.06797 6.92578ZM16.3148 12.4922C16.393 12.4922 16.4646 12.4987 16.5297 12.5117C16.699 12.5378 16.7836 12.7005 16.7836 13H11.9789V12.4922C12.1482 12.4922 12.2979 12.4792 12.4281 12.4531C12.8839 12.375 13.1117 12.0495 13.1117 11.4766V5.10938H11.9789V4.60156H15.5922V12.4922H16.3148ZM15.768 2.04297C15.768 2.29036 15.7029 2.52474 15.5727 2.74609C15.2992 3.22786 14.876 3.46875 14.3031 3.46875C14.0688 3.46875 13.8409 3.41016 13.6195 3.29297C13.1117 3.03255 12.8578 2.61589 12.8578 2.04297C12.8578 1.79557 12.9164 1.5612 13.0336 1.33984C13.3201 0.832031 13.7432 0.578125 14.3031 0.578125C14.5505 0.578125 14.7849 0.643229 15.0063 0.773438C15.5141 1.04688 15.768 1.47005 15.768 2.04297ZM22.3234 12.4922C22.4016 12.4922 22.4732 12.4987 22.5383 12.5117C22.7076 12.5378 22.7922 12.7005 22.7922 13H17.2648V12.4922C17.4341 12.4922 17.5839 12.4792 17.7141 12.4531C18.1698 12.375 18.3977 12.0495 18.3977 11.4766V5.10938H17.2648V4.60156H20.6828L20.8195 6.41797C20.9628 6.05339 21.1711 5.71484 21.4445 5.40234C22.0565 4.76432 22.7661 4.44531 23.5734 4.44531C23.7427 4.44531 23.9055 4.46484 24.0617 4.50391C24.6997 4.67318 25.0188 5.08333 25.0188 5.73438C25.0188 5.91667 24.9797 6.09245 24.9016 6.26172C24.6802 6.75651 24.3091 7.00391 23.7883 7.00391C23.632 7.00391 23.4888 6.98438 23.3586 6.94531C23.0852 6.84115 22.8313 6.58073 22.5969 6.16406C22.4276 5.86458 22.2714 5.71484 22.1281 5.71484C22.05 5.71484 21.9654 5.73438 21.8742 5.77344C21.3013 6.07292 20.9693 6.90625 20.8781 8.27344V12.4922H22.3234ZM32.1797 13L31.9062 11.1641C31.8411 11.3333 31.763 11.4961 31.6719 11.6523C31.0859 12.681 30.1875 13.1953 28.9766 13.1953C28.2474 13.1953 27.5833 12.974 26.9844 12.5312C25.9297 11.763 25.4023 10.5716 25.4023 8.95703C25.4023 7.65495 25.7409 6.57422 26.418 5.71484C27.1992 4.76432 28.2083 4.28906 29.4453 4.28906C30.3698 4.28906 31.1641 4.57552 31.8281 5.14844V0.8125H30.0508V0.304688H34.3086V12.4727H35.207C35.2982 12.4727 35.3763 12.4792 35.4414 12.4922C35.5977 12.5312 35.6758 12.7005 35.6758 13H32.1797ZM28.0781 8.72266C28.0781 9.21745 28.1107 9.66667 28.1758 10.0703C28.3971 11.5547 28.9635 12.2969 29.875 12.2969C30.1484 12.2969 30.4023 12.2253 30.6367 12.082C31.457 11.5482 31.8672 10.3047 31.8672 8.35156C31.8672 7.90885 31.8411 7.49219 31.7891 7.10156C31.5677 5.65625 30.9883 4.93359 30.0508 4.93359C29.7904 4.93359 29.543 4.9987 29.3086 5.12891C28.4883 5.6237 28.0781 6.82161 28.0781 8.72266ZM40.493 12.4922C40.5711 12.4922 40.6427 12.4987 40.7078 12.5117C40.8771 12.5378 40.9617 12.7005 40.9617 13H36.157V12.4922C36.3263 12.4922 36.476 12.4792 36.6063 12.4531C37.062 12.375 37.2898 12.0495 37.2898 11.4766V5.10938H36.157V4.60156H39.7703V12.4922H40.493ZM39.9461 2.04297C39.9461 2.29036 39.881 2.52474 39.7508 2.74609C39.4773 3.22786 39.0542 3.46875 38.4813 3.46875C38.2469 3.46875 38.019 3.41016 37.7977 3.29297C37.2898 3.03255 37.0359 2.61589 37.0359 2.04297C37.0359 1.79557 37.0945 1.5612 37.2117 1.33984C37.4982 0.832031 37.9214 0.578125 38.4813 0.578125C38.7286 0.578125 38.963 0.643229 39.1844 0.773438C39.6922 1.04688 39.9461 1.47005 39.9461 2.04297ZM46.0133 4.81641C44.9716 4.85547 44.4052 5.95573 44.3141 8.11719L45.5641 8.17578C46.0849 8.20182 46.4755 8.16927 46.7359 8.07812C47.1005 7.9349 47.2828 7.55729 47.2828 6.94531C47.2698 5.55208 46.8466 4.84245 46.0133 4.81641ZM49.6656 10.9883C49.5875 11.1966 49.4833 11.3984 49.3531 11.5938C48.6891 12.6615 47.5953 13.1953 46.0719 13.1953C45.2125 13.1953 44.4443 13.0195 43.7672 12.668C42.3479 11.9258 41.6383 10.6107 41.6383 8.72266C41.6383 7.5638 41.9508 6.59375 42.5758 5.8125C43.3961 4.8099 44.5419 4.30859 46.0133 4.30859C46.8206 4.30859 47.5432 4.44531 48.1813 4.71875C49.3141 5.22656 49.8805 6.03385 49.8805 7.14062C49.8805 7.36198 49.8414 7.5638 49.7633 7.74609C49.4247 8.47526 48.2073 8.80729 46.1109 8.74219L44.3141 8.68359C44.3271 9.4388 44.3922 10.0898 44.5094 10.6367C44.8089 11.9648 45.4794 12.6289 46.5211 12.6289C46.8466 12.6289 47.1656 12.5703 47.4781 12.4531C48.2594 12.1667 48.8323 11.6263 49.1969 10.832L49.6656 10.9883ZM64.2023 3.91797C64.2023 4.17839 64.1568 4.44531 64.0656 4.71875C63.7401 5.63021 62.9914 6.27474 61.8195 6.65234C62.132 6.69141 62.4315 6.75 62.718 6.82812C64.2935 7.24479 65.0813 8.17578 65.0813 9.62109C65.0813 10.2721 64.8859 10.8711 64.4953 11.418C63.701 12.4727 62.412 13 60.6281 13H53.9484V12.4727H55.5109V1.80859H53.9484V1.28125H60.2766C60.9927 1.28125 61.6307 1.35938 62.1906 1.51562C63.5318 1.90625 64.2023 2.70703 64.2023 3.91797ZM59.1828 1.80859H58.2453V6.37891H59.3391C59.5734 6.37891 59.7948 6.35286 60.0031 6.30078C60.9146 6.04036 61.3703 5.29818 61.3703 4.07422C61.3573 2.58984 60.6281 1.83464 59.1828 1.80859ZM59.8469 6.92578H58.2453V12.4727H59.5539C59.7232 12.4727 59.8925 12.4596 60.0617 12.4336C61.4159 12.2383 62.093 11.2552 62.093 9.48438C62.093 9.09375 62.0344 8.72917 61.9172 8.39062C61.5786 7.41406 60.8885 6.92578 59.8469 6.92578ZM75.3867 12.4922C75.4779 12.4922 75.556 12.4987 75.6211 12.5117C75.7773 12.5508 75.8555 12.7135 75.8555 13H72.3789L72.2812 11.3984C72.2422 11.4766 72.2031 11.5547 72.1641 11.6328C71.5521 12.6745 70.6602 13.1953 69.4883 13.1953C67.6523 13.1823 66.7214 12.1211 66.6953 10.0117V5.10938H65.5625V4.60156H69.1758V10.3438C69.1758 10.526 69.1888 10.7018 69.2148 10.8711C69.3451 11.7435 69.7812 12.1797 70.5234 12.1797C70.7188 12.1797 70.9141 12.1341 71.1094 12.043C71.7604 11.7174 72.1315 11.0469 72.2227 10.0312L72.2422 5.10938H71.2852V4.60156H74.7227V12.4922H75.3867ZM83.3094 13L83.0359 11.1641C82.9708 11.3333 82.8927 11.4961 82.8016 11.6523C82.2156 12.681 81.3172 13.1953 80.1063 13.1953C79.3771 13.1953 78.713 12.974 78.1141 12.5312C77.0594 11.763 76.532 10.5716 76.532 8.95703C76.532 7.65495 76.8706 6.57422 77.5477 5.71484C78.3289 4.76432 79.338 4.28906 80.575 4.28906C81.4995 4.28906 82.2938 4.57552 82.9578 5.14844V0.8125H81.1805V0.304688H85.4383V12.4727H86.3367C86.4279 12.4727 86.506 12.4792 86.5711 12.4922C86.7273 12.5312 86.8055 12.7005 86.8055 13H83.3094ZM79.2078 8.72266C79.2078 9.21745 79.2404 9.66667 79.3055 10.0703C79.5268 11.5547 80.0932 12.2969 81.0047 12.2969C81.2781 12.2969 81.532 12.2253 81.7664 12.082C82.5867 11.5482 82.9969 10.3047 82.9969 8.35156C82.9969 7.90885 82.9708 7.49219 82.9188 7.10156C82.6974 5.65625 82.118 4.93359 81.1805 4.93359C80.9201 4.93359 80.6727 4.9987 80.4383 5.12891C79.618 5.6237 79.2078 6.82161 79.2078 8.72266ZM94.1617 13L93.8883 11.1641C93.8232 11.3333 93.7451 11.4961 93.6539 11.6523C93.068 12.681 92.1695 13.1953 90.9586 13.1953C90.2294 13.1953 89.5654 12.974 88.9664 12.5312C87.9117 11.763 87.3844 10.5716 87.3844 8.95703C87.3844 7.65495 87.7229 6.57422 88.4 5.71484C89.1813 4.76432 90.1904 4.28906 91.4273 4.28906C92.3518 4.28906 93.1461 4.57552 93.8102 5.14844V0.8125H92.0328V0.304688H96.2906V12.4727H97.1891C97.2802 12.4727 97.3583 12.4792 97.4234 12.4922C97.5797 12.5312 97.6578 12.7005 97.6578 13H94.1617ZM90.0602 8.72266C90.0602 9.21745 90.0927 9.66667 90.1578 10.0703C90.3792 11.5547 90.9456 12.2969 91.857 12.2969C92.1305 12.2969 92.3844 12.2253 92.6188 12.082C93.4391 11.5482 93.8492 10.3047 93.8492 8.35156C93.8492 7.90885 93.8232 7.49219 93.7711 7.10156C93.5497 5.65625 92.9703 4.93359 92.0328 4.93359C91.7724 4.93359 91.525 4.9987 91.2906 5.12891C90.4703 5.6237 90.0602 6.82161 90.0602 8.72266ZM100.19 16.125C100.32 16.125 100.457 16.099 100.6 16.0469C101.173 15.8385 101.772 14.9596 102.397 13.4102L98.5883 5.08984H97.768V4.60156H102.358V5.08984H101.166L103.53 10.5391L105.659 5.08984H104.194V4.60156H107.221C107.221 4.66667 107.215 4.73177 107.202 4.79688C107.176 4.99219 107.019 5.08984 106.733 5.08984C106.524 5.11589 106.31 5.30469 106.088 5.65625L103.159 13.2539C102.911 13.9049 102.651 14.4583 102.377 14.9141C101.661 16.1771 100.756 16.8086 99.6625 16.8086C99.1807 16.8086 98.7576 16.7109 98.393 16.5156C97.8721 16.2422 97.6117 15.8906 97.6117 15.4609C97.6117 15.3698 97.6247 15.2721 97.6508 15.168C97.781 14.7643 98.0805 14.5625 98.5492 14.5625C98.7706 14.5625 98.9659 14.6211 99.1352 14.7383C99.2784 14.8555 99.4411 15.1419 99.6234 15.5977C99.7667 15.9492 99.9555 16.125 100.19 16.125Z" fill="white" fill-opacity="0.8"/>
</svg>
