<svg width="68" height="20" viewBox="0 0 68 20" fill="none" xmlns="http://www.w3.org/2000/svg">
<rect width="68" height="20" rx="3" fill="#48685E"/>
<path d="M20.7359 5.076H21.7199V15.948H20.7359V5.076ZM17.8679 9.108H21.0239V9.924H17.8679V9.108ZM13.2239 5.94H14.2079V8.76H17.2199V5.94H18.2039V13.224H13.2239V5.94ZM14.2079 9.552V12.396H17.2199V9.552H14.2079ZM31.5229 5.088H32.5189V15.96H31.5229V5.088ZM24.3469 12.42H25.2229C27.3709 12.42 28.7629 12.348 30.3709 12.048L30.4789 12.888C28.8229 13.2 27.4069 13.26 25.2229 13.26H24.3469V12.42ZM24.3469 6.12H29.4709V6.948H25.3309V12.732H24.3469V6.12ZM38.89 5.472H39.766V6.072C39.766 8.148 37.654 9.636 35.398 10.02L35.002 9.216C36.982 8.916 38.89 7.62 38.89 6.072V5.472ZM39.07 5.472H39.934V6.072C39.934 7.584 41.866 8.916 43.822 9.216L43.426 10.02C41.194 9.636 39.07 8.124 39.07 6.072V5.472ZM38.89 11.808H39.874V15.936H38.89V11.808ZM34.51 11.196H44.314V12.024H34.51V11.196ZM45.8371 10.284H46.6891C48.6571 10.284 50.0611 10.224 51.7531 9.936L51.8371 10.752C50.1211 11.052 48.6931 11.112 46.6891 11.112H45.8371V10.284ZM45.8131 5.724H50.6971V8.736H46.8091V10.692H45.8371V7.968H49.7131V6.54H45.8131V5.724ZM52.7851 5.1H53.7811V11.688H52.7851V5.1ZM53.4811 7.86H55.3891V8.7H53.4811V7.86ZM46.7371 12.252H53.7811V15.936H52.7851V13.068H46.7371V12.252Z" fill="white"/>
</svg>
