<svg width="68" height="20" viewBox="0 0 68 20" fill="none" xmlns="http://www.w3.org/2000/svg">
<rect width="68" height="20" rx="3" fill="#48685E"/>
<path d="M31.3966 5.75H32.2366V12.37H31.3966V5.75ZM26.4266 13.9H32.5066V14.58H26.4266V13.9ZM26.4266 11.76H27.2466V14.22H26.4266V11.76ZM27.1766 6.24H27.8666V7.16C27.8666 8.92 26.8666 10.46 25.3466 11.08L24.9166 10.41C26.2766 9.88 27.1766 8.56 27.1766 7.16V6.24ZM27.3266 6.24H28.0066V7.16C28.0066 8.52 28.9166 9.75 30.2666 10.24L29.8266 10.91C28.3266 10.33 27.3266 8.88 27.3266 7.16V6.24ZM34.7358 6.64H40.5558V7.33H34.7358V6.64ZM33.8758 12.83H42.0458V13.52H33.8758V12.83ZM37.0458 9.6H37.8758V13.17H37.0458V9.6ZM40.2458 6.64H41.0658V7.54C41.0658 8.66 41.0658 9.9 40.7358 11.73L39.9058 11.62C40.2458 9.89 40.2458 8.62 40.2458 7.54V6.64ZM49.045 5.74H49.875V14.78H49.045V5.74ZM49.675 9.45H51.355V10.15H49.675V9.45ZM42.875 7.18H48.205V7.86H42.875V7.18ZM45.575 8.61C46.855 8.61 47.775 9.47 47.775 10.69C47.775 11.91 46.855 12.77 45.575 12.77C44.305 12.77 43.375 11.91 43.375 10.69C43.375 9.47 44.305 8.61 45.575 8.61ZM45.575 9.3C44.755 9.3 44.165 9.87 44.165 10.69C44.165 11.5 44.755 12.08 45.575 12.08C46.395 12.08 46.985 11.5 46.985 10.69C46.985 9.87 46.395 9.3 45.575 9.3ZM45.145 5.85H45.975V7.49H45.145V5.85ZM58.5542 5.74H59.3842V14.78H58.5542V5.74ZM55.9042 6.71H56.7242C56.7242 9.33 55.5442 11.62 52.5242 13.1L52.0842 12.43C54.6942 11.17 55.9042 9.25 55.9042 6.85V6.71ZM52.4942 6.71H56.2642V7.39H52.4942V6.71Z" fill="white"/>
<path d="M18.667 13.7894H10.667V9.36833C10.667 7.27559 12.458 5.57886 14.667 5.57886C16.876 5.57886 18.667 7.27559 18.667 9.36833V13.7894Z" stroke="white" stroke-linejoin="round"/>
<path d="M9.33333 16H20M8 6.84211L9 7.15789M11 4L11.3333 4.94737M10 5.89474L9 4.94737" stroke="white" stroke-linecap="round" stroke-linejoin="round"/>
</svg>
