<svg width="68" height="20" viewBox="0 0 68 20" fill="none" xmlns="http://www.w3.org/2000/svg">
<rect width="68" height="20" rx="3" fill="#48685E"/>
<path d="M13.7088 5.076H14.6928V15.948H13.7088V5.076ZM10.8408 9.108H13.9968V9.924H10.8408V9.108ZM6.19684 5.94H7.18084V8.76H10.1928V5.94H11.1768V13.224H6.19684V5.94ZM7.18084 9.552V12.396H10.1928V9.552H7.18084ZM24.4959 5.088H25.4919V15.96H24.4959V5.088ZM17.3199 12.42H18.1959C20.3439 12.42 21.7359 12.348 23.3439 12.048L23.4519 12.888C21.7959 13.2 20.3799 13.26 18.1959 13.26H17.3199V12.42ZM17.3199 6.12H22.4439V6.948H18.3039V12.732H17.3199V6.12ZM33.078 10.668H34.062V13.92H33.078V10.668ZM37.086 10.668H38.082V13.92H37.086V10.668ZM30.678 13.728H40.506V14.556H30.678V13.728ZM35.574 5.772C37.866 5.772 39.51 6.864 39.51 8.568C39.51 10.26 37.866 11.352 35.574 11.352C33.27 11.352 31.626 10.26 31.626 8.568C31.626 6.864 33.27 5.772 35.574 5.772ZM35.574 6.564C33.834 6.564 32.586 7.356 32.586 8.568C32.586 9.768 33.834 10.56 35.574 10.56C37.314 10.56 38.55 9.768 38.55 8.568C38.55 7.356 37.314 6.564 35.574 6.564ZM44.237 6.936H45.053V7.404C45.053 9.288 43.853 10.872 42.041 11.484L41.561 10.704C43.157 10.188 44.237 8.868 44.237 7.404V6.936ZM44.417 6.936H45.233V7.404C45.233 8.748 46.349 9.96 47.945 10.428L47.489 11.208C45.665 10.644 44.417 9.18 44.417 7.404V6.936ZM41.837 6.396H47.621V7.2H41.837V6.396ZM44.237 5.04H45.233V6.684H44.237V5.04ZM47.297 8.172H49.745V9H47.297V8.172ZM49.457 5.088H50.453V11.652H49.457V5.088ZM46.889 11.94C49.133 11.94 50.501 12.672 50.501 13.932C50.501 15.18 49.133 15.912 46.889 15.912C44.633 15.912 43.265 15.18 43.265 13.932C43.265 12.672 44.633 11.94 46.889 11.94ZM46.889 12.72C45.245 12.72 44.261 13.164 44.261 13.932C44.261 14.688 45.245 15.132 46.889 15.132C48.521 15.132 49.517 14.688 49.517 13.932C49.517 13.164 48.521 12.72 46.889 12.72ZM56.7881 10.512H57.7841V12.408H56.7881V10.512ZM52.3841 10.164H62.1881V10.968H52.3841V10.164ZM57.2801 12.108C59.6081 12.108 61.0001 12.792 61.0001 14.016C61.0001 15.228 59.6081 15.912 57.2801 15.912C54.9521 15.912 53.5601 15.228 53.5601 14.016C53.5601 12.792 54.9521 12.108 57.2801 12.108ZM57.2801 12.876C55.5881 12.876 54.5681 13.284 54.5681 14.016C54.5681 14.736 55.5881 15.144 57.2801 15.144C58.9841 15.144 59.9921 14.736 59.9921 14.016C59.9921 13.284 58.9841 12.876 57.2801 12.876ZM56.6441 5.976H57.5321V6.3C57.5321 8.052 55.5401 9.228 53.2961 9.504L52.9361 8.712C54.8801 8.508 56.6441 7.536 56.6441 6.3V5.976ZM57.0641 5.976H57.9401V6.3C57.9401 7.536 59.7041 8.508 61.6481 8.712L61.2881 9.504C59.0441 9.228 57.0641 8.052 57.0641 6.3V5.976ZM53.2841 5.58H61.3121V6.384H53.2841V5.58Z" fill="white"/>
</svg>
