<svg width="68" height="20" viewBox="0 0 68 20" fill="none" xmlns="http://www.w3.org/2000/svg">
<rect width="68" height="20" rx="3" fill="#48685E"/>
<path d="M15.1919 10.668H16.1759V13.92H15.1919V10.668ZM19.1999 10.668H20.1959V13.92H19.1999V10.668ZM12.7919 13.728H22.6199V14.556H12.7919V13.728ZM17.6879 5.772C19.9799 5.772 21.6239 6.864 21.6239 8.568C21.6239 10.26 19.9799 11.352 17.6879 11.352C15.3839 11.352 13.7399 10.26 13.7399 8.568C13.7399 6.864 15.3839 5.772 17.6879 5.772ZM17.6879 6.564C15.9479 6.564 14.6999 7.356 14.6999 8.568C14.6999 9.768 15.9479 10.56 17.6879 10.56C19.4279 10.56 20.6639 9.768 20.6639 8.568C20.6639 7.356 19.4279 6.564 17.6879 6.564ZM26.3509 6.936H27.1669V7.404C27.1669 9.288 25.9669 10.872 24.1549 11.484L23.6749 10.704C25.2709 10.188 26.3509 8.868 26.3509 7.404V6.936ZM26.5309 6.936H27.3469V7.404C27.3469 8.748 28.4629 9.96 30.0589 10.428L29.6029 11.208C27.7789 10.644 26.5309 9.18 26.5309 7.404V6.936ZM23.9509 6.396H29.7349V7.2H23.9509V6.396ZM26.3509 5.04H27.3469V6.684H26.3509V5.04ZM29.4109 8.172H31.8589V9H29.4109V8.172ZM31.5709 5.088H32.5669V11.652H31.5709V5.088ZM29.0029 11.94C31.2469 11.94 32.6149 12.672 32.6149 13.932C32.6149 15.18 31.2469 15.912 29.0029 15.912C26.7469 15.912 25.3789 15.18 25.3789 13.932C25.3789 12.672 26.7469 11.94 29.0029 11.94ZM29.0029 12.72C27.3589 12.72 26.3749 13.164 26.3749 13.932C26.3749 14.688 27.3589 15.132 29.0029 15.132C30.6349 15.132 31.6309 14.688 31.6309 13.932C31.6309 13.164 30.6349 12.72 29.0029 12.72ZM41.926 5.088H42.922V11.436H41.926V5.088ZM42.646 7.692H44.53V8.532H42.646V7.692ZM34.954 5.688H35.938V7.344H38.998V5.688H39.97V10.752H34.954V5.688ZM35.938 8.136V9.948H38.998V8.136H35.938ZM36.142 12.024H43.006V12.828H37.138V15.552H36.142V12.024ZM36.142 14.976H43.222V15.792H36.142V14.976ZM50.2651 5.328C52.6051 5.328 54.0811 6.096 54.0811 7.38C54.0811 8.664 52.6051 9.42 50.2651 9.42C47.9131 9.42 46.4491 8.664 46.4491 7.38C46.4491 6.096 47.9131 5.328 50.2651 5.328ZM50.2651 6.12C48.5371 6.12 47.4691 6.576 47.4691 7.38C47.4691 8.172 48.5371 8.64 50.2651 8.64C51.9811 8.64 53.0611 8.172 53.0611 7.38C53.0611 6.576 51.9811 6.12 50.2651 6.12ZM46.5571 12.216H53.9611V15.792H46.5571V12.216ZM52.9891 13.02H47.5411V14.988H52.9891V13.02ZM45.3571 10.356H55.1611V11.16H45.3571V10.356Z" fill="white"/>
</svg>
