<svg width="30" height="30" viewBox="0 0 30 30" fill="none" xmlns="http://www.w3.org/2000/svg">
<path d="M10.45 24.1H9.8C4.6 24.1 2 22.8 2 16.3V9.8C2 4.6 4.6 2 9.8 2H20.2C25.4 2 28 4.6 28 9.8V16.3C28 21.5 25.4 24.1 20.2 24.1H19.55C19.147 24.1 18.757 24.295 18.51 24.62L16.56 27.22C15.702 28.364 14.298 28.364 13.44 27.22L11.49 24.62C11.282 24.334 10.801 24.1 10.45 24.1Z" stroke="#0B4648" stroke-width="2.35291" stroke-miterlimit="10" stroke-linecap="round" stroke-linejoin="round"/>
<path d="M20.1953 13.7H20.2069" stroke="#0B4648" stroke-width="3.13722" stroke-linecap="round" stroke-linejoin="round"/>
<path d="M14.9941 13.7H15.0058" stroke="#0B4648" stroke-width="3.13722" stroke-linecap="round" stroke-linejoin="round"/>
<path d="M9.79297 13.7H9.80464" stroke="#0B4648" stroke-width="3.13722" stroke-linecap="round" stroke-linejoin="round"/>
</svg>
