<svg width="26" height="26" viewBox="0 0 26 26" fill="none" xmlns="http://www.w3.org/2000/svg">
    <path d="M24.7247 1.64667C23.8333 0.631429 22.5085 0 21.0476 0C19.6609 0 18.3981 0.569524 17.4943 1.4981C16.9743 2.03048 16.5781 2.67429 16.3428 3.39238C16.1819 3.88762 16.0952 4.40762 16.0952 4.95238C16.0952 5.88095 16.3552 6.76 16.8133 7.50286C17.0609 7.92381 17.3828 8.30762 17.7543 8.62952C18.6209 9.4219 19.7724 9.90476 21.0476 9.90476C21.5924 9.90476 22.1124 9.8181 22.5952 9.64476C23.7343 9.28571 24.6876 8.50571 25.2819 7.50286C25.5419 7.0819 25.74 6.59905 25.8514 6.10381C25.9505 5.73238 26 5.34857 26 4.95238C26 3.68952 25.5171 2.52571 24.7247 1.64667ZM22.8924 5.85619H21.9762V6.82191C21.9762 7.32952 21.5552 7.75048 21.0476 7.75048C20.54 7.75048 20.119 7.32952 20.119 6.82191V5.85619H19.2028C18.6952 5.85619 18.2743 5.43524 18.2743 4.92762C18.2743 4.42 18.6952 3.99905 19.2028 3.99905H20.119V3.12C20.119 2.61238 20.54 2.19143 21.0476 2.19143C21.5552 2.19143 21.9762 2.61238 21.9762 3.12V3.99905H22.8924C23.4 3.99905 23.8209 4.42 23.8209 4.92762C23.8209 5.43524 23.4124 5.85619 22.8924 5.85619Z" fill="#292D32"/>
    <path d="M24.7619 13.619C24.7619 11.9971 24.4524 10.4371 23.8705 9.01327C23.4867 9.28566 23.0533 9.49613 22.5952 9.6447C22.459 9.69423 22.3229 9.73137 22.1743 9.76851C22.6448 10.9571 22.9048 12.2571 22.9048 13.619C22.9048 16.4914 21.741 19.1037 19.859 21.0104C19.5 20.5523 19.0419 20.1314 18.4971 19.7723C15.1419 17.519 9.64476 17.519 6.26476 19.7723C5.72 20.1314 5.27429 20.5523 4.90286 21.0104C3.02095 19.1037 1.85714 16.4914 1.85714 13.619C1.85714 7.81232 6.57429 3.09518 12.381 3.09518C13.7305 3.09518 15.0305 3.35518 16.219 3.82566C16.2562 3.67708 16.2933 3.54089 16.3429 3.39232C16.4914 2.93423 16.7019 2.51328 16.9867 2.12947C15.5629 1.54756 14.0029 1.23804 12.381 1.23804C5.55905 1.23804 0 6.79708 0 13.619C0 17.2095 1.54762 20.4409 3.99905 22.7066C3.99905 22.719 3.99905 22.719 3.98667 22.7314C4.11048 22.8552 4.25905 22.9542 4.38286 23.0657C4.45714 23.1276 4.51905 23.1895 4.59333 23.239C4.81619 23.4247 5.06381 23.598 5.29905 23.7714C5.38571 23.8333 5.46 23.8828 5.54667 23.9447C5.7819 24.1057 6.02952 24.2542 6.28952 24.3904C6.37619 24.4399 6.47524 24.5018 6.5619 24.5514C6.80952 24.6876 7.06952 24.8114 7.3419 24.9228C7.44095 24.9723 7.54 25.0218 7.63905 25.059C7.91143 25.1704 8.18381 25.2695 8.45619 25.3561C8.55524 25.3933 8.65428 25.4304 8.75333 25.4552C9.05048 25.5418 9.34762 25.6161 9.64476 25.6904C9.73143 25.7152 9.81809 25.7399 9.91714 25.7523C10.2638 25.8266 10.6105 25.8761 10.9695 25.9133C11.019 25.9133 11.0686 25.9257 11.1181 25.938C11.539 25.9752 11.96 25.9999 12.381 25.9999C12.8019 25.9999 13.2229 25.9752 13.6314 25.938C13.681 25.938 13.7305 25.9257 13.78 25.9133C14.139 25.8761 14.4857 25.8266 14.8324 25.7523C14.919 25.7399 15.0057 25.7028 15.1048 25.6904C15.4019 25.6161 15.7114 25.5542 15.9962 25.4552C16.0952 25.418 16.1943 25.3809 16.2933 25.3561C16.5657 25.2571 16.8505 25.1704 17.1105 25.059C17.2095 25.0218 17.3086 24.9723 17.4076 24.9228C17.6676 24.8114 17.9276 24.6876 18.1876 24.5514C18.2867 24.5018 18.3733 24.4399 18.46 24.3904C18.7076 24.2418 18.9552 24.1057 19.2029 23.9447C19.2895 23.8952 19.3638 23.8333 19.4505 23.7714C19.6981 23.598 19.9333 23.4247 20.1562 23.239C20.2305 23.1771 20.2924 23.1152 20.3667 23.0657C20.5029 22.9542 20.639 22.8428 20.7629 22.7314C20.7629 22.719 20.7629 22.719 20.7505 22.7066C23.2143 20.4409 24.7619 17.2095 24.7619 13.619Z" fill="#292D32"/>
    <path d="M12.381 7.34155C9.81816 7.34155 7.73816 9.42155 7.73816 11.9844C7.73816 14.4978 9.70673 16.5406 12.3191 16.6149H12.4305H12.5172H12.542C15.0429 16.5282 17.0115 14.4978 17.0239 11.9844C17.0239 9.42155 14.9439 7.34155 12.381 7.34155Z" fill="#292D32"/>
</svg>
