<svg width="12" height="12" viewBox="0 0 12 12" fill="none" xmlns="http://www.w3.org/2000/svg">
    <path d="M6 8C4.896 8 4 7.104 4 6C4 4.896 4.896 4 6 4C7.104 4 8 4.896 8 6C8 7.104 7.104 8 6 8ZM6 4.8C5.33867 4.8 4.8 5.33867 4.8 6C4.8 6.66133 5.33867 7.2 6 7.2C6.66133 7.2 7.2 6.66133 7.2 6C7.2 5.33867 6.66133 4.8 6 4.8Z" fill="#636363"/>
    <path d="M7.78439 11.9976C7.66729 11.9976 7.55019 11.9799 7.43309 11.9505C7.08736 11.8504 6.7974 11.6208 6.61338 11.297L6.54647 11.1792C6.21747 10.5787 5.7658 10.5787 5.4368 11.1792L5.37546 11.2911C5.19145 11.6208 4.90149 11.8563 4.55576 11.9505C4.20446 12.0506 3.84201 11.9976 3.53532 11.8033L2.57621 11.2204C2.23606 11.0144 1.99071 10.6788 1.88476 10.2725C1.78439 9.86629 1.83457 9.44827 2.02974 9.08913C2.19145 8.78886 2.23606 8.51804 2.14126 8.3473C2.04647 8.17656 1.80669 8.07647 1.4777 8.07647C0.663569 8.07647 0 7.37584 0 6.51626V5.48004C0 4.62045 0.663569 3.91983 1.4777 3.91983C1.80669 3.91983 2.04647 3.81974 2.14126 3.649C2.23606 3.47826 2.19703 3.20743 2.02974 2.90716C1.83457 2.54802 1.78439 2.12412 1.88476 1.72376C1.98513 1.31752 2.23048 0.981924 2.57621 0.775858L3.54089 0.192987C4.171 -0.201481 5.00186 0.0281346 5.38104 0.705207L5.44796 0.822959C5.77695 1.42349 6.22862 1.42349 6.55762 0.822959L6.61896 0.711095C6.99814 0.0281346 7.829 -0.201481 8.46468 0.198875L9.42379 0.781746C9.76394 0.987811 10.0093 1.3234 10.1152 1.72965C10.2156 2.13589 10.1654 2.55391 9.97026 2.91305C9.80855 3.21332 9.76394 3.48415 9.85874 3.65489C9.95353 3.82563 10.1933 3.92572 10.5223 3.92572C11.3364 3.92572 12 4.62634 12 5.48593V6.52214C12 7.38173 11.3364 8.08235 10.5223 8.08235C10.1933 8.08235 9.95353 8.18244 9.85874 8.35318C9.76394 8.52392 9.80297 8.79475 9.97026 9.09502C10.1654 9.45416 10.2212 9.87807 10.1152 10.2784C10.0149 10.6847 9.76952 11.0203 9.42379 11.2263L8.45911 11.8092C8.24721 11.9328 8.01859 11.9976 7.78439 11.9976ZM5.99442 9.81919C6.49071 9.81919 6.95353 10.1489 7.27138 10.7318L7.33271 10.8436C7.39963 10.9673 7.51115 11.0556 7.64498 11.0909C7.77881 11.1262 7.91264 11.1086 8.02416 11.0379L8.98885 10.4492C9.13383 10.3608 9.24535 10.2137 9.28996 10.037C9.33457 9.8604 9.31227 9.67789 9.22862 9.52481C8.91078 8.94783 8.87175 8.35318 9.1171 7.89984C9.36245 7.44649 9.86989 7.18744 10.5056 7.18744C10.8625 7.18744 11.1468 6.88717 11.1468 6.51037V5.47415C11.1468 5.10323 10.8625 4.79708 10.5056 4.79708C9.86989 4.79708 9.36245 4.53803 9.1171 4.08468C8.87175 3.63134 8.91078 3.03669 9.22862 2.45971C9.31227 2.30663 9.33457 2.12412 9.28996 1.94749C9.24535 1.77086 9.13941 1.62956 8.99442 1.53536L8.02974 0.952486C7.78996 0.799409 7.47212 0.887722 7.32714 1.14678L7.2658 1.25864C6.94796 1.84151 6.48513 2.17122 5.98885 2.17122C5.49257 2.17122 5.02974 1.84151 4.7119 1.25864L4.65056 1.14089C4.51115 0.89361 4.19888 0.805296 3.95911 0.952486L2.99442 1.54124C2.84944 1.62956 2.73792 1.77675 2.69331 1.95338C2.6487 2.13 2.671 2.31252 2.75465 2.4656C3.07249 3.04258 3.11152 3.63723 2.86617 4.09057C2.62082 4.54391 2.11338 4.80297 1.4777 4.80297C1.12082 4.80297 0.836431 5.10323 0.836431 5.48004V6.51626C0.836431 6.88717 1.12082 7.19333 1.4777 7.19333C2.11338 7.19333 2.62082 7.45238 2.86617 7.90573C3.11152 8.35907 3.07249 8.95372 2.75465 9.5307C2.671 9.68378 2.6487 9.86629 2.69331 10.0429C2.73792 10.2195 2.84387 10.3608 2.98885 10.4551L3.95353 11.0379C4.07063 11.1145 4.21004 11.1321 4.33829 11.0968C4.47212 11.0615 4.58364 10.9673 4.65613 10.8436L4.71747 10.7318C5.03532 10.1548 5.49814 9.81919 5.99442 9.81919Z" fill="#636363"/>
</svg>
