<svg width="26" height="27" viewBox="0 0 26 27" fill="none" xmlns="http://www.w3.org/2000/svg">
    <path d="M20.9935 5.4C20.1808 5.4 19.4347 4.9275 19.0617 4.1985L18.1025 2.241C17.4897 1.0125 15.891 0 14.5321 0H11.4813C10.109 0 8.51033 1.0125 7.8975 2.241L6.93828 4.1985C6.56526 4.9275 5.8192 5.4 5.00653 5.4C2.11557 5.4 -0.175882 7.8705 0.0106313 10.7865L0.703397 21.9375C0.863265 24.7185 2.34205 27 6.01904 27H19.981C23.6579 27 25.1234 24.7185 25.2966 21.9375L25.9894 10.7865C26.1759 7.8705 23.8844 5.4 20.9935 5.4ZM11.0017 7.0875H14.9984C15.5446 7.0875 15.9976 7.5465 15.9976 8.1C15.9976 8.6535 15.5446 9.1125 14.9984 9.1125H11.0017C10.4554 9.1125 10.0024 8.6535 10.0024 8.1C10.0024 7.5465 10.4554 7.0875 11.0017 7.0875ZM13 21.762C10.5221 21.762 8.497 19.7235 8.497 17.199C8.497 14.6745 10.5087 12.636 13 12.636C15.4913 12.636 17.503 14.6745 17.503 17.199C17.503 19.7235 15.478 21.762 13 21.762Z" fill="#292D32"/>
</svg>
