<svg width="20" height="20" viewBox="0 0 20 20" fill="none" xmlns="http://www.w3.org/2000/svg">
    <path d="M17.3335 2.66667V0H16.0002V2.66667H13.3335V4H16.0002V6.66667H17.3335V4H20.0002V2.66667H17.3335Z" fill="black"/>
    <path d="M5.66667 10H4V11.6667H5.66667V10Z" fill="black"/>
    <path d="M11.3332 10H9.6665V11.6667H11.3332V10Z" fill="black"/>
    <path d="M7.80986 15.3333H7.5234C6.99184 15.335 6.47202 15.177 6.03128 14.8799C5.59055 14.5827 5.2492 14.16 5.05148 13.6666H3.61523L3.80948 14.1522C4.10419 14.8959 4.61615 15.5337 5.27863 15.9822C5.94112 16.4307 6.72337 16.6692 7.5234 16.6666H7.80986C8.60988 16.6692 9.39213 16.4307 10.0546 15.9822C10.7171 15.5337 11.229 14.8959 11.5237 14.1522L11.718 13.6666H10.2817C10.084 14.16 9.74268 14.5827 9.30195 14.8799C8.86122 15.177 8.34141 15.335 7.80986 15.3333Z" fill="black"/>
    <path d="M7.66667 4.66663C3.43925 4.66663 0 8.10588 0 12.3333C0 16.5607 3.43925 20 7.66667 20C11.8941 20 15.3333 16.5607 15.3333 12.3333C15.3333 8.10588 11.8941 4.66663 7.66667 4.66663ZM7.66667 18.6666C4.17446 18.6666 1.33333 15.8255 1.33333 12.3333C1.33333 8.84108 4.17446 5.99996 7.66667 5.99996C11.1589 5.99996 14 8.84108 14 12.3333C14 15.8255 11.1589 18.6666 7.66667 18.6666Z" fill="black"/>
</svg>
