<svg width="26" height="26" viewBox="0 0 26 26" fill="none" xmlns="http://www.w3.org/2000/svg">
    <path d="M19.5 0H6.5C2.912 0 0 2.899 0 6.474V14.248V15.548C0 19.123 2.912 22.022 6.5 22.022H8.45C8.801 22.022 9.269 22.256 9.49 22.542L11.44 25.129C12.298 26.273 13.702 26.273 14.56 25.129L16.51 22.542C16.757 22.217 17.147 22.022 17.55 22.022H19.5C23.088 22.022 26 19.123 26 15.548V6.474C26 2.899 23.088 0 19.5 0ZM7.8 13C7.072 13 6.5 12.415 6.5 11.7C6.5 10.985 7.085 10.4 7.8 10.4C8.515 10.4 9.1 10.985 9.1 11.7C9.1 12.415 8.528 13 7.8 13ZM13 13C12.272 13 11.7 12.415 11.7 11.7C11.7 10.985 12.285 10.4 13 10.4C13.715 10.4 14.3 10.985 14.3 11.7C14.3 12.415 13.728 13 13 13ZM18.2 13C17.472 13 16.9 12.415 16.9 11.7C16.9 10.985 17.485 10.4 18.2 10.4C18.915 10.4 19.5 10.985 19.5 11.7C19.5 12.415 18.928 13 18.2 13Z" fill="#292D32"/>
</svg>
