<svg width="20" height="20" viewBox="0 0 20 20" fill="none" xmlns="http://www.w3.org/2000/svg">
<rect width="20" height="20" rx="3" fill="#48685E"/>
<path d="M6.11763 6.82349H5.41176C5.03733 6.82349 4.67825 6.97222 4.41349 7.23698C4.14874 7.50174 4 7.86082 4 8.23524V14.5881C4 14.9626 4.14874 15.3216 4.41349 15.5864C4.67825 15.8512 5.03733 15.9999 5.41176 15.9999H11.7647C12.1391 15.9999 12.4982 15.8512 12.7629 15.5864C13.0277 15.3216 13.1764 14.9626 13.1764 14.5881V13.8823" stroke="white" stroke-linecap="round" stroke-linejoin="round"/>
<path d="M12.4704 5.41183L14.5881 7.52947M15.5657 6.53065C15.8437 6.25264 15.9999 5.87558 15.9999 5.48242C15.9999 5.08926 15.8437 4.7122 15.5657 4.43419C15.2877 4.15618 14.9107 4 14.5175 4C14.1243 4 13.7473 4.15618 13.4693 4.43419L7.5293 10.353V12.4706H9.64693L15.5657 6.53065Z" stroke="white" stroke-linecap="round" stroke-linejoin="round"/>
</svg>
