<svg width="22" height="24" viewBox="0 0 22 24" fill="none" xmlns="http://www.w3.org/2000/svg">
    <path d="M6.48751 5.58975C6.02495 5.58975 5.64136 5.24103 5.64136 4.82052V1.7436C5.64136 1.32308 6.02495 0.974365 6.48751 0.974365C6.95008 0.974365 7.33367 1.32308 7.33367 1.7436V4.82052C7.33367 5.24103 6.95008 5.58975 6.48751 5.58975Z" fill="#666666"/>
    <path d="M15.5129 5.58975C15.0503 5.58975 14.6667 5.24103 14.6667 4.82052V1.7436C14.6667 1.32308 15.0503 0.974365 15.5129 0.974365C15.9755 0.974365 16.3591 1.32308 16.3591 1.7436V4.82052C16.3591 5.24103 15.9755 5.58975 15.5129 5.58975Z" fill="#666666"/>
    <path d="M14.3845 13.7946H5.35885C4.89629 13.7946 4.5127 13.4458 4.5127 13.0253C4.5127 12.6048 4.89629 12.2561 5.35885 12.2561H14.3845C14.8471 12.2561 15.2306 12.6048 15.2306 13.0253C15.2306 13.4458 14.8471 13.7946 14.3845 13.7946Z" fill="#666666"/>
    <path d="M10.9999 17.8973H5.35885C4.89629 17.8973 4.5127 17.5486 4.5127 17.1281C4.5127 16.7076 4.89629 16.3589 5.35885 16.3589H10.9999C11.4624 16.3589 11.846 16.7076 11.846 17.1281C11.846 17.5486 11.4624 17.8973 10.9999 17.8973Z" fill="#666666"/>
    <path d="M14.3846 23.0257H7.61539C1.27487 23.0257 0 20.3078 0 15.918V9.5898C0 4.72826 1.80513 2.74878 6.44205 2.51288H15.5128H15.558C20.1949 2.74878 22 4.72826 22 9.5898V15.918C22 20.3078 20.7251 23.0257 14.3846 23.0257ZM6.48718 4.05134C3.32821 4.21544 1.69231 5.11801 1.69231 9.5898V15.918C1.69231 19.8462 2.5159 21.4872 7.61539 21.4872H14.3846C19.4841 21.4872 20.3077 19.8462 20.3077 15.918V9.5898C20.3077 5.12826 18.6831 4.21544 15.4903 4.05134H6.48718Z" fill="#666666"/>
</svg>
