<svg width="26" height="27" viewBox="0 0 26 27" fill="none" xmlns="http://www.w3.org/2000/svg">
    <path d="M25 26.6562H1C0.453333 26.6562 0 26.2029 0 25.6562C0 25.1096 0.453333 24.6562 1 24.6562H25C25.5467 24.6562 26 25.1096 26 25.6562C26 26.2029 25.5467 26.6562 25 26.6562Z" fill="#292D32"/>
    <path d="M22.3607 1.96508C19.7741 -0.621587 17.2408 -0.688254 14.5874 1.96508L12.9741 3.57841C12.8408 3.71175 12.7874 3.92508 12.8407 4.11175C13.8541 7.64508 16.6808 10.4717 20.2141 11.4851C20.2674 11.4984 20.3207 11.5117 20.3741 11.5117C20.5207 11.5117 20.6541 11.4584 20.7607 11.3517L22.3607 9.73841C23.6807 8.43175 24.3208 7.16508 24.3208 5.88508C24.3341 4.56508 23.6941 3.28508 22.3607 1.96508Z" fill="#292D32"/>
    <path d="M17.8136 12.6974C17.4269 12.5108 17.0536 12.3241 16.6936 12.1108C16.4002 11.9374 16.1202 11.7508 15.8402 11.5508C15.6136 11.4041 15.3469 11.1908 15.0936 10.9774C15.0669 10.9641 14.9736 10.8841 14.8669 10.7774C14.4269 10.4041 13.9336 9.92406 13.4936 9.39073C13.4536 9.36406 13.3869 9.27073 13.2936 9.15073C13.1602 8.99073 12.9336 8.72406 12.7336 8.4174C12.5736 8.2174 12.3869 7.92406 12.2136 7.63073C12.0002 7.27073 11.8136 6.91073 11.6269 6.5374C11.5986 6.47688 11.5713 6.41665 11.5449 6.35678C11.3481 5.91236 10.7685 5.78242 10.4249 6.1261L2.78693 13.7641C2.6136 13.9374 2.4536 14.2708 2.4136 14.4974L1.6936 19.6041C1.56026 20.5108 1.8136 21.3641 2.3736 21.9374C2.8536 22.4041 3.52026 22.6574 4.24026 22.6574C4.40026 22.6574 4.56026 22.6441 4.72026 22.6174L9.84026 21.8974C10.0803 21.8574 10.4136 21.6974 10.5736 21.5241L18.202 13.8957C18.5481 13.5496 18.4176 12.9557 17.9674 12.7636C17.9168 12.742 17.8654 12.7198 17.8136 12.6974Z" fill="#292D32"/>
</svg>
