<svg width="12" height="10" viewBox="0 0 12 10" fill="none" xmlns="http://www.w3.org/2000/svg">
<path d="M3 1.61H3.19579L3.33952 1.47705L4.39579 0.5H7.60421L8.66048 1.47705L8.80421 1.61H9H10.8C10.9977 1.61 11.1802 1.683 11.309 1.80216L11.6485 1.43511L11.309 1.80216C11.4365 1.92011 11.5 2.07135 11.5 2.22V8.88C11.5 9.02865 11.4365 9.17989 11.309 9.29784C11.1802 9.417 10.9977 9.49 10.8 9.49H1.2C1.00231 9.49 0.819814 9.417 0.690993 9.29784C0.563484 9.17989 0.5 9.02865 0.5 8.88V2.22C0.5 2.07135 0.563484 1.92011 0.690993 1.80216C0.819814 1.683 1.00231 1.61 1.2 1.61H3ZM6 2.275C5.08378 2.275 4.19799 2.61131 3.53916 3.22073C2.87901 3.83136 2.5 4.66828 2.5 5.55C2.5 6.43172 2.87901 7.26864 3.53916 7.87927C4.19799 8.48869 5.08378 8.825 6 8.825C6.91622 8.825 7.80201 8.48869 8.46084 7.87927C9.12099 7.26864 9.5 6.43172 9.5 5.55C9.5 4.66828 9.12099 3.83136 8.46084 3.22073C7.80201 2.61131 6.91622 2.275 6 2.275ZM6 4.385C6.35682 4.385 6.69193 4.51647 6.93327 4.73972C7.1733 4.96174 7.3 5.25416 7.3 5.55C7.3 5.84584 7.1733 6.13825 6.93327 6.36028C6.69193 6.58353 6.35682 6.715 6 6.715C5.64318 6.715 5.30807 6.58353 5.06673 6.36028C4.8267 6.13825 4.7 5.84584 4.7 5.55C4.7 5.25416 4.8267 4.96174 5.06673 4.73972C5.30807 4.51647 5.64318 4.385 6 4.385Z" fill="#48685E" stroke="#48685E"/>
</svg>
