<svg width="30" height="22" viewBox="0 0 30 22" fill="none" xmlns="http://www.w3.org/2000/svg">
<path d="M0 15.6256C0.68798 16.4965 1.45024 17.3061 2.27821 18.0452C2.27566 17.9726 2.26547 17.9038 2.26547 17.8312C2.27045 16.5388 2.66637 15.2781 3.40118 14.2149C4.136 13.1516 5.17532 12.3356 6.38255 11.874C6.60458 11.79 6.79871 11.6456 6.94303 11.4571C7.08735 11.2686 7.17611 11.0436 7.19928 10.8073C7.22246 10.571 7.17913 10.333 7.07419 10.1201C6.96925 9.90711 6.80688 9.72774 6.6054 9.60219C6.05483 9.26204 5.60083 8.78622 5.28687 8.2203C4.97292 7.65438 4.80954 7.01733 4.81238 6.37017C4.8096 5.62825 5.02378 4.90172 5.42855 4.27995C5.83332 3.65818 6.41104 3.1683 7.09061 2.8706C7.77018 2.5729 8.52195 2.48036 9.25343 2.60437C9.98491 2.72838 10.6642 3.06352 11.2077 3.56857C12.0037 3.11163 12.8762 2.80311 13.7826 2.65805C13.2858 1.96401 12.6544 1.37706 11.926 0.932188C11.1976 0.487315 10.3871 0.193618 9.54275 0.068596C8.69844 -0.056426 7.8376 -0.0102148 7.01152 0.204476C6.18545 0.419168 5.41104 0.797945 4.73444 1.31824C4.05784 1.83854 3.4929 2.4897 3.07327 3.23294C2.65364 3.97618 2.38791 4.79629 2.29192 5.64439C2.19593 6.49249 2.27164 7.35124 2.51454 8.16947C2.75744 8.98769 3.16255 9.74866 3.70575 10.407C1.873 11.6339 0.554359 13.4909 0 15.6256ZM30 15.6256C29.4462 13.49 28.1275 11.632 26.2943 10.4045C26.8357 9.74592 27.2392 8.98523 27.4807 8.16763C27.7223 7.35003 27.797 6.4922 27.7004 5.64515C27.6038 4.7981 27.3379 3.97912 26.9185 3.23689C26.4991 2.49466 25.9347 1.84434 25.2589 1.32459C24.5831 0.804834 23.8097 0.426262 22.9847 0.211374C22.1597 -0.00351373 21.2999 -0.0503287 20.4564 0.0737119C19.613 0.197753 18.803 0.490116 18.0748 0.933423C17.3466 1.37673 16.715 1.96193 16.2174 2.65423C17.1238 2.79924 17.9963 3.10776 18.7923 3.56475C19.1825 3.2059 19.6433 2.93239 20.1451 2.76169C20.647 2.59099 21.179 2.52685 21.707 2.57338C22.2351 2.61991 22.7476 2.77608 23.2119 3.03192C23.6762 3.28775 24.082 3.63762 24.4034 4.05917C24.7248 4.48073 24.9548 4.96469 25.0785 5.48014C25.2023 5.99559 25.2172 6.5312 25.1223 7.05273C25.0273 7.57426 24.8247 8.07026 24.5272 8.50902C24.2297 8.94779 23.8439 9.31967 23.3946 9.60092C23.1931 9.72647 23.0307 9.90584 22.9258 10.1188C22.8209 10.3317 22.7775 10.5698 22.8007 10.806C22.8239 11.0423 22.9127 11.2674 23.057 11.4559C23.2013 11.6443 23.3954 11.7887 23.6175 11.8728C24.8249 12.3344 25.8643 13.1506 26.5992 14.2141C27.334 15.2776 27.7298 16.5386 27.7345 17.8312C27.7345 17.9038 27.7243 17.9726 27.7218 18.0439C28.5497 17.3052 29.312 16.4961 30 15.6256Z" fill="#0B4648"/>
<path d="M23.8674 20.7401C23.7291 19.4332 23.3055 18.1726 22.6267 17.0473C21.9479 15.9221 21.0303 14.9595 19.9388 14.2276C20.8751 13.0912 21.3846 11.6632 21.3791 10.1908C21.3785 9.1706 21.1328 8.16549 20.6627 7.2601C20.1925 6.35471 19.5117 5.57554 18.6776 4.98821C17.8434 4.40088 16.8803 4.02258 15.8695 3.88517C14.8586 3.74776 13.8295 3.85527 12.8688 4.19863C11.9081 4.54199 11.044 5.11116 10.3493 5.85821C9.65453 6.60526 9.14945 7.50831 8.87657 8.49132C8.6037 9.47434 8.57102 10.5085 8.7813 11.5068C8.99157 12.5051 9.43864 13.4382 10.0849 14.2276C8.99334 14.9595 8.07579 15.9221 7.39697 17.0473C6.71815 18.1726 6.29461 19.4332 6.15625 20.7401C6.96464 21.1601 7.80219 21.5214 8.66241 21.8212C8.65986 21.7639 8.64458 21.7104 8.64458 21.6519C8.64991 20.3595 9.04596 19.099 9.78073 18.0358C10.5155 16.9726 11.5546 16.1565 12.7616 15.6946C12.984 15.6108 13.1785 15.4664 13.323 15.2778C13.4676 15.0892 13.5565 14.8639 13.5797 14.6274C13.6029 14.3909 13.5594 14.1526 13.4542 13.9395C13.349 13.7264 13.1863 13.547 12.9845 13.4215C12.4338 13.0819 11.9796 12.6063 11.6656 12.0406C11.3516 11.4748 11.1884 10.8378 11.1915 10.1908C11.1915 9.17756 11.594 8.20584 12.3104 7.48938C13.0269 6.77293 13.9986 6.37042 15.0118 6.37042C16.0251 6.37042 16.9968 6.77293 17.7132 7.48938C18.4297 8.20584 18.8322 9.17756 18.8322 10.1908C18.8353 10.8378 18.672 11.4748 18.358 12.0406C18.0441 12.6063 17.5899 13.0819 17.0392 13.4215C16.8373 13.547 16.6746 13.7264 16.5695 13.9395C16.4643 14.1526 16.4208 14.3909 16.444 14.6274C16.4672 14.8639 16.5561 15.0892 16.7007 15.2778C16.8452 15.4664 17.0397 15.6108 17.262 15.6946C18.4691 16.1565 19.5082 16.9726 20.243 18.0358C20.9777 19.099 21.3738 20.3595 21.3791 21.6519C21.3791 21.7104 21.3638 21.7639 21.3626 21.8212C22.2223 21.5213 23.0595 21.16 23.8674 20.7401Z" fill="#0B4648"/>
</svg>
