<svg width="302" height="48" viewBox="0 0 302 48" fill="none" xmlns="http://www.w3.org/2000/svg">
    <g filter="url(#filter0_d_497_1016)">
        <path d="M4.8 31V2.48L28.88 2.4C32.0533 2.4 34.4 3.06667 35.92 4.4C37.4667 5.70666 38.24 7.68 38.24 10.32C38.24 12.96 37.36 14.8933 35.6 16.12C36.7733 16.76 37.64 17.6133 38.2 18.68C38.76 19.72 39.04 21.0667 39.04 22.72C39.04 25.4133 38.2667 27.4667 36.72 28.88C35.2 30.2667 32.8533 30.96 29.68 30.96L4.8 31ZM28.12 7.52H11.2V13.92H28.12C30.5467 13.92 31.76 12.8267 31.76 10.64C31.76 8.56 30.5467 7.52 28.12 7.52ZM28.92 19.04H11.2V25.84H28.92C31.3467 25.84 32.56 24.6933 32.56 22.4C32.56 20.16 31.3467 19.04 28.92 19.04ZM42.2328 31V10.4H48.0328V31H42.2328ZM42.1928 7V2.48H48.0728V7H42.1928ZM51.8281 31V10.4H67.5881C69.9081 10.4 71.6148 10.9867 72.7081 12.16C73.8015 13.3067 74.3481 14.8267 74.3481 16.72V21H68.4681V17.44C68.4681 15.84 67.6681 15.04 66.0681 15.04H57.7081V31H51.8281ZM103.072 31H97.2725V2.4H103.072V31ZM102.072 31H88.2725C84.6992 31 81.9125 30.12 79.9125 28.36C77.9125 26.6 76.9125 24.0533 76.9125 20.72C76.9125 17.36 77.9125 14.8 79.9125 13.04C81.9125 11.28 84.6992 10.4 88.2725 10.4H101.672V15H88.2725C86.5392 15 85.2058 15.48 84.2725 16.44C83.3658 17.3733 82.9125 18.8 82.9125 20.72C82.9125 22.6133 83.3658 24.04 84.2725 25C85.2058 25.9333 86.5392 26.4 88.2725 26.4H102.072V31ZM106.878 31V10.4H112.678V31H106.878ZM106.838 7V2.48H112.718V7H106.838ZM127.033 31.2C123.46 31.2 120.673 30.32 118.673 28.56C116.673 26.7733 115.673 24.16 115.673 20.72C115.673 17.2533 116.673 14.64 118.673 12.88C120.673 11.0933 123.46 10.2 127.033 10.2H137.033C139.38 10.2 141.167 10.76 142.393 11.88C143.647 12.9733 144.273 14.5467 144.273 16.6C144.273 20.7867 141.86 22.88 137.033 22.88H121.913C122.473 25.36 124.18 26.6 127.033 26.6H143.233V31.2H127.033ZM127.033 14.8C124.287 14.8 122.593 15.96 121.953 18.28H136.753C137.287 18.28 137.7 18.12 137.993 17.8C138.313 17.48 138.473 17.04 138.473 16.48C138.473 15.36 137.9 14.8 136.753 14.8H127.033ZM147.88 31V2.48L171.96 2.4C175.133 2.4 177.48 3.06667 179 4.4C180.546 5.70666 181.32 7.68 181.32 10.32C181.32 12.96 180.44 14.8933 178.68 16.12C179.853 16.76 180.72 17.6133 181.28 18.68C181.84 19.72 182.12 21.0667 182.12 22.72C182.12 25.4133 181.346 27.4667 179.8 28.88C178.28 30.2667 175.933 30.96 172.76 30.96L147.88 31ZM171.2 7.52H154.28V13.92H171.2C173.626 13.92 174.84 12.8267 174.84 10.64C174.84 8.56 173.626 7.52 171.2 7.52ZM172 19.04H154.28V25.84H172C174.426 25.84 175.64 24.6933 175.64 22.4C175.64 20.16 174.426 19.04 172 19.04ZM191.873 31C189.526 31 187.806 30.4133 186.713 29.24C185.646 28.0667 185.113 26.5467 185.113 24.68V10.4H190.913V24C190.913 25.6 191.713 26.4 193.313 26.4H201.633C203.233 26.4 204.033 25.6 204.033 24V10.4H209.833V24.68C209.833 26.5467 209.286 28.0667 208.193 29.24C207.126 30.4133 205.419 31 203.073 31H191.873ZM238.783 31H232.983V2.4H238.783V31ZM237.783 31H223.983C220.41 31 217.623 30.12 215.623 28.36C213.623 26.6 212.623 24.0533 212.623 20.72C212.623 17.36 213.623 14.8 215.623 13.04C217.623 11.28 220.41 10.4 223.983 10.4H237.383V15H223.983C222.25 15 220.917 15.48 219.983 16.44C219.077 17.3733 218.623 18.8 218.623 20.72C218.623 22.6133 219.077 24.04 219.983 25C220.917 25.9333 222.25 26.4 223.983 26.4H237.783V31ZM267.949 31H262.149V2.4H267.949V31ZM266.949 31H253.149C249.576 31 246.789 30.12 244.789 28.36C242.789 26.6 241.789 24.0533 241.789 20.72C241.789 17.36 242.789 14.8 244.789 13.04C246.789 11.28 249.576 10.4 253.149 10.4H266.549V15H253.149C251.416 15 250.082 15.48 249.149 16.44C248.242 17.3733 247.789 18.8 247.789 20.72C247.789 22.6133 248.242 24.04 249.149 25C250.082 25.9333 251.416 26.4 253.149 26.4H266.949V31ZM276.395 40V35.4H288.475C290.075 35.4 290.875 34.5867 290.875 32.96V31H278.515C276.168 31 274.448 30.4133 273.355 29.24C272.288 28.0667 271.755 26.5467 271.755 24.68V10.4H277.555V24C277.555 25.6 278.355 26.4 279.955 26.4H290.675V10.4H296.675V33.68C296.675 35.5733 296.128 37.0933 295.035 38.24C293.941 39.4133 292.235 40 289.915 40H276.395Z" fill="url(#paint0_linear_497_1016)"/>
    </g>
    <defs>
        <filter id="filter0_d_497_1016" x="-2" y="0" width="308" height="48" filterUnits="userSpaceOnUse" color-interpolation-filters="sRGB">
            <feFlood flood-opacity="0" result="BackgroundImageFix"/>
            <feColorMatrix in="SourceAlpha" type="matrix" values="0 0 0 0 0 0 0 0 0 0 0 0 0 0 0 0 0 0 127 0" result="hardAlpha"/>
            <feOffset dy="4"/>
            <feGaussianBlur stdDeviation="2"/>
            <feComposite in2="hardAlpha" operator="out"/>
            <feColorMatrix type="matrix" values="0 0 0 0 0 0 0 0 0 0 0 0 0 0 0 0 0 0 0.25 0"/>
            <feBlend mode="normal" in2="BackgroundImageFix" result="effect1_dropShadow_497_1016"/>
            <feBlend mode="normal" in="SourceGraphic" in2="effect1_dropShadow_497_1016" result="shape"/>
        </filter>
        <linearGradient id="paint0_linear_497_1016" x1="211" y1="-6" x2="207.331" y2="49.7255" gradientUnits="userSpaceOnUse">
            <stop stop-color="#03C75A"/>
            <stop offset="1" stop-color="#85C644"/>
        </linearGradient>
    </defs>
</svg>
