<svg width="68" height="20" viewBox="0 0 68 20" fill="none" xmlns="http://www.w3.org/2000/svg">
<rect width="68" height="20" rx="3" fill="#48685E"/>
<path d="M13.2119 6.168H18.1919V13.188H13.2119V6.168ZM17.2199 6.972H14.1839V12.384H17.2199V6.972ZM20.1239 5.088H21.1319V15.936H20.1239V5.088ZM20.8919 9.42H22.9079V10.26H20.8919V9.42ZM31.5229 5.076H32.5189V15.948H31.5229V5.076ZM26.7949 5.916C28.4029 5.916 29.5549 7.392 29.5549 9.696C29.5549 12.012 28.4029 13.488 26.7949 13.488C25.1989 13.488 24.0469 12.012 24.0469 9.696C24.0469 7.392 25.1989 5.916 26.7949 5.916ZM26.7949 6.816C25.7389 6.816 24.9949 7.944 24.9949 9.696C24.9949 11.46 25.7389 12.612 26.7949 12.612C27.8629 12.612 28.5949 11.46 28.5949 9.696C28.5949 7.944 27.8629 6.816 26.7949 6.816ZM42.454 5.076H43.438V15.948H42.454V5.076ZM39.586 9.108H42.742V9.924H39.586V9.108ZM34.942 5.94H35.926V8.76H38.938V5.94H39.922V13.224H34.942V5.94ZM35.926 9.552V12.396H38.938V9.552H35.926ZM53.2411 5.088H54.2371V15.96H53.2411V5.088ZM46.0651 12.42H46.9411C49.0891 12.42 50.4811 12.348 52.0891 12.048L52.1971 12.888C50.5411 13.2 49.1251 13.26 46.9411 13.26H46.0651V12.42ZM46.0651 6.12H51.1891V6.948H47.0491V12.732H46.0651V6.12Z" fill="white"/>
</svg>
