<svg width="30" height="30" viewBox="0 0 30 30" fill="none" xmlns="http://www.w3.org/2000/svg">
<path d="M15.1674 17.1349C15.1395 17.1349 15.0976 17.1349 15.0697 17.1349C15.0279 17.1349 14.9721 17.1349 14.9302 17.1349C11.7627 17.0373 9.39062 14.5675 9.39062 11.5256C9.39062 8.42793 11.9162 5.90234 15.0139 5.90234C18.1116 5.90234 20.6372 8.42793 20.6372 11.5256C20.6232 14.5814 18.2372 17.0373 15.2093 17.1349C15.1814 17.1349 15.1814 17.1349 15.1674 17.1349ZM15 7.98141C13.0465 7.98141 11.4697 9.57211 11.4697 11.5116C11.4697 13.4233 12.9628 14.9721 14.8604 15.0419C14.9023 15.028 15.0418 15.028 15.1814 15.0419C17.0511 14.9442 18.5162 13.4093 18.5302 11.5116C18.5302 9.57211 16.9535 7.98141 15 7.98141Z" fill="#0B4648"/>
<path d="M15.0022 30.0003C11.2487 30.0003 7.66269 28.6049 4.88595 26.0654C4.63478 25.8421 4.52315 25.5073 4.55106 25.1863C4.73246 23.5259 5.76501 21.977 7.48129 20.8328C11.6394 18.07 18.379 18.07 22.5231 20.8328C24.2394 21.991 25.272 23.5259 25.4534 25.1863C25.4952 25.5212 25.3697 25.8421 25.1185 26.0654C22.3417 28.6049 18.7557 30.0003 15.0022 30.0003ZM6.74176 24.9073C9.05804 26.8468 11.9743 27.9073 15.0022 27.9073C18.0301 27.9073 20.9464 26.8468 23.2627 24.9073C23.0115 24.0561 22.3417 23.2328 21.351 22.5631C17.9185 20.2747 12.0999 20.2747 8.63943 22.5631C7.64874 23.2328 6.99292 24.0561 6.74176 24.9073Z" fill="#0B4648"/>
<path d="M15 30C6.72558 30 0 23.2744 0 15C0 6.72558 6.72558 0 15 0C23.2744 0 30 6.72558 30 15C30 23.2744 23.2744 30 15 30ZM15 2.09302C7.88372 2.09302 2.09302 7.88372 2.09302 15C2.09302 22.1163 7.88372 27.907 15 27.907C22.1163 27.907 27.907 22.1163 27.907 15C27.907 7.88372 22.1163 2.09302 15 2.09302Z" fill="#0B4648"/>
</svg>
