<svg width="32" height="32" viewBox="0 0 32 32" fill="none" xmlns="http://www.w3.org/2000/svg">
<circle cx="16" cy="16" r="15.5" fill="white" stroke="#E2E2E2"/>
<path d="M19.6845 7.45446C18.749 6.51651 17.4423 6 16 6C14.5501 6 13.239 6.51339 12.3078 7.44553C11.3665 8.38793 10.9079 9.66873 11.0156 11.0518C11.229 13.7803 13.465 15.9999 16 15.9999C18.5351 15.9999 20.7672 13.7808 20.984 11.0526C21.0932 9.68212 20.6316 8.404 19.6845 7.45446Z" fill="#48685E"/>
<path d="M24.4613 26.0001H7.53869C7.31719 26.0028 7.09783 25.9596 6.89658 25.8736C6.69532 25.7877 6.51723 25.6611 6.37526 25.5032C6.06277 25.1563 5.93682 24.6827 6.03008 24.2037C6.43584 22.1135 7.70215 20.3577 9.69248 19.1251C11.4607 18.0309 13.7005 17.4287 16 17.4287C18.2995 17.4287 20.5393 18.0314 22.3075 19.1251C24.2978 20.3573 25.5642 22.1131 25.9699 24.2032C26.0632 24.6822 25.9372 25.1559 25.6247 25.5028C25.4828 25.6608 25.3047 25.7874 25.1035 25.8734C24.9022 25.9594 24.6828 26.0027 24.4613 26.0001Z" fill="#48685E"/>
</svg>
