<svg width="40" height="40" viewBox="0 0 40 40" fill="none" xmlns="http://www.w3.org/2000/svg">
<path d="M11.6563 9.99935C12.0983 9.99935 12.5222 9.82375 12.8348 9.51119C13.1473 9.19863 13.3229 8.77471 13.3229 8.33268C13.3229 7.89065 13.1473 7.46673 12.8348 7.15417C12.5222 6.84161 12.0983 6.66602 11.6563 6.66602H8.32292C7.88089 6.66602 7.45697 6.84161 7.14441 7.15417C6.83185 7.46673 6.65625 7.89065 6.65625 8.33268V31.666C6.65625 32.108 6.83185 32.532 7.14441 32.8445C7.45697 33.1571 7.88089 33.3327 8.32292 33.3327H11.6563C12.0983 33.3327 12.5222 33.1571 12.8348 32.8445C13.1473 32.532 13.3229 32.108 13.3229 31.666C13.3229 31.224 13.1473 30.8001 12.8348 30.4875C12.5222 30.1749 12.0983 29.9994 11.6563 29.9994H9.98958V9.99935H11.6563Z" fill="#0B4648"/>
<path d="M34.6844 19.0321L29.9844 12.3654C29.7295 12.0061 29.3427 11.7623 28.9086 11.6874C28.4745 11.6124 28.0283 11.7124 27.6677 11.9654C27.4875 12.0918 27.334 12.2525 27.2162 12.4385C27.0984 12.6244 27.0186 12.8318 26.9814 13.0488C26.9443 13.2657 26.9504 13.4878 26.9995 13.7024C27.0487 13.9169 27.1398 14.1196 27.2677 14.2988L30.1344 18.3321H29.9844H16.651C16.209 18.3321 15.7851 18.5077 15.4725 18.8203C15.16 19.1328 14.9844 19.5568 14.9844 19.9988C14.9844 20.4408 15.16 20.8647 15.4725 21.1773C15.7851 21.4898 16.209 21.6654 16.651 21.6654H29.9844L26.9844 25.6654C26.8531 25.8405 26.7575 26.0398 26.7032 26.2518C26.6489 26.4638 26.6368 26.6845 26.6678 26.9011C26.6987 27.1178 26.7721 27.3263 26.8836 27.5146C26.9951 27.7029 27.1426 27.8675 27.3177 27.9988C27.6062 28.2151 27.9571 28.3321 28.3177 28.3321C28.5764 28.3321 28.8316 28.2719 29.0631 28.1562C29.2945 28.0404 29.4958 27.8724 29.651 27.6654L34.651 20.9988C34.8645 20.7169 34.9828 20.3744 34.9888 20.0209C34.9948 19.6674 34.8882 19.3211 34.6844 19.0321Z" fill="#0B4648"/>
</svg>
