<svg width="30" height="30" viewBox="0 0 30 30" fill="none" xmlns="http://www.w3.org/2000/svg">
<path d="M21.5625 0H8.4375C6.89063 0 5.625 1.26563 5.625 2.8125V27.1875C5.625 28.7344 6.89063 30 8.4375 30H21.5625C23.1094 30 24.375 28.7344 24.375 27.1875V2.8125C24.375 1.26563 23.1094 0 21.5625 0ZM15 28.125C13.9631 28.125 13.125 27.2869 13.125 26.25C13.125 25.2131 13.9631 24.375 15 24.375C16.0369 24.375 16.875 25.2131 16.875 26.25C16.875 27.2869 16.0369 28.125 15 28.125ZM22.5 22.5H7.5V3.75H22.5V22.5Z" fill="#0B4648"/>
</svg>
