<svg width="134" height="44" viewBox="0 0 134 44" fill="none" xmlns="http://www.w3.org/2000/svg">
<rect x="1" y="1" width="132" height="42" rx="6" fill="#48685E"/>
<path d="M29.2094 18.9567C29.1526 18.4524 28.9182 18.0618 28.5062 17.7848C28.0943 17.5043 27.5759 17.364 26.9509 17.364C26.5034 17.364 26.1163 17.435 25.7896 17.5771C25.4629 17.7156 25.209 17.9073 25.0279 18.1523C24.8504 18.3938 24.7616 18.669 24.7616 18.978C24.7616 19.2372 24.8219 19.4609 24.9427 19.6491C25.067 19.8374 25.2285 19.9954 25.4274 20.1232C25.6298 20.2475 25.8464 20.3523 26.0773 20.4375C26.3081 20.5192 26.53 20.5866 26.7431 20.6399L27.8085 20.9169C28.1565 21.0021 28.5134 21.1175 28.8791 21.2631C29.2449 21.4087 29.584 21.6005 29.8965 21.8384C30.209 22.0763 30.4611 22.3711 30.6529 22.7227C30.8482 23.0742 30.9459 23.495 30.9459 23.9851C30.9459 24.603 30.7861 25.1516 30.4665 25.631C30.1504 26.1104 29.6906 26.4886 29.0869 26.7656C28.4867 27.0426 27.7605 27.1811 26.9082 27.1811C26.0915 27.1811 25.3848 27.0515 24.7882 26.7923C24.1916 26.533 23.7246 26.1655 23.3873 25.6896C23.0499 25.2102 22.8635 24.642 22.828 23.9851H24.4793C24.5112 24.3793 24.6391 24.7077 24.8628 24.9705C25.0901 25.2298 25.3795 25.4233 25.731 25.5511C26.0861 25.6754 26.475 25.7376 26.8976 25.7376C27.3628 25.7376 27.7765 25.6648 28.1387 25.5192C28.5045 25.37 28.7921 25.1641 29.0016 24.9013C29.2111 24.6349 29.3159 24.3242 29.3159 23.9691C29.3159 23.646 29.2236 23.3814 29.0389 23.1754C28.8578 22.9695 28.611 22.799 28.2985 22.6641C27.9896 22.5291 27.6398 22.4102 27.2491 22.3072L25.9601 21.9556C25.0865 21.7177 24.394 21.3679 23.8827 20.9062C23.3749 20.4446 23.121 19.8338 23.121 19.0739C23.121 18.4453 23.2914 17.8967 23.6323 17.4279C23.9732 16.9592 24.4349 16.5952 25.0173 16.3359C25.5996 16.0732 26.2566 15.9418 26.9881 15.9418C27.7268 15.9418 28.3784 16.0714 28.943 16.3306C29.5112 16.5898 29.9587 16.9467 30.2854 17.4013C30.6121 17.8523 30.7825 18.3707 30.7967 18.9567H29.2094ZM36.0063 27.1651C35.2144 27.1651 34.5326 26.9858 33.9608 26.6271C33.3927 26.2649 32.9559 25.766 32.6505 25.1303C32.3451 24.4947 32.1924 23.7667 32.1924 22.9464C32.1924 22.1154 32.3486 21.3821 32.6611 20.7464C32.9736 20.1072 33.414 19.6083 33.9822 19.2496C34.5503 18.891 35.2197 18.7116 35.9903 18.7116C36.6118 18.7116 37.1657 18.8271 37.6523 19.0579C38.1388 19.2852 38.5312 19.6048 38.8295 20.0167C39.1313 20.4286 39.3106 20.9098 39.3675 21.4602H37.8174C37.7322 21.0767 37.5368 20.7464 37.2314 20.4695C36.9296 20.1925 36.5248 20.054 36.017 20.054C35.5731 20.054 35.1842 20.1712 34.8504 20.4055C34.5202 20.6364 34.2627 20.9666 34.078 21.3963C33.8934 21.8224 33.801 22.3267 33.801 22.9091C33.801 23.5057 33.8916 24.0206 34.0727 24.4538C34.2538 24.8871 34.5095 25.2227 34.8398 25.4606C35.1736 25.6985 35.566 25.8175 36.017 25.8175C36.3188 25.8175 36.5922 25.7624 36.8373 25.6523C37.0858 25.5387 37.2936 25.3771 37.4605 25.1676C37.6309 24.9581 37.7499 24.706 37.8174 24.4112H39.3675C39.3106 24.9403 39.1384 25.4126 38.8508 25.8281C38.5631 26.2436 38.1778 26.5703 37.6949 26.8082C37.2155 27.0462 36.6526 27.1651 36.0063 27.1651ZM40.8457 27V18.8182H42.3851V20.1179H42.4703C42.6195 19.6776 42.8822 19.3313 43.2587 19.0792C43.6386 18.8235 44.0683 18.6957 44.5477 18.6957C44.6472 18.6957 44.7643 18.6992 44.8993 18.7063C45.0378 18.7134 45.1461 18.7223 45.2242 18.733V20.2564C45.1603 20.2386 45.0467 20.2191 44.8833 20.1978C44.72 20.1729 44.5566 20.1605 44.3933 20.1605C44.0168 20.1605 43.6812 20.2404 43.3865 20.4002C43.0953 20.5565 42.8645 20.7749 42.694 21.0554C42.5236 21.3324 42.4384 21.6484 42.4384 22.0036V27H40.8457ZM49.5309 27.1651C48.7639 27.1651 48.0945 26.9893 47.5227 26.6378C46.951 26.2862 46.5071 25.7944 46.1911 25.1623C45.875 24.5302 45.717 23.7915 45.717 22.9464C45.717 22.0977 45.875 21.3555 46.1911 20.7198C46.5071 20.0842 46.951 19.5906 47.5227 19.239C48.0945 18.8874 48.7639 18.7116 49.5309 18.7116C50.298 18.7116 50.9673 18.8874 51.5391 19.239C52.1108 19.5906 52.5547 20.0842 52.8708 20.7198C53.1868 21.3555 53.3448 22.0977 53.3448 22.9464C53.3448 23.7915 53.1868 24.5302 52.8708 25.1623C52.5547 25.7944 52.1108 26.2862 51.5391 26.6378C50.9673 26.9893 50.298 27.1651 49.5309 27.1651ZM49.5362 25.8281C50.0334 25.8281 50.4453 25.6967 50.772 25.4339C51.0987 25.1712 51.3402 24.8214 51.4965 24.3846C51.6563 23.9478 51.7362 23.4666 51.7362 22.9411C51.7362 22.419 51.6563 21.9396 51.4965 21.5028C51.3402 21.0625 51.0987 20.7092 50.772 20.4428C50.4453 20.1765 50.0334 20.0433 49.5362 20.0433C49.0355 20.0433 48.62 20.1765 48.2898 20.4428C47.9631 20.7092 47.7198 21.0625 47.56 21.5028C47.4038 21.9396 47.3257 22.419 47.3257 22.9411C47.3257 23.4666 47.4038 23.9478 47.56 24.3846C47.7198 24.8214 47.9631 25.1712 48.2898 25.4339C48.62 25.6967 49.0355 25.8281 49.5362 25.8281ZM56.4903 16.0909V27H54.8976V16.0909H56.4903ZM60.0007 16.0909V27H58.408V16.0909H60.0007ZM65.2529 17.5078V16.0909H73.6957V17.5078H70.292V27H68.6513V17.5078H65.2529ZM77.4684 27.1651C76.7014 27.1651 76.032 26.9893 75.4602 26.6378C74.8885 26.2862 74.4446 25.7944 74.1286 25.1623C73.8125 24.5302 73.6545 23.7915 73.6545 22.9464C73.6545 22.0977 73.8125 21.3555 74.1286 20.7198C74.4446 20.0842 74.8885 19.5906 75.4602 19.239C76.032 18.8874 76.7014 18.7116 77.4684 18.7116C78.2355 18.7116 78.9048 18.8874 79.4766 19.239C80.0483 19.5906 80.4922 20.0842 80.8083 20.7198C81.1243 21.3555 81.2823 22.0977 81.2823 22.9464C81.2823 23.7915 81.1243 24.5302 80.8083 25.1623C80.4922 25.7944 80.0483 26.2862 79.4766 26.6378C78.9048 26.9893 78.2355 27.1651 77.4684 27.1651ZM77.4737 25.8281C77.9709 25.8281 78.3828 25.6967 78.7095 25.4339C79.0362 25.1712 79.2777 24.8214 79.434 24.3846C79.5938 23.9478 79.6737 23.4666 79.6737 22.9411C79.6737 22.419 79.5938 21.9396 79.434 21.5028C79.2777 21.0625 79.0362 20.7092 78.7095 20.4428C78.3828 20.1765 77.9709 20.0433 77.4737 20.0433C76.973 20.0433 76.5575 20.1765 76.2273 20.4428C75.9006 20.7092 75.6573 21.0625 75.4975 21.5028C75.3413 21.9396 75.2632 22.419 75.2632 22.9411C75.2632 23.4666 75.3413 23.9478 75.4975 24.3846C75.6573 24.8214 75.9006 25.1712 76.2273 25.4339C76.5575 25.6967 76.973 25.8281 77.4737 25.8281ZM86.1697 17.5078V16.0909H94.6125V17.5078H91.2088V27H89.5681V17.5078H86.1697ZM98.3852 27.1651C97.6182 27.1651 96.9488 26.9893 96.377 26.6378C95.8053 26.2862 95.3614 25.7944 95.0454 25.1623C94.7293 24.5302 94.5713 23.7915 94.5713 22.9464C94.5713 22.0977 94.7293 21.3555 95.0454 20.7198C95.3614 20.0842 95.8053 19.5906 96.377 19.239C96.9488 18.8874 97.6182 18.7116 98.3852 18.7116C99.1523 18.7116 99.8216 18.8874 100.393 19.239C100.965 19.5906 101.409 20.0842 101.725 20.7198C102.041 21.3555 102.199 22.0977 102.199 22.9464C102.199 23.7915 102.041 24.5302 101.725 25.1623C101.409 25.7944 100.965 26.2862 100.393 26.6378C99.8216 26.9893 99.1523 27.1651 98.3852 27.1651ZM98.3905 25.8281C98.8877 25.8281 99.2996 25.6967 99.6263 25.4339C99.953 25.1712 100.195 24.8214 100.351 24.3846C100.511 23.9478 100.59 23.4666 100.59 22.9411C100.59 22.419 100.511 21.9396 100.351 21.5028C100.195 21.0625 99.953 20.7092 99.6263 20.4428C99.2996 20.1765 98.8877 20.0433 98.3905 20.0433C97.8898 20.0433 97.4743 20.1765 97.1441 20.4428C96.8174 20.7092 96.5741 21.0625 96.4143 21.5028C96.2581 21.9396 96.18 22.419 96.18 22.9411C96.18 23.4666 96.2581 23.9478 96.4143 24.3846C96.5741 24.8214 96.8174 25.1712 97.1441 25.4339C97.4743 25.6967 97.8898 25.8281 98.3905 25.8281ZM103.752 30.0682V18.8182H105.307V20.1445H105.44C105.533 19.9741 105.666 19.777 105.84 19.5533C106.014 19.3295 106.255 19.1342 106.564 18.9673C106.873 18.7969 107.282 18.7116 107.79 18.7116C108.45 18.7116 109.04 18.8786 109.558 19.2124C110.076 19.5462 110.483 20.0273 110.778 20.6559C111.076 21.2844 111.225 22.0408 111.225 22.9251C111.225 23.8093 111.078 24.5675 110.783 25.1996C110.488 25.8281 110.084 26.3129 109.569 26.6538C109.054 26.9911 108.466 27.1598 107.806 27.1598C107.308 27.1598 106.902 27.0763 106.586 26.9094C106.273 26.7425 106.028 26.5472 105.851 26.3235C105.673 26.0998 105.536 25.9009 105.44 25.7269H105.345V30.0682H103.752ZM105.313 22.9091C105.313 23.4844 105.396 23.9886 105.563 24.4219C105.73 24.8551 105.971 25.1942 106.287 25.4393C106.603 25.6808 106.991 25.8015 107.449 25.8015C107.925 25.8015 108.322 25.6754 108.642 25.4233C108.961 25.1676 109.203 24.8214 109.366 24.3846C109.533 23.9478 109.617 23.456 109.617 22.9091C109.617 22.3693 109.535 21.8846 109.372 21.4549C109.212 21.0252 108.97 20.6861 108.647 20.4375C108.328 20.1889 107.928 20.0646 107.449 20.0646C106.987 20.0646 106.596 20.1836 106.277 20.4215C105.961 20.6594 105.721 20.9915 105.558 21.4176C105.394 21.8437 105.313 22.3409 105.313 22.9091Z" fill="white"/>
<rect x="1" y="1" width="132" height="42" rx="6" stroke="#48685E" stroke-width="2"/>
</svg>
