<svg width="30" height="19" viewBox="0 0 30 19" fill="none" xmlns="http://www.w3.org/2000/svg">
<path d="M29.88 0.92973C29.7279 0.563312 29.4367 0.272133 29.0703 0.119965C28.89 0.0431259 28.6964 0.00236929 28.5004 0H21.0026C20.6049 0 20.2235 0.15799 19.9423 0.439213C19.661 0.720436 19.503 1.10186 19.503 1.49957C19.503 1.89727 19.661 2.27869 19.9423 2.55992C20.2235 2.84114 20.6049 2.99913 21.0026 2.99913H24.8865L16.5039 11.3817L11.5703 6.43313C11.4309 6.29258 11.2651 6.18102 11.0823 6.10489C10.8996 6.02876 10.7036 5.98957 10.5057 5.98957C10.3077 5.98957 10.1117 6.02876 9.92895 6.10489C9.74622 6.18102 9.58036 6.29258 9.44096 6.43313L0.443569 15.4305C0.303017 15.5699 0.191458 15.7358 0.115327 15.9185C0.039196 16.1013 0 16.2973 0 16.4952C0 16.6932 0.039196 16.8892 0.115327 17.0719C0.191458 17.2547 0.303017 17.4205 0.443569 17.5599C0.582973 17.7005 0.748827 17.812 0.931563 17.8882C1.1143 17.9643 1.3103 18.0035 1.50826 18.0035C1.70622 18.0035 1.90222 17.9643 2.08496 17.8882C2.26769 17.812 2.43355 17.7005 2.57295 17.5599L10.5057 9.61221L15.4392 14.5608C15.5786 14.7013 15.7445 14.8129 15.9272 14.889C16.11 14.9651 16.306 15.0043 16.5039 15.0043C16.7019 15.0043 16.8979 14.9651 17.0806 14.889C17.2633 14.8129 17.4292 14.7013 17.5686 14.5608L27.0009 5.11352V8.99739C27.0009 9.3951 27.1589 9.77652 27.4401 10.0577C27.7213 10.339 28.1027 10.497 28.5004 10.497C28.8981 10.497 29.2796 10.339 29.5608 10.0577C29.842 9.77652 30 9.3951 30 8.99739V1.49957C29.9976 1.30361 29.9569 1.11001 29.88 0.92973Z" fill="#0B4648"/>
</svg>
