<svg width="25" height="27" viewBox="0 0 25 27" fill="none" xmlns="http://www.w3.org/2000/svg">
<path d="M13.9688 13.2814L18.448 8.53334C18.6441 8.32493 18.7543 8.04226 18.7543 7.74753C18.7543 7.4528 18.6441 7.17013 18.448 6.96172C18.2518 6.75331 17.9858 6.63623 17.7084 6.63623C17.431 6.63623 17.165 6.75331 16.9688 6.96172L12.5001 11.7208L8.03131 6.96172C7.83516 6.75331 7.56912 6.63623 7.29173 6.63623C7.01433 6.63623 6.74829 6.75331 6.55214 6.96172C6.35599 7.17013 6.2458 7.4528 6.2458 7.74753C6.2458 8.04226 6.35599 8.32493 6.55214 8.53334L11.0313 13.2814L6.55214 18.0294C6.45451 18.1323 6.37701 18.2547 6.32413 18.3896C6.27125 18.5245 6.24402 18.6691 6.24402 18.8152C6.24402 18.9613 6.27125 19.106 6.32413 19.2409C6.37701 19.3757 6.45451 19.4982 6.55214 19.601C6.64898 19.7048 6.76419 19.7871 6.89112 19.8433C7.01806 19.8995 7.15421 19.9284 7.29173 19.9284C7.42924 19.9284 7.56539 19.8995 7.69233 19.8433C7.81926 19.7871 7.93447 19.7048 8.03131 19.601L12.5001 14.8419L16.9688 19.601C17.0656 19.7048 17.1809 19.7871 17.3078 19.8433C17.4347 19.8995 17.5709 19.9284 17.7084 19.9284C17.8459 19.9284 17.9821 19.8995 18.109 19.8433C18.2359 19.7871 18.3511 19.7048 18.448 19.601C18.5456 19.4982 18.6231 19.3757 18.676 19.2409C18.7289 19.106 18.7561 18.9613 18.7561 18.8152C18.7561 18.6691 18.7289 18.5245 18.676 18.3896C18.6231 18.2547 18.5456 18.1323 18.448 18.0294L13.9688 13.2814Z" fill="white"/>
</svg>
