<svg width="13" height="16" viewBox="0 0 13 16" fill="none" xmlns="http://www.w3.org/2000/svg">
<g id="&#240;&#159;&#166;&#134; icon &#34;notification&#34;">
<g id="Group">
<path id="Vector" d="M6.11261 13.4509C4.49291 13.4509 2.87323 13.1937 1.33697 12.6793C0.753051 12.4777 0.30816 12.0675 0.113521 11.5323C-0.0880697 10.997 -0.0185557 10.4062 0.301209 9.87786L1.10062 8.55014C1.26745 8.27208 1.42039 7.71597 1.42039 7.38925V5.38031C1.42039 2.79439 3.52666 0.68811 6.11261 0.68811C8.69853 0.68811 10.8048 2.79439 10.8048 5.38031V7.38925C10.8048 7.70902 10.9577 8.27208 11.1246 8.55709L11.917 9.87786C12.2159 10.3784 12.2716 10.9831 12.07 11.5323C11.8684 12.0815 11.4304 12.4985 10.8813 12.6793C9.35196 13.1937 7.73228 13.4509 6.11261 13.4509ZM6.11261 1.73082C4.10363 1.73082 2.4631 3.3644 2.4631 5.38031V7.38925C2.4631 7.89671 2.25455 8.64746 1.99735 9.0854L1.19794 10.4131C1.04501 10.6703 1.0033 10.9414 1.09367 11.1708C1.17709 11.4072 1.38563 11.5879 1.67064 11.6852C4.57632 12.6584 7.65582 12.6584 10.5615 11.6852C10.8118 11.6018 11.0064 11.4141 11.0968 11.1639C11.1871 10.9136 11.1663 10.6425 11.0273 10.4131L10.2278 9.0854C9.96369 8.63355 9.76209 7.88975 9.76209 7.3823V5.38031C9.76209 3.3644 8.12851 1.73082 6.11261 1.73082Z" fill="#292D32"/>
<path id="Vector_2" d="M7.4053 1.91859C7.35664 1.91859 7.30798 1.91164 7.25932 1.89773C7.05773 1.84212 6.86309 1.80041 6.6754 1.77261C6.08453 1.69614 5.51452 1.73785 4.97926 1.89773C4.78462 1.9603 4.5761 1.89773 4.44402 1.75175C4.31194 1.60577 4.27024 1.39723 4.3467 1.20954C4.63171 0.479647 5.32683 0 6.11929 0C6.91175 0 7.60689 0.472696 7.8919 1.20954C7.96141 1.39723 7.92666 1.60577 7.79458 1.75175C7.69031 1.86298 7.54433 1.91859 7.4053 1.91859Z" fill="#292D32"/>
<path id="Vector_3" d="M6.11225 15.0357C5.42406 15.0357 4.75673 14.7576 4.27015 14.271C3.78355 13.7844 3.50549 13.1171 3.50549 12.4289H4.5482C4.5482 12.839 4.71502 13.2422 5.00698 13.5342C5.29894 13.8261 5.70212 13.993 6.11225 13.993C6.97422 13.993 7.67632 13.2909 7.67632 12.4289H8.71903C8.71903 13.8678 7.55119 15.0357 6.11225 15.0357Z" fill="#292D32"/>
</g>
</g>
</svg>
