<svg width="15" height="15" viewBox="0 0 15 15" fill="none" xmlns="http://www.w3.org/2000/svg">
<g id="&#240;&#159;&#166;&#134; icon &#34;profile circle&#34;">
<g id="Group">
<path id="Vector" d="M7.58407 8.56753C7.57012 8.56753 7.54919 8.56753 7.53523 8.56753C7.5143 8.56753 7.4864 8.56753 7.46547 8.56753C5.88172 8.51869 4.69568 7.2838 4.69568 5.76286C4.69568 4.21402 5.95847 2.95123 7.50733 2.95123C9.05616 2.95123 10.319 4.21402 10.319 5.76286C10.312 7.29078 9.11896 8.51869 7.605 8.56753C7.59105 8.56753 7.59105 8.56753 7.58407 8.56753ZM7.50035 3.99077C6.52361 3.99077 5.73521 4.78612 5.73521 5.75588C5.73521 6.71171 6.48175 7.48613 7.43058 7.52101C7.45151 7.51404 7.52128 7.51404 7.59105 7.52101C8.52593 7.47218 9.25849 6.70474 9.26547 5.75588C9.26547 4.78612 8.47709 3.99077 7.50035 3.99077Z" fill="#292D32"/>
<path id="Vector_2" d="M7.50049 15.0001C5.62376 15.0001 3.83073 14.3025 2.44236 13.0327C2.31678 12.9211 2.26097 12.7536 2.27492 12.5932C2.36562 11.7629 2.8819 10.9885 3.74004 10.4164C5.81911 9.03502 9.18887 9.03502 11.261 10.4164C12.1191 10.9955 12.6354 11.7629 12.7261 12.5932C12.747 12.7606 12.6842 12.9211 12.5586 13.0327C11.1703 14.3025 9.37724 15.0001 7.50049 15.0001ZM3.37027 12.4536C4.52841 13.4234 5.98655 13.9536 7.50049 13.9536C9.01445 13.9536 10.4726 13.4234 11.6307 12.4536C11.5051 12.028 11.1703 11.6164 10.6749 11.2815C8.95863 10.1373 6.04934 10.1373 4.31911 11.2815C3.82376 11.6164 3.49585 12.028 3.37027 12.4536Z" fill="#292D32"/>
<path id="Vector_3" d="M7.5 15C3.36279 15 0 11.6372 0 7.5C0 3.36279 3.36279 0 7.5 0C11.6372 0 15 3.36279 15 7.5C15 11.6372 11.6372 15 7.5 15ZM7.5 1.04651C3.94186 1.04651 1.04651 3.94186 1.04651 7.5C1.04651 11.0581 3.94186 13.9535 7.5 13.9535C11.0581 13.9535 13.9535 11.0581 13.9535 7.5C13.9535 3.94186 11.0581 1.04651 7.5 1.04651Z" fill="#292D32"/>
</g>
</g>
</svg>
