<svg width="68" height="20" viewBox="0 0 68 20" fill="none" xmlns="http://www.w3.org/2000/svg">
<rect width="68" height="20" rx="3" fill="#48685E"/>
<path d="M14.9999 7.86H15.7679V8.424C15.7679 10.572 14.8679 12.744 13.2839 13.692L12.6839 12.936C14.1599 12.072 14.9999 10.188 14.9999 8.424V7.86ZM15.1799 7.86H15.9479V8.424C15.9479 10.14 16.8239 11.916 18.2759 12.708L17.7119 13.452C16.1159 12.564 15.1799 10.512 15.1799 8.424V7.86ZM12.9599 7.104H17.9879V7.92H12.9599V7.104ZM14.9999 5.472H15.9599V7.716H14.9999V5.472ZM21.0839 5.088H22.0319V15.936H21.0839V5.088ZM19.3679 9.456H21.4559V10.296H19.3679V9.456ZM18.7199 5.316H19.6559V15.396H18.7199V5.316ZM24.2749 10.236H25.1509C27.4909 10.236 28.7749 10.188 30.2989 9.936L30.4069 10.728C28.8349 11.004 27.5149 11.04 25.1509 11.04H24.2749V10.236ZM24.2749 5.88H29.4349V6.684H25.2589V10.644H24.2749V5.88ZM24.9349 8.028H29.1349V8.82H24.9349V8.028ZM31.5349 5.1H32.5429V11.808H31.5349V5.1ZM28.9549 11.964C31.2109 11.964 32.5909 12.684 32.5909 13.932C32.5909 15.192 31.2109 15.912 28.9549 15.912C26.6869 15.912 25.3069 15.192 25.3069 13.932C25.3069 12.684 26.6869 11.964 28.9549 11.964ZM28.9549 12.756C27.2989 12.756 26.3029 13.188 26.3029 13.932C26.3029 14.7 27.2989 15.132 28.9549 15.132C30.5989 15.132 31.5949 14.7 31.5949 13.932C31.5949 13.188 30.5989 12.756 28.9549 12.756ZM41.854 5.088H42.85V15.936H41.854V5.088ZM42.61 9.54H44.626V10.38H42.61V9.54ZM34.45 6.816H40.846V7.632H34.45V6.816ZM37.69 8.532C39.226 8.532 40.33 9.564 40.33 11.028C40.33 12.492 39.226 13.524 37.69 13.524C36.166 13.524 35.05 12.492 35.05 11.028C35.05 9.564 36.166 8.532 37.69 8.532ZM37.69 9.36C36.706 9.36 35.998 10.044 35.998 11.028C35.998 12 36.706 12.696 37.69 12.696C38.674 12.696 39.382 12 39.382 11.028C39.382 10.044 38.674 9.36 37.69 9.36ZM37.174 5.22H38.17V7.188H37.174V5.22ZM53.2651 5.088H54.2611V15.936H53.2651V5.088ZM50.0851 6.252H51.0691C51.0691 9.396 49.6531 12.144 46.0291 13.92L45.5011 13.116C48.6331 11.604 50.0851 9.3 50.0851 6.42V6.252ZM45.9931 6.252H50.5171V7.068H45.9931V6.252Z" fill="white"/>
</svg>
