<svg width="68" height="20" viewBox="0 0 68 20" fill="none" xmlns="http://www.w3.org/2000/svg">
<rect width="68" height="20" rx="3" fill="#48685E"/>
<path d="M20.7359 5.076H21.7199V15.948H20.7359V5.076ZM17.8679 9.108H21.0239V9.924H17.8679V9.108ZM13.2239 5.94H14.2079V8.76H17.2199V5.94H18.2039V13.224H13.2239V5.94ZM14.2079 9.552V12.396H17.2199V9.552H14.2079ZM31.5229 5.088H32.5189V15.96H31.5229V5.088ZM24.3469 12.42H25.2229C27.3709 12.42 28.7629 12.348 30.3709 12.048L30.4789 12.888C28.8229 13.2 27.4069 13.26 25.2229 13.26H24.3469V12.42ZM24.3469 6.12H29.4709V6.948H25.3309V12.732H24.3469V6.12ZM38.914 11.988H39.898V15.948H38.914V11.988ZM34.51 11.64H44.314V12.468H34.51V11.64ZM38.902 6.948H39.778V7.224C39.778 9.096 37.75 10.476 35.47 10.824L35.122 10.032C37.078 9.768 38.902 8.58 38.902 7.224V6.948ZM39.034 6.948H39.898V7.224C39.898 8.568 41.734 9.768 43.678 10.032L43.318 10.824C41.05 10.488 39.034 9.072 39.034 7.224V6.948ZM35.458 6.42H43.366V7.236H35.458V6.42ZM38.914 5.088H39.898V6.708H38.914V5.088ZM52.7011 5.076H53.7091V15.936H52.7011V5.076ZM53.4331 9.48H55.4371V10.308H53.4331V9.48ZM49.9291 6.252H50.9011C50.9011 9.336 49.4851 12.12 45.9811 13.884L45.4291 13.116C48.4291 11.592 49.9291 9.276 49.9291 6.408V6.252ZM45.9331 6.252H50.4451V7.068H45.9331V6.252Z" fill="white"/>
</svg>
