<svg width="360" height="130" viewBox="0 0 360 130" fill="none" xmlns="http://www.w3.org/2000/svg">
<rect width="360" height="130" fill="#868585"/>
<path d="M74.5315 58.76H77.5555V59.576H74.5315V58.76ZM71.9155 56.024H72.7315V57.956C72.7315 60.392 71.4475 62.72 69.7315 63.644L69.0955 62.852C70.6915 62.06 71.9155 59.972 71.9155 57.956V56.024ZM72.1075 56.024H72.9115V57.956C72.9115 59.936 74.1355 61.904 75.7075 62.648L75.1195 63.452C73.3675 62.564 72.1075 60.332 72.1075 57.956V56.024ZM77.0635 55.076H78.0475V65.948H77.0635V55.076ZM84.5506 60.188H85.5346V61.856H84.5506V60.188ZM85.0546 55.22C87.4426 55.22 88.8706 55.88 88.8706 57.092C88.8706 58.304 87.4426 58.976 85.0546 58.976C82.6546 58.976 81.2386 58.304 81.2386 57.092C81.2386 55.88 82.6546 55.22 85.0546 55.22ZM85.0546 55.976C83.2786 55.976 82.2586 56.384 82.2586 57.092C82.2586 57.812 83.2786 58.22 85.0546 58.22C86.8186 58.22 87.8386 57.812 87.8386 57.092C87.8386 56.384 86.8186 55.976 85.0546 55.976ZM80.1466 59.672H89.9506V60.488H80.1466V59.672ZM81.3346 61.484H88.7026V63.932H82.3426V65.252H81.3586V63.212H87.7186V62.252H81.3346V61.484ZM81.3586 65.036H89.0266V65.816H81.3586V65.036ZM101.989 55.088H102.985V61.58H101.989V55.088ZM102.709 57.884H104.593V58.724H102.709V57.884ZM98.9887 55.88H100.057C100.057 58.664 98.1247 60.692 94.9927 61.616L94.5727 60.812C97.3327 59.996 98.9887 58.364 98.9887 56.336V55.88ZM95.0527 55.88H99.5527V56.708H95.0527V55.88ZM99.5887 61.712C101.737 61.712 103.105 62.504 103.105 63.812C103.105 65.12 101.737 65.912 99.5887 65.912C97.4287 65.912 96.0487 65.12 96.0487 63.812C96.0487 62.504 97.4287 61.712 99.5887 61.712ZM99.5887 62.504C98.0287 62.504 97.0327 62.996 97.0327 63.812C97.0327 64.628 98.0287 65.12 99.5887 65.12C101.149 65.12 102.145 64.628 102.145 63.812C102.145 62.996 101.149 62.504 99.5887 62.504ZM113.028 55.088H114.024V61.22H113.028V55.088ZM113.76 57.572H115.632V58.4H113.76V57.572ZM107.184 61.808H114.024V65.792H107.184V61.808ZM113.052 62.612H108.168V64.976H113.052V62.612ZM106.128 55.628H107.124V59.972H106.128V55.628ZM106.128 59.564H106.98C108.54 59.564 110.16 59.456 111.936 59.096L112.056 59.912C110.22 60.296 108.6 60.404 106.98 60.404H106.128V59.564ZM117.875 55.796H124.655V56.6H117.875V55.796ZM116.651 60.452H126.455V61.268H116.651V60.452ZM121.031 60.992H122.027V65.948H121.031V60.992ZM124.187 55.796H125.159V56.732C125.159 57.86 125.159 59.132 124.751 60.968L123.767 60.836C124.187 59.084 124.187 57.824 124.187 56.732V55.796ZM138.481 55.088H139.477V61.58H138.481V55.088ZM139.201 57.884H141.085V58.724H139.201V57.884ZM135.481 55.88H136.549C136.549 58.664 134.617 60.692 131.485 61.616L131.065 60.812C133.825 59.996 135.481 58.364 135.481 56.336V55.88ZM131.545 55.88H136.045V56.708H131.545V55.88ZM136.081 61.712C138.229 61.712 139.597 62.504 139.597 63.812C139.597 65.12 138.229 65.912 136.081 65.912C133.921 65.912 132.541 65.12 132.541 63.812C132.541 62.504 133.921 61.712 136.081 61.712ZM136.081 62.504C134.521 62.504 133.525 62.996 133.525 63.812C133.525 64.628 134.521 65.12 136.081 65.12C137.641 65.12 138.637 64.628 138.637 63.812C138.637 62.996 137.641 62.504 136.081 62.504ZM149.52 55.088H150.516V61.22H149.52V55.088ZM150.252 57.572H152.124V58.4H150.252V57.572ZM143.676 61.808H150.516V65.792H143.676V61.808ZM149.544 62.612H144.66V64.976H149.544V62.612ZM142.62 55.628H143.616V59.972H142.62V55.628ZM142.62 59.564H143.472C145.032 59.564 146.652 59.456 148.428 59.096L148.548 59.912C146.712 60.296 145.092 60.404 143.472 60.404H142.62V59.564ZM161.387 55.088H162.347V65.936H161.387V55.088ZM159.551 59.432H161.639V60.26H159.551V59.432ZM158.927 55.328H159.863V65.384H158.927V55.328ZM153.527 62.432H154.235C155.819 62.432 156.899 62.372 158.159 62.108L158.255 62.936C156.959 63.212 155.867 63.26 154.235 63.26H153.527V62.432ZM153.527 56.408H157.559V57.224H154.511V62.804H153.527V56.408ZM164.182 63.776H174.01V64.604H164.182V63.776ZM168.574 61.448H169.57V64.124H168.574V61.448ZM165.37 55.892H172.798V59.18H166.39V61.352H165.406V58.376H171.814V56.696H165.37V55.892ZM165.406 60.932H173.05V61.748H165.406V60.932ZM178.303 56.1534C178.661 56.1562 179.019 56.2244 179.377 56.358C179.735 56.4915 180.061 56.7131 180.357 57.0227C180.652 57.3295 180.89 57.7486 181.069 58.2798C181.248 58.8111 181.337 59.4773 181.337 60.2784C181.337 61.054 181.263 61.7429 181.115 62.3452C180.971 62.9446 180.76 63.4503 180.485 63.8622C180.212 64.2741 179.88 64.5866 179.488 64.7997C179.098 65.0128 178.658 65.1193 178.167 65.1193C177.678 65.1193 177.242 65.0227 176.858 64.8295C176.478 64.6335 176.165 64.3622 175.921 64.0156C175.679 63.6662 175.525 63.2614 175.456 62.8011H176.496C176.59 63.2017 176.776 63.5327 177.054 63.794C177.336 64.0526 177.706 64.1818 178.167 64.1818C178.84 64.1818 179.371 63.8878 179.76 63.2997C180.152 62.7116 180.348 61.8807 180.348 60.8068H180.28C180.121 61.0455 179.932 61.2514 179.713 61.4247C179.495 61.598 179.252 61.7315 178.985 61.8253C178.718 61.919 178.434 61.9659 178.132 61.9659C177.632 61.9659 177.174 61.8423 176.756 61.5952C176.341 61.3452 176.009 61.0028 175.759 60.5682C175.512 60.1307 175.388 59.6307 175.388 59.0682C175.388 58.5341 175.507 58.0455 175.746 57.6023C175.988 57.1562 176.326 56.8011 176.76 56.5369C177.198 56.2727 177.712 56.1449 178.303 56.1534ZM178.303 57.0909C177.945 57.0909 177.623 57.1804 177.336 57.3594C177.051 57.5355 176.826 57.7741 176.658 58.0753C176.493 58.3736 176.411 58.7045 176.411 59.0682C176.411 59.4318 176.49 59.7628 176.65 60.0611C176.811 60.3565 177.032 60.5923 177.31 60.7685C177.591 60.9418 177.911 61.0284 178.269 61.0284C178.539 61.0284 178.79 60.9759 179.023 60.8707C179.256 60.7628 179.459 60.6165 179.632 60.4318C179.809 60.2443 179.946 60.0327 180.046 59.7969C180.145 59.5582 180.195 59.3097 180.195 59.0511C180.195 58.7102 180.113 58.3906 179.948 58.0923C179.786 57.794 179.561 57.5526 179.275 57.3679C178.99 57.1832 178.667 57.0909 178.303 57.0909ZM182.808 63.2102V62.3409L186.643 56.2727H187.274V57.6193H186.848L183.95 62.2045V62.2727H189.115V63.2102H182.808ZM186.916 65V62.946V62.5412V56.2727H187.922V65H186.916ZM198.293 55.088H199.301V60.62H198.293V55.088ZM194.981 55.616H196.073C196.073 58.388 194.141 60.104 190.949 60.848L190.589 60.032C193.445 59.408 194.981 58.004 194.981 56.12V55.616ZM191.129 55.616H195.653V56.432H191.129V55.616ZM192.281 61.148H199.301V63.788H193.289V65.432H192.305V63.044H198.305V61.94H192.281V61.148ZM192.305 65.036H199.661V65.828H192.305V65.036ZM205.126 65V64.233L208.007 61.0795C208.345 60.7102 208.623 60.3892 208.842 60.1165C209.061 59.8409 209.223 59.5824 209.328 59.3409C209.436 59.0966 209.49 58.8409 209.49 58.5739C209.49 58.267 209.416 58.0014 209.268 57.777C209.123 57.5526 208.924 57.3793 208.672 57.2571C208.419 57.1349 208.135 57.0739 207.819 57.0739C207.484 57.0739 207.191 57.1435 206.941 57.2827C206.694 57.419 206.502 57.6108 206.366 57.858C206.233 58.1051 206.166 58.3949 206.166 58.7273H205.16C205.16 58.2159 205.278 57.767 205.514 57.3807C205.75 56.9943 206.071 56.6932 206.477 56.4773C206.886 56.2614 207.345 56.1534 207.853 56.1534C208.365 56.1534 208.818 56.2614 209.213 56.4773C209.608 56.6932 209.917 56.9844 210.142 57.3509C210.366 57.7173 210.478 58.125 210.478 58.5739C210.478 58.8949 210.42 59.2088 210.304 59.5156C210.19 59.8196 209.991 60.1591 209.707 60.5341C209.426 60.9062 209.035 61.3608 208.535 61.8977L206.575 63.9943V64.0625H210.632V65H205.126ZM215.238 65.1193C214.596 65.1193 214.049 64.9446 213.598 64.5952C213.146 64.2429 212.801 63.733 212.562 63.0653C212.324 62.3949 212.204 61.5852 212.204 60.6364C212.204 59.6932 212.324 58.8878 212.562 58.2202C212.804 57.5497 213.15 57.0384 213.602 56.6861C214.056 56.331 214.602 56.1534 215.238 56.1534C215.875 56.1534 216.419 56.331 216.87 56.6861C217.325 57.0384 217.672 57.5497 217.91 58.2202C218.152 58.8878 218.272 59.6932 218.272 60.6364C218.272 61.5852 218.153 62.3949 217.914 63.0653C217.676 63.733 217.331 64.2429 216.879 64.5952C216.427 64.9446 215.88 65.1193 215.238 65.1193ZM215.238 64.1818C215.875 64.1818 216.369 63.875 216.721 63.2614C217.074 62.6477 217.25 61.7727 217.25 60.6364C217.25 59.8807 217.169 59.2372 217.007 58.706C216.848 58.1747 216.618 57.7699 216.316 57.4915C216.018 57.2131 215.659 57.0739 215.238 57.0739C214.608 57.0739 214.115 57.3849 213.76 58.0071C213.404 58.6264 213.227 59.5028 213.227 60.6364C213.227 61.392 213.306 62.0341 213.466 62.5625C213.625 63.0909 213.853 63.4929 214.152 63.7685C214.453 64.044 214.815 64.1818 215.238 64.1818ZM221.104 63.8068L221.036 64.267C220.988 64.5909 220.914 64.9375 220.814 65.3068C220.718 65.6761 220.617 66.0241 220.512 66.3509C220.407 66.6776 220.32 66.9375 220.252 67.1307H219.485C219.522 66.9489 219.57 66.7088 219.63 66.4105C219.689 66.1122 219.749 65.7784 219.809 65.4091C219.871 65.0426 219.922 64.6676 219.962 64.2841L220.013 63.8068H221.104ZM228.686 55.64H229.502V56.708C229.502 58.808 228.326 60.512 226.502 61.208L225.974 60.416C227.618 59.816 228.686 58.364 228.686 56.708V55.64ZM228.866 55.64H229.67V56.696C229.67 58.172 230.75 59.564 232.31 60.116L231.794 60.908C230.042 60.248 228.866 58.604 228.866 56.696V55.64ZM233.438 55.088H234.434V61.436H233.438V55.088ZM234.158 57.776H236.042V58.616H234.158V57.776ZM227.618 61.94H234.434V65.792H227.618V61.94ZM233.462 62.732H228.59V64.988H233.462V62.732ZM241.453 61.22H242.449V63.92H241.453V61.22ZM241.957 55.796C244.249 55.796 245.893 56.912 245.893 58.64C245.893 60.368 244.249 61.484 241.957 61.484C239.665 61.484 238.009 60.368 238.009 58.64C238.009 56.912 239.665 55.796 241.957 55.796ZM241.957 56.588C240.229 56.588 238.969 57.404 238.969 58.64C238.969 59.876 240.229 60.692 241.957 60.692C243.673 60.692 244.933 59.876 244.933 58.64C244.933 57.404 243.673 56.588 241.957 56.588ZM237.061 63.728H246.889V64.556H237.061V63.728ZM255.984 55.088H256.98V60.74H255.984V55.088ZM249.972 61.304H256.992V63.884H250.968V65.408H249.996V63.14H256.008V62.096H249.972V61.304ZM249.996 65.036H257.352V65.816H249.996V65.036ZM248.664 55.52H249.636V57.092H252.756V55.52H253.74V60.272H248.664V55.52ZM249.636 57.86V59.468H252.756V57.86H249.636ZM267.023 55.088H268.031V61.748H267.023V55.088ZM259.787 59.888H260.687C263.027 59.888 264.383 59.828 265.943 59.504L266.063 60.332C264.455 60.632 263.075 60.704 260.687 60.704H259.787V59.888ZM259.787 55.94H264.887V56.756H260.783V60.332H259.787V55.94ZM264.419 61.772C266.675 61.772 268.067 62.54 268.067 63.848C268.067 65.168 266.675 65.924 264.419 65.924C262.175 65.924 260.783 65.168 260.783 63.848C260.783 62.54 262.175 61.772 264.419 61.772ZM264.419 62.564C262.775 62.564 261.779 63.044 261.779 63.848C261.779 64.652 262.775 65.144 264.419 65.144C266.075 65.144 267.071 64.652 267.071 63.848C267.071 63.044 266.075 62.564 264.419 62.564ZM276.754 65.1193C276.396 65.1136 276.038 65.0455 275.68 64.9148C275.322 64.7841 274.996 64.5639 274.7 64.2543C274.405 63.9418 274.168 63.5199 273.989 62.9886C273.81 62.4545 273.72 61.7841 273.72 60.9773C273.72 60.2045 273.793 59.5199 273.938 58.9233C274.082 58.3239 274.293 57.8196 274.568 57.4105C274.844 56.9986 275.176 56.6861 275.565 56.473C275.957 56.2599 276.399 56.1534 276.891 56.1534C277.379 56.1534 277.814 56.2514 278.195 56.4474C278.578 56.6406 278.891 56.9105 279.132 57.2571C279.374 57.6037 279.53 58.0028 279.601 58.4545H278.561C278.464 58.0625 278.277 57.7372 277.999 57.4787C277.72 57.2202 277.351 57.0909 276.891 57.0909C276.214 57.0909 275.682 57.3849 275.293 57.973C274.906 58.5611 274.712 59.3864 274.709 60.4489H274.777C274.936 60.2074 275.125 60.0014 275.344 59.831C275.565 59.6577 275.81 59.5241 276.077 59.4304C276.344 59.3366 276.626 59.2898 276.925 59.2898C277.425 59.2898 277.882 59.4148 278.297 59.6648C278.712 59.9119 279.044 60.2543 279.294 60.6918C279.544 61.1264 279.669 61.625 279.669 62.1875C279.669 62.7273 279.548 63.2216 279.307 63.6705C279.065 64.1165 278.726 64.4716 278.288 64.7358C277.854 64.9972 277.342 65.125 276.754 65.1193ZM276.754 64.1818C277.112 64.1818 277.433 64.0923 277.717 63.9134C278.004 63.7344 278.23 63.4943 278.395 63.1932C278.563 62.892 278.646 62.5568 278.646 62.1875C278.646 61.8267 278.565 61.4986 278.403 61.2031C278.244 60.9048 278.024 60.6676 277.743 60.4915C277.464 60.3153 277.146 60.2273 276.788 60.2273C276.518 60.2273 276.267 60.2812 276.034 60.3892C275.801 60.4943 275.597 60.6392 275.42 60.8239C275.247 61.0085 275.111 61.2202 275.011 61.4588C274.912 61.6946 274.862 61.9432 274.862 62.2045C274.862 62.5511 274.943 62.875 275.105 63.1761C275.27 63.4773 275.494 63.7202 275.778 63.9048C276.065 64.0895 276.391 64.1818 276.754 64.1818ZM281.029 60.596H290.833V61.4H281.029V60.596ZM285.445 55.052H286.429V56.564H285.445V55.052ZM285.397 56.66H286.273V56.84C286.273 58.616 284.281 59.648 281.905 59.888L281.605 59.12C283.705 58.94 285.397 58.076 285.397 56.84V56.66ZM285.601 56.66H286.477V56.84C286.477 58.076 288.169 58.94 290.269 59.12L289.969 59.888C287.593 59.648 285.601 58.616 285.601 56.84V56.66ZM282.037 56.144H289.837V56.936H282.037V56.144ZM285.925 62.324C288.265 62.324 289.645 62.96 289.645 64.124C289.645 65.288 288.265 65.912 285.925 65.912C283.585 65.912 282.205 65.288 282.205 64.124C282.205 62.96 283.585 62.324 285.925 62.324ZM285.925 63.08C284.209 63.08 283.213 63.44 283.213 64.124C283.213 64.784 284.209 65.156 285.925 65.156C287.641 65.156 288.637 64.784 288.637 64.124C288.637 63.44 287.641 63.08 285.925 63.08ZM103.43 76.024H104.246V77.968C104.246 80.368 102.95 82.708 101.234 83.62L100.622 82.828C102.194 82.036 103.43 79.948 103.43 77.968V76.024ZM103.61 76.024H104.414V77.968C104.414 79.876 105.626 81.856 107.162 82.624L106.55 83.416C104.87 82.516 103.61 80.296 103.61 77.968V76.024ZM108.11 75.088H109.118V85.936H108.11V75.088ZM108.878 79.48H110.894V80.32H108.878V79.48ZM117.265 77.668H120.181V78.496H117.265V77.668ZM114.769 75.58C116.389 75.58 117.565 76.612 117.565 78.1C117.565 79.588 116.389 80.608 114.769 80.608C113.149 80.608 111.973 79.588 111.973 78.1C111.973 76.612 113.149 75.58 114.769 75.58ZM114.769 76.42C113.701 76.42 112.933 77.104 112.933 78.1C112.933 79.084 113.701 79.78 114.769 79.78C115.837 79.78 116.605 79.084 116.605 78.1C116.605 77.104 115.837 76.42 114.769 76.42ZM119.737 75.088H120.733V80.908H119.737V75.088ZM113.785 81.448H114.781V82.816H119.749V81.448H120.733V85.792H113.785V81.448ZM114.781 83.608V84.988H119.749V83.608H114.781ZM125.532 76.636H126.324V78.4C126.324 80.656 124.944 82.984 123.252 83.848L122.676 83.056C124.224 82.3 125.532 80.236 125.532 78.4V76.636ZM125.712 76.636H126.504V78.4C126.504 80.116 127.728 82.048 129.3 82.792L128.736 83.584C127.02 82.732 125.712 80.548 125.712 78.4V76.636ZM123.06 76.192H128.904V77.032H123.06V76.192ZM130.188 75.088H131.196V85.936H130.188V75.088ZM130.956 79.468H132.972V80.308H130.956V79.468ZM133.895 80.248H143.699V81.076H133.895V80.248ZM135.131 78.412H142.559V79.216H135.131V78.412ZM135.131 75.52H142.475V76.336H136.115V78.796H135.131V75.52ZM138.779 82.012C141.095 82.012 142.499 82.72 142.499 83.968C142.499 85.216 141.095 85.912 138.779 85.912C136.463 85.912 135.059 85.216 135.059 83.968C135.059 82.72 136.463 82.012 138.779 82.012ZM138.779 82.78C137.087 82.78 136.067 83.212 136.067 83.968C136.067 84.712 137.087 85.132 138.779 85.132C140.483 85.132 141.491 84.712 141.491 83.968C141.491 83.212 140.483 82.78 138.779 82.78ZM144.922 81.052H154.762V81.868H144.922V81.052ZM146.17 75.364H153.49V77.992H147.178V79.456H146.194V77.26H152.518V76.144H146.17V75.364ZM146.194 79.132H153.73V79.912H146.194V79.132ZM149.338 79.54H150.334V81.46H149.338V79.54ZM146.014 82.696H153.562V85.84H152.566V83.512H146.014V82.696ZM161.085 78.148H164.205V78.964H161.085V78.148ZM163.893 75.1H164.889V83.128H163.893V75.1ZM157.917 84.88H165.153V85.696H157.917V84.88ZM157.917 82.348H158.913V85.3H157.917V82.348ZM156.501 75.808H157.485V77.728H160.425V75.808H161.397V81.28H156.501V75.808ZM157.485 78.508V80.464H160.425V78.508H157.485ZM167.492 76.672H176.3V77.488H167.492V76.672ZM167.012 83.848H176.84V84.676H167.012V83.848ZM171.416 82.132H172.4V84.172H171.416V82.132ZM171.896 78.22C174.092 78.22 175.448 78.976 175.448 80.284C175.448 81.592 174.092 82.348 171.896 82.348C169.712 82.348 168.356 81.592 168.356 80.284C168.356 78.976 169.712 78.22 171.896 78.22ZM171.896 79C170.324 79 169.352 79.48 169.352 80.284C169.352 81.088 170.324 81.556 171.896 81.556C173.48 81.556 174.44 81.088 174.44 80.284C174.44 79.48 173.48 79 171.896 79ZM171.416 75.268H172.4V77.176H171.416V75.268ZM182.48 83.8835C182.269 83.8835 182.089 83.8082 181.938 83.6577C181.788 83.5071 181.713 83.3267 181.713 83.1165C181.713 82.9062 181.788 82.7259 181.938 82.5753C182.089 82.4247 182.269 82.3494 182.48 82.3494C182.69 82.3494 182.87 82.4247 183.021 82.5753C183.171 82.7259 183.247 82.9062 183.247 83.1165C183.247 83.2557 183.211 83.3835 183.14 83.5C183.072 83.6165 182.98 83.7102 182.863 83.7812C182.749 83.8494 182.622 83.8835 182.48 83.8835ZM182.48 79.4688C182.269 79.4688 182.089 79.3935 181.938 79.2429C181.788 79.0923 181.713 78.9119 181.713 78.7017C181.713 78.4915 181.788 78.3111 181.938 78.1605C182.089 78.0099 182.269 77.9347 182.48 77.9347C182.69 77.9347 182.87 78.0099 183.021 78.1605C183.171 78.3111 183.247 78.4915 183.247 78.7017C183.247 78.8409 183.211 78.9688 183.14 79.0852C183.072 79.2017 182.98 79.2955 182.863 79.3665C182.749 79.4347 182.622 79.4688 182.48 79.4688ZM191.477 76.2727V85H190.421V77.3807H190.369L188.239 78.7955V77.7216L190.421 76.2727H191.477ZM197.056 76.2727V85H195.999V77.3807H195.948L193.817 78.7955V77.7216L195.999 76.2727H197.056ZM202.634 76.2727V85H201.577V77.3807H201.526L199.395 78.7955V77.7216L201.577 76.2727H202.634ZM208.911 80.1676V81.1051H205.093V80.1676H208.911ZM210.253 85V84.233L213.134 81.0795C213.472 80.7102 213.75 80.3892 213.969 80.1165C214.188 79.8409 214.35 79.5824 214.455 79.3409C214.563 79.0966 214.617 78.8409 214.617 78.5739C214.617 78.267 214.543 78.0014 214.395 77.777C214.25 77.5526 214.051 77.3793 213.798 77.2571C213.546 77.1349 213.262 77.0739 212.946 77.0739C212.611 77.0739 212.318 77.1435 212.068 77.2827C211.821 77.419 211.629 77.6108 211.493 77.858C211.36 78.1051 211.293 78.3949 211.293 78.7273H210.287C210.287 78.2159 210.405 77.767 210.641 77.3807C210.877 76.9943 211.198 76.6932 211.604 76.4773C212.013 76.2614 212.472 76.1534 212.98 76.1534C213.492 76.1534 213.945 76.2614 214.34 76.4773C214.735 76.6932 215.044 76.9844 215.269 77.3509C215.493 77.7173 215.605 78.125 215.605 78.5739C215.605 78.8949 215.547 79.2088 215.431 79.5156C215.317 79.8196 215.118 80.1591 214.834 80.5341C214.553 80.9062 214.162 81.3608 213.662 81.8977L211.702 83.9943V84.0625H215.759V85H210.253ZM217.519 85V84.233L220.399 81.0795C220.737 80.7102 221.016 80.3892 221.235 80.1165C221.453 79.8409 221.615 79.5824 221.72 79.3409C221.828 79.0966 221.882 78.8409 221.882 78.5739C221.882 78.267 221.808 78.0014 221.661 77.777C221.516 77.5526 221.317 77.3793 221.064 77.2571C220.811 77.1349 220.527 77.0739 220.212 77.0739C219.877 77.0739 219.584 77.1435 219.334 77.2827C219.087 77.419 218.895 77.6108 218.759 77.858C218.625 78.1051 218.558 78.3949 218.558 78.7273H217.553C217.553 78.2159 217.671 77.767 217.906 77.3807C218.142 76.9943 218.463 76.6932 218.869 76.4773C219.279 76.2614 219.737 76.1534 220.246 76.1534C220.757 76.1534 221.21 76.2614 221.605 76.4773C222 76.6932 222.31 76.9844 222.534 77.3509C222.759 77.7173 222.871 78.125 222.871 78.5739C222.871 78.8949 222.813 79.2088 222.696 79.5156C222.583 79.8196 222.384 80.1591 222.1 80.5341C221.818 80.9062 221.428 81.3608 220.928 81.8977L218.968 83.9943V84.0625H223.024V85H217.519ZM228.551 80.1676V81.1051H224.733V80.1676H228.551ZM233.112 85.1193C232.55 85.1193 232.048 85.0227 231.608 84.8295C231.17 84.6364 230.822 84.3679 230.564 84.0241C230.308 83.6776 230.169 83.2756 230.146 82.8182H231.22C231.243 83.0994 231.339 83.3423 231.51 83.5469C231.68 83.7486 231.903 83.9048 232.179 84.0156C232.454 84.1264 232.76 84.1818 233.095 84.1818C233.47 84.1818 233.802 84.1165 234.092 83.9858C234.382 83.8551 234.609 83.6733 234.774 83.4403C234.939 83.2074 235.021 82.9375 235.021 82.6307C235.021 82.3097 234.942 82.027 234.782 81.7827C234.623 81.5355 234.39 81.3423 234.084 81.2031C233.777 81.0639 233.402 80.9943 232.959 80.9943H232.26V80.0568H232.959C233.305 80.0568 233.609 79.9943 233.871 79.8693C234.135 79.7443 234.341 79.5682 234.488 79.3409C234.639 79.1136 234.714 78.8466 234.714 78.5398C234.714 78.2443 234.649 77.9872 234.518 77.7685C234.388 77.5497 234.203 77.3793 233.964 77.2571C233.729 77.1349 233.45 77.0739 233.129 77.0739C232.828 77.0739 232.544 77.1293 232.277 77.2401C232.013 77.348 231.797 77.5057 231.629 77.7131C231.461 77.9176 231.371 78.1648 231.356 78.4545H230.334C230.351 77.9972 230.488 77.5966 230.747 77.2528C231.006 76.9062 231.344 76.6364 231.761 76.4432C232.182 76.25 232.643 76.1534 233.146 76.1534C233.686 76.1534 234.149 76.2628 234.535 76.4815C234.922 76.6974 235.219 76.983 235.426 77.3381C235.633 77.6932 235.737 78.0767 235.737 78.4886C235.737 78.9801 235.608 79.3991 235.349 79.7457C235.094 80.0923 234.746 80.3324 234.305 80.4659V80.5341C234.856 80.625 235.287 80.8594 235.596 81.2372C235.906 81.6122 236.061 82.0767 236.061 82.6307C236.061 83.1051 235.932 83.5312 235.673 83.9091C235.417 84.2841 235.068 84.5795 234.625 84.7955C234.182 85.0114 233.677 85.1193 233.112 85.1193ZM240.753 85.1193C240.19 85.1193 239.689 85.0227 239.248 84.8295C238.811 84.6364 238.463 84.3679 238.204 84.0241C237.949 83.6776 237.809 83.2756 237.787 82.8182H238.861C238.883 83.0994 238.98 83.3423 239.15 83.5469C239.321 83.7486 239.544 83.9048 239.819 84.0156C240.095 84.1264 240.4 84.1818 240.736 84.1818C241.111 84.1818 241.443 84.1165 241.733 83.9858C242.023 83.8551 242.25 83.6733 242.415 83.4403C242.579 83.2074 242.662 82.9375 242.662 82.6307C242.662 82.3097 242.582 82.027 242.423 81.7827C242.264 81.5355 242.031 81.3423 241.724 81.2031C241.417 81.0639 241.042 80.9943 240.599 80.9943H239.9V80.0568H240.599C240.946 80.0568 241.25 79.9943 241.511 79.8693C241.775 79.7443 241.981 79.5682 242.129 79.3409C242.28 79.1136 242.355 78.8466 242.355 78.5398C242.355 78.2443 242.29 77.9872 242.159 77.7685C242.028 77.5497 241.844 77.3793 241.605 77.2571C241.369 77.1349 241.091 77.0739 240.77 77.0739C240.469 77.0739 240.184 77.1293 239.917 77.2401C239.653 77.348 239.437 77.5057 239.27 77.7131C239.102 77.9176 239.011 78.1648 238.997 78.4545H237.974C237.991 77.9972 238.129 77.5966 238.388 77.2528C238.646 76.9062 238.984 76.6364 239.402 76.4432C239.822 76.25 240.284 76.1534 240.787 76.1534C241.327 76.1534 241.79 76.2628 242.176 76.4815C242.562 76.6974 242.859 76.983 243.067 77.3381C243.274 77.6932 243.378 78.0767 243.378 78.4886C243.378 78.9801 243.248 79.3991 242.99 79.7457C242.734 80.0923 242.386 80.3324 241.946 80.4659V80.5341C242.497 80.625 242.927 80.8594 243.237 81.2372C243.547 81.6122 243.702 82.0767 243.702 82.6307C243.702 83.1051 243.572 83.5312 243.314 83.9091C243.058 84.2841 242.709 84.5795 242.265 84.7955C241.822 85.0114 241.318 85.1193 240.753 85.1193ZM248.393 85.1193C247.831 85.1193 247.329 85.0227 246.889 84.8295C246.452 84.6364 246.104 84.3679 245.845 84.0241C245.589 83.6776 245.45 83.2756 245.427 82.8182H246.501C246.524 83.0994 246.621 83.3423 246.791 83.5469C246.961 83.7486 247.184 83.9048 247.46 84.0156C247.736 84.1264 248.041 84.1818 248.376 84.1818C248.751 84.1818 249.084 84.1165 249.373 83.9858C249.663 83.8551 249.89 83.6733 250.055 83.4403C250.22 83.2074 250.302 82.9375 250.302 82.6307C250.302 82.3097 250.223 82.027 250.064 81.7827C249.905 81.5355 249.672 81.3423 249.365 81.2031C249.058 81.0639 248.683 80.9943 248.24 80.9943H247.541V80.0568H248.24C248.586 80.0568 248.89 79.9943 249.152 79.8693C249.416 79.7443 249.622 79.5682 249.77 79.3409C249.92 79.1136 249.996 78.8466 249.996 78.5398C249.996 78.2443 249.93 77.9872 249.8 77.7685C249.669 77.5497 249.484 77.3793 249.246 77.2571C249.01 77.1349 248.731 77.0739 248.41 77.0739C248.109 77.0739 247.825 77.1293 247.558 77.2401C247.294 77.348 247.078 77.5057 246.91 77.7131C246.743 77.9176 246.652 78.1648 246.638 78.4545H245.615C245.632 77.9972 245.77 77.5966 246.028 77.2528C246.287 76.9062 246.625 76.6364 247.042 76.4432C247.463 76.25 247.925 76.1534 248.427 76.1534C248.967 76.1534 249.43 76.2628 249.817 76.4815C250.203 76.6974 250.5 76.983 250.707 77.3381C250.915 77.6932 251.018 78.0767 251.018 78.4886C251.018 78.9801 250.889 79.3991 250.631 79.7457C250.375 80.0923 250.027 80.3324 249.586 80.4659V80.5341C250.138 80.625 250.568 80.8594 250.878 81.2372C251.187 81.6122 251.342 82.0767 251.342 82.6307C251.342 83.1051 251.213 83.5312 250.954 83.9091C250.699 84.2841 250.349 84.5795 249.906 84.7955C249.463 85.0114 248.959 85.1193 248.393 85.1193ZM256.034 85.1193C255.471 85.1193 254.97 85.0227 254.53 84.8295C254.092 84.6364 253.744 84.3679 253.486 84.0241C253.23 83.6776 253.091 83.2756 253.068 82.8182H254.142C254.165 83.0994 254.261 83.3423 254.432 83.5469C254.602 83.7486 254.825 83.9048 255.101 84.0156C255.376 84.1264 255.682 84.1818 256.017 84.1818C256.392 84.1818 256.724 84.1165 257.014 83.9858C257.304 83.8551 257.531 83.6733 257.696 83.4403C257.861 83.2074 257.943 82.9375 257.943 82.6307C257.943 82.3097 257.863 82.027 257.704 81.7827C257.545 81.5355 257.312 81.3423 257.006 81.2031C256.699 81.0639 256.324 80.9943 255.881 80.9943H255.182V80.0568H255.881C256.227 80.0568 256.531 79.9943 256.792 79.8693C257.057 79.7443 257.263 79.5682 257.41 79.3409C257.561 79.1136 257.636 78.8466 257.636 78.5398C257.636 78.2443 257.571 77.9872 257.44 77.7685C257.309 77.5497 257.125 77.3793 256.886 77.2571C256.65 77.1349 256.372 77.0739 256.051 77.0739C255.75 77.0739 255.466 77.1293 255.199 77.2401C254.934 77.348 254.719 77.5057 254.551 77.7131C254.383 77.9176 254.292 78.1648 254.278 78.4545H253.256C253.273 77.9972 253.41 77.5966 253.669 77.2528C253.927 76.9062 254.265 76.6364 254.683 76.4432C255.104 76.25 255.565 76.1534 256.068 76.1534C256.608 76.1534 257.071 76.2628 257.457 76.4815C257.844 76.6974 258.14 76.983 258.348 77.3381C258.555 77.6932 258.659 78.0767 258.659 78.4886C258.659 78.9801 258.53 79.3991 258.271 79.7457C258.015 80.0923 257.667 80.3324 257.227 80.4659V80.5341C257.778 80.625 258.209 80.8594 258.518 81.2372C258.828 81.6122 258.983 82.0767 258.983 82.6307C258.983 83.1051 258.854 83.5312 258.595 83.9091C258.339 84.2841 257.99 84.5795 257.547 84.7955C257.104 85.0114 256.599 85.1193 256.034 85.1193ZM59.6739 100.632H69.5019V101.448H59.6739V100.632ZM64.1619 101.136H65.1579V103.632H64.1619V101.136ZM60.9339 95.592H68.2299V99.408H60.9339V95.592ZM67.2459 96.396H61.9059V98.604H67.2459V96.396ZM60.9219 104.88H68.4099V105.696H60.9219V104.88ZM60.9219 102.588H61.9059V105.168H60.9219V102.588ZM74.241 95.868C75.933 95.868 77.145 96.912 77.145 98.424C77.145 99.948 75.933 100.992 74.241 100.992C72.549 100.992 71.325 99.948 71.325 98.424C71.325 96.912 72.549 95.868 74.241 95.868ZM74.241 96.732C73.113 96.732 72.297 97.416 72.297 98.424C72.297 99.432 73.113 100.128 74.241 100.128C75.357 100.128 76.173 99.432 76.173 98.424C76.173 97.416 75.357 96.732 74.241 96.732ZM78.561 95.076H79.557V105.948H78.561V95.076ZM70.917 103.572L70.773 102.744C72.753 102.744 75.489 102.732 77.853 102.36L77.937 103.092C75.501 103.56 72.849 103.572 70.917 103.572ZM86.1925 103.884C85.9822 103.884 85.8018 103.808 85.6513 103.658C85.5007 103.507 85.4254 103.327 85.4254 103.116C85.4254 102.906 85.5007 102.726 85.6513 102.575C85.8018 102.425 85.9822 102.349 86.1925 102.349C86.4027 102.349 86.5831 102.425 86.7337 102.575C86.8842 102.726 86.9595 102.906 86.9595 103.116C86.9595 103.256 86.924 103.384 86.853 103.5C86.7848 103.616 86.6925 103.71 86.576 103.781C86.4624 103.849 86.3345 103.884 86.1925 103.884ZM86.1925 99.4688C85.9822 99.4688 85.8018 99.3935 85.6513 99.2429C85.5007 99.0923 85.4254 98.9119 85.4254 98.7017C85.4254 98.4915 85.5007 98.3111 85.6513 98.1605C85.8018 98.0099 85.9822 97.9347 86.1925 97.9347C86.4027 97.9347 86.5831 98.0099 86.7337 98.1605C86.8842 98.3111 86.9595 98.4915 86.9595 98.7017C86.9595 98.8409 86.924 98.9688 86.853 99.0852C86.7848 99.2017 86.6925 99.2955 86.576 99.3665C86.4624 99.4347 86.3345 99.4688 86.1925 99.4688ZM94.9688 105.119C94.3267 105.119 93.7798 104.945 93.3281 104.595C92.8764 104.243 92.5313 103.733 92.2926 103.065C92.054 102.395 91.9347 101.585 91.9347 100.636C91.9347 99.6932 92.054 98.8878 92.2926 98.2202C92.5341 97.5497 92.8807 97.0384 93.3324 96.6861C93.7869 96.331 94.3324 96.1534 94.9688 96.1534C95.6051 96.1534 96.1491 96.331 96.6009 96.6861C97.0554 97.0384 97.402 97.5497 97.6406 98.2202C97.8821 98.8878 98.0028 99.6932 98.0028 100.636C98.0028 101.585 97.8835 102.395 97.6449 103.065C97.4062 103.733 97.0611 104.243 96.6094 104.595C96.1577 104.945 95.6108 105.119 94.9688 105.119ZM94.9688 104.182C95.6051 104.182 96.0994 103.875 96.4517 103.261C96.804 102.648 96.9801 101.773 96.9801 100.636C96.9801 99.8807 96.8991 99.2372 96.7372 98.706C96.5781 98.1747 96.348 97.7699 96.0469 97.4915C95.7486 97.2131 95.3892 97.0739 94.9688 97.0739C94.3381 97.0739 93.8452 97.3849 93.4901 98.0071C93.1349 98.6264 92.9574 99.5028 92.9574 100.636C92.9574 101.392 93.0369 102.034 93.196 102.562C93.3551 103.091 93.5838 103.493 93.8821 103.768C94.1832 104.044 94.5455 104.182 94.9688 104.182ZM99.6222 105V104.233L102.503 101.08C102.841 100.71 103.119 100.389 103.338 100.116C103.557 99.8409 103.719 99.5824 103.824 99.3409C103.932 99.0966 103.986 98.8409 103.986 98.5739C103.986 98.267 103.912 98.0014 103.764 97.777C103.619 97.5526 103.42 97.3793 103.168 97.2571C102.915 97.1349 102.631 97.0739 102.315 97.0739C101.98 97.0739 101.688 97.1435 101.438 97.2827C101.19 97.419 100.999 97.6108 100.862 97.858C100.729 98.1051 100.662 98.3949 100.662 98.7273H99.6562C99.6562 98.2159 99.7741 97.767 100.01 97.3807C100.246 96.9943 100.567 96.6932 100.973 96.4773C101.382 96.2614 101.841 96.1534 102.349 96.1534C102.861 96.1534 103.314 96.2614 103.709 96.4773C104.104 96.6932 104.413 96.9844 104.638 97.3509C104.862 97.7173 104.974 98.125 104.974 98.5739C104.974 98.8949 104.916 99.2088 104.8 99.5156C104.686 99.8196 104.487 100.159 104.203 100.534C103.922 100.906 103.531 101.361 103.031 101.898L101.071 103.994V104.062H105.128V105H99.6222ZM110.655 100.168V101.105H106.837V100.168H110.655ZM115.216 105.119C114.653 105.119 114.152 105.023 113.711 104.83C113.274 104.636 112.926 104.368 112.667 104.024C112.412 103.678 112.272 103.276 112.25 102.818H113.324C113.346 103.099 113.443 103.342 113.613 103.547C113.784 103.749 114.007 103.905 114.282 104.016C114.558 104.126 114.863 104.182 115.199 104.182C115.574 104.182 115.906 104.116 116.196 103.986C116.485 103.855 116.713 103.673 116.877 103.44C117.042 103.207 117.125 102.938 117.125 102.631C117.125 102.31 117.045 102.027 116.886 101.783C116.727 101.536 116.494 101.342 116.187 101.203C115.88 101.064 115.505 100.994 115.062 100.994H114.363V100.057H115.062C115.409 100.057 115.713 99.9943 115.974 99.8693C116.238 99.7443 116.444 99.5682 116.592 99.3409C116.743 99.1136 116.818 98.8466 116.818 98.5398C116.818 98.2443 116.752 97.9872 116.622 97.7685C116.491 97.5497 116.306 97.3793 116.068 97.2571C115.832 97.1349 115.554 97.0739 115.233 97.0739C114.931 97.0739 114.647 97.1293 114.38 97.2401C114.116 97.348 113.9 97.5057 113.733 97.7131C113.565 97.9176 113.474 98.1648 113.46 98.4545H112.437C112.454 97.9972 112.592 97.5966 112.85 97.2528C113.109 96.9062 113.447 96.6364 113.865 96.4432C114.285 96.25 114.747 96.1534 115.25 96.1534C115.789 96.1534 116.252 96.2628 116.639 96.4815C117.025 96.6974 117.322 96.983 117.529 97.3381C117.737 97.6932 117.841 98.0767 117.841 98.4886C117.841 98.9801 117.711 99.3991 117.453 99.7457C117.197 100.092 116.849 100.332 116.409 100.466V100.534C116.96 100.625 117.39 100.859 117.7 101.237C118.01 101.612 118.164 102.077 118.164 102.631C118.164 103.105 118.035 103.531 117.777 103.909C117.521 104.284 117.172 104.58 116.728 104.795C116.285 105.011 115.781 105.119 115.216 105.119ZM122.635 105.119C122.135 105.119 121.684 105.02 121.284 104.821C120.883 104.622 120.562 104.349 120.321 104.003C120.079 103.656 119.947 103.261 119.924 102.818H120.947C120.987 103.213 121.166 103.54 121.484 103.798C121.805 104.054 122.189 104.182 122.635 104.182C122.993 104.182 123.311 104.098 123.589 103.93C123.87 103.763 124.091 103.533 124.25 103.24C124.412 102.945 124.493 102.611 124.493 102.239C124.493 101.858 124.409 101.518 124.241 101.22C124.076 100.919 123.849 100.682 123.559 100.509C123.27 100.335 122.939 100.247 122.566 100.244C122.299 100.241 122.025 100.283 121.744 100.368C121.463 100.45 121.231 100.557 121.049 100.688L120.061 100.568L120.589 96.2727H125.123V97.2102H121.475L121.169 99.7841H121.22C121.399 99.642 121.623 99.5241 121.893 99.4304C122.163 99.3366 122.444 99.2898 122.737 99.2898C123.271 99.2898 123.747 99.4176 124.164 99.6733C124.585 99.9261 124.914 100.273 125.153 100.713C125.395 101.153 125.515 101.656 125.515 102.222C125.515 102.778 125.39 103.276 125.14 103.713C124.893 104.148 124.552 104.491 124.118 104.744C123.683 104.994 123.189 105.119 122.635 105.119ZM130.157 105.119C129.594 105.119 129.093 105.023 128.653 104.83C128.215 104.636 127.867 104.368 127.609 104.024C127.353 103.678 127.214 103.276 127.191 102.818H128.265C128.288 103.099 128.384 103.342 128.555 103.547C128.725 103.749 128.948 103.905 129.224 104.016C129.499 104.126 129.805 104.182 130.14 104.182C130.515 104.182 130.847 104.116 131.137 103.986C131.427 103.855 131.654 103.673 131.819 103.44C131.984 103.207 132.066 102.938 132.066 102.631C132.066 102.31 131.987 102.027 131.827 101.783C131.668 101.536 131.435 101.342 131.129 101.203C130.822 101.064 130.447 100.994 130.004 100.994H129.305V100.057H130.004C130.35 100.057 130.654 99.9943 130.915 99.8693C131.18 99.7443 131.386 99.5682 131.533 99.3409C131.684 99.1136 131.759 98.8466 131.759 98.5398C131.759 98.2443 131.694 97.9872 131.563 97.7685C131.433 97.5497 131.248 97.3793 131.009 97.2571C130.773 97.1349 130.495 97.0739 130.174 97.0739C129.873 97.0739 129.589 97.1293 129.322 97.2401C129.058 97.348 128.842 97.5057 128.674 97.7131C128.506 97.9176 128.415 98.1648 128.401 98.4545H127.379C127.396 97.9972 127.533 97.5966 127.792 97.2528C128.05 96.9062 128.388 96.6364 128.806 96.4432C129.227 96.25 129.688 96.1534 130.191 96.1534C130.731 96.1534 131.194 96.2628 131.58 96.4815C131.967 96.6974 132.263 96.983 132.471 97.3381C132.678 97.6932 132.782 98.0767 132.782 98.4886C132.782 98.9801 132.653 99.3991 132.394 99.7457C132.138 100.092 131.79 100.332 131.35 100.466V100.534C131.901 100.625 132.332 100.859 132.641 101.237C132.951 101.612 133.106 102.077 133.106 102.631C133.106 103.105 132.977 103.531 132.718 103.909C132.462 104.284 132.113 104.58 131.67 104.795C131.227 105.011 130.722 105.119 130.157 105.119ZM134.849 105V104.233L137.729 101.08C138.067 100.71 138.346 100.389 138.565 100.116C138.783 99.8409 138.945 99.5824 139.05 99.3409C139.158 99.0966 139.212 98.8409 139.212 98.5739C139.212 98.267 139.138 98.0014 138.991 97.777C138.846 97.5526 138.647 97.3793 138.394 97.2571C138.141 97.1349 137.857 97.0739 137.542 97.0739C137.207 97.0739 136.914 97.1435 136.664 97.2827C136.417 97.419 136.225 97.6108 136.089 97.858C135.955 98.1051 135.888 98.3949 135.888 98.7273H134.883C134.883 98.2159 135.001 97.767 135.237 97.3807C135.472 96.9943 135.793 96.6932 136.2 96.4773C136.609 96.2614 137.067 96.1534 137.576 96.1534C138.087 96.1534 138.54 96.2614 138.935 96.4773C139.33 96.6932 139.64 96.9844 139.864 97.3509C140.089 97.7173 140.201 98.125 140.201 98.5739C140.201 98.8949 140.143 99.2088 140.026 99.5156C139.913 99.8196 139.714 100.159 139.43 100.534C139.148 100.906 138.758 101.361 138.258 101.898L136.298 103.994V104.062H140.354V105H134.849ZM145.881 100.168V101.105H142.063V100.168H145.881ZM150.442 105.119C149.88 105.119 149.378 105.023 148.938 104.83C148.5 104.636 148.152 104.368 147.894 104.024C147.638 103.678 147.499 103.276 147.476 102.818H148.55C148.573 103.099 148.669 103.342 148.84 103.547C149.01 103.749 149.233 103.905 149.509 104.016C149.784 104.126 150.09 104.182 150.425 104.182C150.8 104.182 151.132 104.116 151.422 103.986C151.712 103.855 151.939 103.673 152.104 103.44C152.269 103.207 152.351 102.938 152.351 102.631C152.351 102.31 152.272 102.027 152.113 101.783C151.953 101.536 151.721 101.342 151.414 101.203C151.107 101.064 150.732 100.994 150.289 100.994H149.59V100.057H150.289C150.635 100.057 150.939 99.9943 151.201 99.8693C151.465 99.7443 151.671 99.5682 151.819 99.3409C151.969 99.1136 152.044 98.8466 152.044 98.5398C152.044 98.2443 151.979 97.9872 151.848 97.7685C151.718 97.5497 151.533 97.3793 151.294 97.2571C151.059 97.1349 150.78 97.0739 150.459 97.0739C150.158 97.0739 149.874 97.1293 149.607 97.2401C149.343 97.348 149.127 97.5057 148.959 97.7131C148.792 97.9176 148.701 98.1648 148.686 98.4545H147.664C147.681 97.9972 147.819 97.5966 148.077 97.2528C148.336 96.9062 148.674 96.6364 149.091 96.4432C149.512 96.25 149.973 96.1534 150.476 96.1534C151.016 96.1534 151.479 96.2628 151.865 96.4815C152.252 96.6974 152.549 96.983 152.756 97.3381C152.963 97.6932 153.067 98.0767 153.067 98.4886C153.067 98.9801 152.938 99.3991 152.679 99.7457C152.424 100.092 152.076 100.332 151.635 100.466V100.534C152.186 100.625 152.617 100.859 152.926 101.237C153.236 101.612 153.391 102.077 153.391 102.631C153.391 103.105 153.262 103.531 153.003 103.909C152.748 104.284 152.398 104.58 151.955 104.795C151.512 105.011 151.007 105.119 150.442 105.119ZM158.083 105.119C157.52 105.119 157.019 105.023 156.578 104.83C156.141 104.636 155.793 104.368 155.534 104.024C155.279 103.678 155.14 103.276 155.117 102.818H156.191C156.213 103.099 156.31 103.342 156.48 103.547C156.651 103.749 156.874 103.905 157.15 104.016C157.425 104.126 157.73 104.182 158.066 104.182C158.441 104.182 158.773 104.116 159.063 103.986C159.353 103.855 159.58 103.673 159.745 103.44C159.909 103.207 159.992 102.938 159.992 102.631C159.992 102.31 159.912 102.027 159.753 101.783C159.594 101.536 159.361 101.342 159.054 101.203C158.748 101.064 158.373 100.994 157.929 100.994H157.23V100.057H157.929C158.276 100.057 158.58 99.9943 158.841 99.8693C159.105 99.7443 159.311 99.5682 159.459 99.3409C159.61 99.1136 159.685 98.8466 159.685 98.5398C159.685 98.2443 159.62 97.9872 159.489 97.7685C159.358 97.5497 159.174 97.3793 158.935 97.2571C158.699 97.1349 158.421 97.0739 158.1 97.0739C157.799 97.0739 157.515 97.1293 157.248 97.2401C156.983 97.348 156.767 97.5057 156.6 97.7131C156.432 97.9176 156.341 98.1648 156.327 98.4545H155.304C155.321 97.9972 155.459 97.5966 155.718 97.2528C155.976 96.9062 156.314 96.6364 156.732 96.4432C157.152 96.25 157.614 96.1534 158.117 96.1534C158.657 96.1534 159.12 96.2628 159.506 96.4815C159.892 96.6974 160.189 96.983 160.397 97.3381C160.604 97.6932 160.708 98.0767 160.708 98.4886C160.708 98.9801 160.578 99.3991 160.32 99.7457C160.064 100.092 159.716 100.332 159.276 100.466V100.534C159.827 100.625 160.257 100.859 160.567 101.237C160.877 101.612 161.032 102.077 161.032 102.631C161.032 103.105 160.902 103.531 160.644 103.909C160.388 104.284 160.039 104.58 159.596 104.795C159.152 105.011 158.648 105.119 158.083 105.119ZM165.723 105.119C165.161 105.119 164.659 105.023 164.219 104.83C163.782 104.636 163.434 104.368 163.175 104.024C162.919 103.678 162.78 103.276 162.757 102.818H163.831C163.854 103.099 163.951 103.342 164.121 103.547C164.292 103.749 164.515 103.905 164.79 104.016C165.066 104.126 165.371 104.182 165.706 104.182C166.081 104.182 166.414 104.116 166.703 103.986C166.993 103.855 167.221 103.673 167.385 103.44C167.55 103.207 167.632 102.938 167.632 102.631C167.632 102.31 167.553 102.027 167.394 101.783C167.235 101.536 167.002 101.342 166.695 101.203C166.388 101.064 166.013 100.994 165.57 100.994H164.871V100.057H165.57C165.917 100.057 166.221 99.9943 166.482 99.8693C166.746 99.7443 166.952 99.5682 167.1 99.3409C167.25 99.1136 167.326 98.8466 167.326 98.5398C167.326 98.2443 167.26 97.9872 167.13 97.7685C166.999 97.5497 166.814 97.3793 166.576 97.2571C166.34 97.1349 166.061 97.0739 165.74 97.0739C165.439 97.0739 165.155 97.1293 164.888 97.2401C164.624 97.348 164.408 97.5057 164.24 97.7131C164.073 97.9176 163.982 98.1648 163.968 98.4545H162.945C162.962 97.9972 163.1 97.5966 163.358 97.2528C163.617 96.9062 163.955 96.6364 164.373 96.4432C164.793 96.25 165.255 96.1534 165.757 96.1534C166.297 96.1534 166.76 96.2628 167.147 96.4815C167.533 96.6974 167.83 96.983 168.037 97.3381C168.245 97.6932 168.348 98.0767 168.348 98.4886C168.348 98.9801 168.219 99.3991 167.961 99.7457C167.705 100.092 167.357 100.332 166.917 100.466V100.534C167.468 100.625 167.898 100.859 168.208 101.237C168.517 101.612 168.672 102.077 168.672 102.631C168.672 103.105 168.543 103.531 168.284 103.909C168.029 104.284 167.679 104.58 167.236 104.795C166.793 105.011 166.289 105.119 165.723 105.119ZM173.364 105.119C172.801 105.119 172.3 105.023 171.86 104.83C171.422 104.636 171.074 104.368 170.816 104.024C170.56 103.678 170.421 103.276 170.398 102.818H171.472C171.495 103.099 171.591 103.342 171.762 103.547C171.932 103.749 172.155 103.905 172.431 104.016C172.706 104.126 173.012 104.182 173.347 104.182C173.722 104.182 174.054 104.116 174.344 103.986C174.634 103.855 174.861 103.673 175.026 103.44C175.191 103.207 175.273 102.938 175.273 102.631C175.273 102.31 175.194 102.027 175.034 101.783C174.875 101.536 174.642 101.342 174.336 101.203C174.029 101.064 173.654 100.994 173.211 100.994H172.512V100.057H173.211C173.557 100.057 173.861 99.9943 174.123 99.8693C174.387 99.7443 174.593 99.5682 174.74 99.3409C174.891 99.1136 174.966 98.8466 174.966 98.5398C174.966 98.2443 174.901 97.9872 174.77 97.7685C174.64 97.5497 174.455 97.3793 174.216 97.2571C173.98 97.1349 173.702 97.0739 173.381 97.0739C173.08 97.0739 172.796 97.1293 172.529 97.2401C172.265 97.348 172.049 97.5057 171.881 97.7131C171.713 97.9176 171.623 98.1648 171.608 98.4545H170.586C170.603 97.9972 170.74 97.5966 170.999 97.2528C171.257 96.9062 171.596 96.6364 172.013 96.4432C172.434 96.25 172.895 96.1534 173.398 96.1534C173.938 96.1534 174.401 96.2628 174.787 96.4815C175.174 96.6974 175.471 96.983 175.678 97.3381C175.885 97.6932 175.989 98.0767 175.989 98.4886C175.989 98.9801 175.86 99.3991 175.601 99.7457C175.346 100.092 174.998 100.332 174.557 100.466V100.534C175.108 100.625 175.539 100.859 175.848 101.237C176.158 101.612 176.313 102.077 176.313 102.631C176.313 103.105 176.184 103.531 175.925 103.909C175.669 104.284 175.32 104.58 174.877 104.795C174.434 105.011 173.929 105.119 173.364 105.119ZM182.914 93.4602V107.812H182.061V93.4602H182.914ZM196.624 95.1H197.572V101.664H196.624V95.1ZM194.908 97.932H196.948V98.748H194.908V97.932ZM194.344 95.268H195.292V101.604H194.344V95.268ZM190.192 102.216H197.572V105.936H196.588V103.02H190.192V102.216ZM188.56 96.036H193.612V96.852H188.56V96.036ZM188.488 101.064L188.38 100.236C189.808 100.236 192.148 100.212 193.828 99.984L193.888 100.728C192.16 101.028 189.904 101.064 188.488 101.064ZM189.484 96.576H190.396V100.392H189.484V96.576ZM191.788 96.576H192.7V100.392H191.788V96.576ZM203.811 95.832H204.675V96.66C204.675 99.024 202.479 100.86 200.307 101.352L199.863 100.524C201.771 100.164 203.811 98.508 203.811 96.66V95.832ZM203.991 95.832H204.855V96.66C204.855 98.52 206.907 100.164 208.803 100.524L208.359 101.352C206.199 100.86 203.991 99.036 203.991 96.66V95.832ZM199.467 103.656H209.295V104.472H199.467V103.656ZM214.935 103.884C214.724 103.884 214.544 103.808 214.393 103.658C214.243 103.507 214.168 103.327 214.168 103.116C214.168 102.906 214.243 102.726 214.393 102.575C214.544 102.425 214.724 102.349 214.935 102.349C215.145 102.349 215.325 102.425 215.476 102.575C215.626 102.726 215.702 102.906 215.702 103.116C215.702 103.256 215.666 103.384 215.595 103.5C215.527 103.616 215.435 103.71 215.318 103.781C215.205 103.849 215.077 103.884 214.935 103.884ZM214.935 99.4688C214.724 99.4688 214.544 99.3935 214.393 99.2429C214.243 99.0923 214.168 98.9119 214.168 98.7017C214.168 98.4915 214.243 98.3111 214.393 98.1605C214.544 98.0099 214.724 97.9347 214.935 97.9347C215.145 97.9347 215.325 98.0099 215.476 98.1605C215.626 98.3111 215.702 98.4915 215.702 98.7017C215.702 98.8409 215.666 98.9688 215.595 99.0852C215.527 99.2017 215.435 99.2955 215.318 99.3665C215.205 99.4347 215.077 99.4688 214.935 99.4688ZM223.711 105.119C223.069 105.119 222.522 104.945 222.07 104.595C221.619 104.243 221.273 103.733 221.035 103.065C220.796 102.395 220.677 101.585 220.677 100.636C220.677 99.6932 220.796 98.8878 221.035 98.2202C221.276 97.5497 221.623 97.0384 222.075 96.6861C222.529 96.331 223.075 96.1534 223.711 96.1534C224.347 96.1534 224.891 96.331 225.343 96.6861C225.798 97.0384 226.144 97.5497 226.383 98.2202C226.624 98.8878 226.745 99.6932 226.745 100.636C226.745 101.585 226.626 102.395 226.387 103.065C226.148 103.733 225.803 104.243 225.352 104.595C224.9 104.945 224.353 105.119 223.711 105.119ZM223.711 104.182C224.347 104.182 224.842 103.875 225.194 103.261C225.546 102.648 225.722 101.773 225.722 100.636C225.722 99.8807 225.641 99.2372 225.479 98.706C225.32 98.1747 225.09 97.7699 224.789 97.4915C224.491 97.2131 224.131 97.0739 223.711 97.0739C223.08 97.0739 222.587 97.3849 222.232 98.0071C221.877 98.6264 221.7 99.5028 221.7 100.636C221.7 101.392 221.779 102.034 221.938 102.562C222.097 103.091 222.326 103.493 222.624 103.768C222.925 104.044 223.288 104.182 223.711 104.182ZM228.364 105V104.233L231.245 101.08C231.583 100.71 231.862 100.389 232.08 100.116C232.299 99.8409 232.461 99.5824 232.566 99.3409C232.674 99.0966 232.728 98.8409 232.728 98.5739C232.728 98.267 232.654 98.0014 232.506 97.777C232.362 97.5526 232.163 97.3793 231.91 97.2571C231.657 97.1349 231.373 97.0739 231.058 97.0739C230.722 97.0739 230.43 97.1435 230.18 97.2827C229.933 97.419 229.741 97.6108 229.604 97.858C229.471 98.1051 229.404 98.3949 229.404 98.7273H228.398C228.398 98.2159 228.516 97.767 228.752 97.3807C228.988 96.9943 229.309 96.6932 229.715 96.4773C230.124 96.2614 230.583 96.1534 231.092 96.1534C231.603 96.1534 232.056 96.2614 232.451 96.4773C232.846 96.6932 233.156 96.9844 233.38 97.3509C233.604 97.7173 233.717 98.125 233.717 98.5739C233.717 98.8949 233.658 99.2088 233.542 99.5156C233.428 99.8196 233.229 100.159 232.945 100.534C232.664 100.906 232.273 101.361 231.773 101.898L229.813 103.994V104.062H233.87V105H228.364ZM239.397 100.168V101.105H235.579V100.168H239.397ZM244.047 105.119C243.689 105.114 243.331 105.045 242.973 104.915C242.615 104.784 242.289 104.564 241.993 104.254C241.698 103.942 241.461 103.52 241.282 102.989C241.103 102.455 241.013 101.784 241.013 100.977C241.013 100.205 241.086 99.5199 241.23 98.9233C241.375 98.3239 241.586 97.8196 241.861 97.4105C242.137 96.9986 242.469 96.6861 242.858 96.473C243.25 96.2599 243.692 96.1534 244.184 96.1534C244.672 96.1534 245.107 96.2514 245.488 96.4474C245.871 96.6406 246.184 96.9105 246.425 97.2571C246.667 97.6037 246.823 98.0028 246.894 98.4545H245.854C245.757 98.0625 245.57 97.7372 245.292 97.4787C245.013 97.2202 244.644 97.0909 244.184 97.0909C243.507 97.0909 242.975 97.3849 242.586 97.973C242.199 98.5611 242.005 99.3864 242.002 100.449H242.07C242.229 100.207 242.418 100.001 242.637 99.831C242.858 99.6577 243.103 99.5241 243.37 99.4304C243.637 99.3366 243.919 99.2898 244.218 99.2898C244.718 99.2898 245.175 99.4148 245.59 99.6648C246.005 99.9119 246.337 100.254 246.587 100.692C246.837 101.126 246.962 101.625 246.962 102.188C246.962 102.727 246.841 103.222 246.6 103.67C246.358 104.116 246.019 104.472 245.581 104.736C245.147 104.997 244.635 105.125 244.047 105.119ZM244.047 104.182C244.405 104.182 244.726 104.092 245.01 103.913C245.297 103.734 245.523 103.494 245.688 103.193C245.855 102.892 245.939 102.557 245.939 102.188C245.939 101.827 245.858 101.499 245.696 101.203C245.537 100.905 245.317 100.668 245.036 100.491C244.757 100.315 244.439 100.227 244.081 100.227C243.811 100.227 243.56 100.281 243.327 100.389C243.094 100.494 242.89 100.639 242.713 100.824C242.54 101.009 242.404 101.22 242.304 101.459C242.205 101.695 242.155 101.943 242.155 102.205C242.155 102.551 242.236 102.875 242.398 103.176C242.563 103.477 242.787 103.72 243.071 103.905C243.358 104.089 243.684 104.182 244.047 104.182ZM251.706 96.2727V105H250.649V97.3807H250.598L248.467 98.7955V97.7216L250.649 96.2727H251.706ZM257.284 96.2727V105H256.227V97.3807H256.176L254.045 98.7955V97.7216L256.227 96.2727H257.284ZM259.794 105V104.233L262.675 101.08C263.013 100.71 263.291 100.389 263.51 100.116C263.729 99.8409 263.891 99.5824 263.996 99.3409C264.104 99.0966 264.158 98.8409 264.158 98.5739C264.158 98.267 264.084 98.0014 263.936 97.777C263.791 97.5526 263.592 97.3793 263.339 97.2571C263.087 97.1349 262.803 97.0739 262.487 97.0739C262.152 97.0739 261.859 97.1435 261.609 97.2827C261.362 97.419 261.17 97.6108 261.034 97.858C260.901 98.1051 260.834 98.3949 260.834 98.7273H259.828C259.828 98.2159 259.946 97.767 260.182 97.3807C260.418 96.9943 260.739 96.6932 261.145 96.4773C261.554 96.2614 262.013 96.1534 262.521 96.1534C263.033 96.1534 263.486 96.2614 263.881 96.4773C264.276 96.6932 264.585 96.9844 264.81 97.3509C265.034 97.7173 265.146 98.125 265.146 98.5739C265.146 98.8949 265.088 99.2088 264.972 99.5156C264.858 99.8196 264.659 100.159 264.375 100.534C264.094 100.906 263.703 101.361 263.203 101.898L261.243 103.994V104.062H265.3V105H259.794ZM270.827 100.168V101.105H267.009V100.168H270.827ZM275.387 105.119C274.825 105.119 274.324 105.023 273.883 104.83C273.446 104.636 273.098 104.368 272.839 104.024C272.583 103.678 272.444 103.276 272.422 102.818H273.495C273.518 103.099 273.615 103.342 273.785 103.547C273.956 103.749 274.179 103.905 274.454 104.016C274.73 104.126 275.035 104.182 275.37 104.182C275.745 104.182 276.078 104.116 276.368 103.986C276.657 103.855 276.885 103.673 277.049 103.44C277.214 103.207 277.297 102.938 277.297 102.631C277.297 102.31 277.217 102.027 277.058 101.783C276.899 101.536 276.666 101.342 276.359 101.203C276.052 101.064 275.677 100.994 275.234 100.994H274.535V100.057H275.234C275.581 100.057 275.885 99.9943 276.146 99.8693C276.41 99.7443 276.616 99.5682 276.764 99.3409C276.914 99.1136 276.99 98.8466 276.99 98.5398C276.99 98.2443 276.924 97.9872 276.794 97.7685C276.663 97.5497 276.478 97.3793 276.24 97.2571C276.004 97.1349 275.725 97.0739 275.404 97.0739C275.103 97.0739 274.819 97.1293 274.552 97.2401C274.288 97.348 274.072 97.5057 273.904 97.7131C273.737 97.9176 273.646 98.1648 273.632 98.4545H272.609C272.626 97.9972 272.764 97.5966 273.022 97.2528C273.281 96.9062 273.619 96.6364 274.037 96.4432C274.457 96.25 274.919 96.1534 275.422 96.1534C275.961 96.1534 276.424 96.2628 276.811 96.4815C277.197 96.6974 277.494 96.983 277.701 97.3381C277.909 97.6932 278.012 98.0767 278.012 98.4886C278.012 98.9801 277.883 99.3991 277.625 99.7457C277.369 100.092 277.021 100.332 276.581 100.466V100.534C277.132 100.625 277.562 100.859 277.872 101.237C278.181 101.612 278.336 102.077 278.336 102.631C278.336 103.105 278.207 103.531 277.949 103.909C277.693 104.284 277.343 104.58 276.9 104.795C276.457 105.011 275.953 105.119 275.387 105.119ZM280.352 105L284.255 97.2784V97.2102H279.755V96.2727H285.346V97.2614L281.46 105H280.352ZM289.545 105.119C289.045 105.119 288.594 105.02 288.194 104.821C287.793 104.622 287.472 104.349 287.231 104.003C286.989 103.656 286.857 103.261 286.835 102.818H287.857C287.897 103.213 288.076 103.54 288.394 103.798C288.715 104.054 289.099 104.182 289.545 104.182C289.903 104.182 290.221 104.098 290.499 103.93C290.781 103.763 291.001 103.533 291.16 103.24C291.322 102.945 291.403 102.611 291.403 102.239C291.403 101.858 291.319 101.518 291.151 101.22C290.987 100.919 290.759 100.682 290.469 100.509C290.18 100.335 289.849 100.247 289.477 100.244C289.21 100.241 288.935 100.283 288.654 100.368C288.373 100.45 288.141 100.557 287.96 100.688L286.971 100.568L287.499 96.2727H292.033V97.2102H288.386L288.079 99.7841H288.13C288.309 99.642 288.533 99.5241 288.803 99.4304C289.073 99.3366 289.354 99.2898 289.647 99.2898C290.181 99.2898 290.657 99.4176 291.075 99.6733C291.495 99.9261 291.825 100.273 292.063 100.713C292.305 101.153 292.425 101.656 292.425 102.222C292.425 102.778 292.3 103.276 292.05 103.713C291.803 104.148 291.462 104.491 291.028 104.744C290.593 104.994 290.099 105.119 289.545 105.119ZM293.914 103.21V102.341L297.749 96.2727H298.38V97.6193H297.953L295.056 102.205V102.273H300.221V103.21H293.914ZM298.022 105V102.946V102.541V96.2727H299.027V105H298.022Z" fill="white"/>
<path d="M136.423 21.918C136.423 22.1784 136.378 22.4453 136.287 22.7188C135.961 23.6302 135.213 24.2747 134.041 24.6523C134.353 24.6914 134.653 24.75 134.939 24.8281C136.515 25.2448 137.302 26.1758 137.302 27.6211C137.302 28.2721 137.107 28.8711 136.716 29.418C135.922 30.4727 134.633 31 132.849 31H126.17V30.4727H127.732V19.8086H126.17V19.2812H132.498C133.214 19.2812 133.852 19.3594 134.412 19.5156C135.753 19.9062 136.423 20.707 136.423 21.918ZM131.404 19.8086H130.466V24.3789H131.56C131.795 24.3789 132.016 24.3529 132.224 24.3008C133.136 24.0404 133.591 23.2982 133.591 22.0742C133.578 20.5898 132.849 19.8346 131.404 19.8086ZM132.068 24.9258H130.466V30.4727H131.775C131.944 30.4727 132.114 30.4596 132.283 30.4336C133.637 30.2383 134.314 29.2552 134.314 27.4844C134.314 27.0938 134.255 26.7292 134.138 26.3906C133.8 25.4141 133.11 24.9258 132.068 24.9258ZM142.315 30.4922C142.393 30.4922 142.465 30.4987 142.53 30.5117C142.699 30.5378 142.784 30.7005 142.784 31H137.979V30.4922C138.148 30.4922 138.298 30.4792 138.428 30.4531C138.884 30.375 139.112 30.0495 139.112 29.4766V23.1094H137.979V22.6016H141.592V30.4922H142.315ZM141.768 20.043C141.768 20.2904 141.703 20.5247 141.573 20.7461C141.299 21.2279 140.876 21.4688 140.303 21.4688C140.069 21.4688 139.841 21.4102 139.62 21.293C139.112 21.0326 138.858 20.6159 138.858 20.043C138.858 19.7956 138.916 19.5612 139.034 19.3398C139.32 18.832 139.743 18.5781 140.303 18.5781C140.551 18.5781 140.785 18.6432 141.006 18.7734C141.514 19.0469 141.768 19.4701 141.768 20.043ZM148.323 30.4922C148.402 30.4922 148.473 30.4987 148.538 30.5117C148.708 30.5378 148.792 30.7005 148.792 31H143.265V30.4922C143.434 30.4922 143.584 30.4792 143.714 30.4531C144.17 30.375 144.398 30.0495 144.398 29.4766V23.1094H143.265V22.6016H146.683L146.82 24.418C146.963 24.0534 147.171 23.7148 147.445 23.4023C148.057 22.7643 148.766 22.4453 149.573 22.4453C149.743 22.4453 149.905 22.4648 150.062 22.5039C150.7 22.6732 151.019 23.0833 151.019 23.7344C151.019 23.9167 150.98 24.0924 150.902 24.2617C150.68 24.7565 150.309 25.0039 149.788 25.0039C149.632 25.0039 149.489 24.9844 149.359 24.9453C149.085 24.8411 148.831 24.5807 148.597 24.1641C148.428 23.8646 148.271 23.7148 148.128 23.7148C148.05 23.7148 147.965 23.7344 147.874 23.7734C147.301 24.0729 146.969 24.9062 146.878 26.2734V30.4922H148.323ZM158.18 31L157.906 29.1641C157.841 29.3333 157.763 29.4961 157.672 29.6523C157.086 30.681 156.188 31.1953 154.977 31.1953C154.247 31.1953 153.583 30.974 152.984 30.5312C151.93 29.763 151.402 28.5716 151.402 26.957C151.402 25.6549 151.741 24.5742 152.418 23.7148C153.199 22.7643 154.208 22.2891 155.445 22.2891C156.37 22.2891 157.164 22.5755 157.828 23.1484V18.8125H156.051V18.3047H160.309V30.4727H161.207C161.298 30.4727 161.376 30.4792 161.441 30.4922C161.598 30.5312 161.676 30.7005 161.676 31H158.18ZM154.078 26.7227C154.078 27.2174 154.111 27.6667 154.176 28.0703C154.397 29.5547 154.964 30.2969 155.875 30.2969C156.148 30.2969 156.402 30.2253 156.637 30.082C157.457 29.5482 157.867 28.3047 157.867 26.3516C157.867 25.9089 157.841 25.4922 157.789 25.1016C157.568 23.6562 156.988 22.9336 156.051 22.9336C155.79 22.9336 155.543 22.9987 155.309 23.1289C154.488 23.6237 154.078 24.8216 154.078 26.7227ZM166.493 30.4922C166.571 30.4922 166.643 30.4987 166.708 30.5117C166.877 30.5378 166.962 30.7005 166.962 31H162.157V30.4922C162.326 30.4922 162.476 30.4792 162.606 30.4531C163.062 30.375 163.29 30.0495 163.29 29.4766V23.1094H162.157V22.6016H165.77V30.4922H166.493ZM165.946 20.043C165.946 20.2904 165.881 20.5247 165.751 20.7461C165.477 21.2279 165.054 21.4688 164.481 21.4688C164.247 21.4688 164.019 21.4102 163.798 21.293C163.29 21.0326 163.036 20.6159 163.036 20.043C163.036 19.7956 163.095 19.5612 163.212 19.3398C163.498 18.832 163.921 18.5781 164.481 18.5781C164.729 18.5781 164.963 18.6432 165.184 18.7734C165.692 19.0469 165.946 19.4701 165.946 20.043ZM172.013 22.8164C170.972 22.8555 170.405 23.9557 170.314 26.1172L171.564 26.1758C172.085 26.2018 172.476 26.1693 172.736 26.0781C173.101 25.9349 173.283 25.5573 173.283 24.9453C173.27 23.5521 172.847 22.8424 172.013 22.8164ZM175.666 28.9883C175.588 29.1966 175.483 29.3984 175.353 29.5938C174.689 30.6615 173.595 31.1953 172.072 31.1953C171.213 31.1953 170.444 31.0195 169.767 30.668C168.348 29.9258 167.638 28.6107 167.638 26.7227C167.638 25.5638 167.951 24.5938 168.576 23.8125C169.396 22.8099 170.542 22.3086 172.013 22.3086C172.821 22.3086 173.543 22.4453 174.181 22.7188C175.314 23.2266 175.88 24.0339 175.88 25.1406C175.88 25.362 175.841 25.5638 175.763 25.7461C175.425 26.4753 174.207 26.8073 172.111 26.7422L170.314 26.6836C170.327 27.4388 170.392 28.0898 170.509 28.6367C170.809 29.9648 171.479 30.6289 172.521 30.6289C172.847 30.6289 173.166 30.5703 173.478 30.4531C174.259 30.1667 174.832 29.6263 175.197 28.832L175.666 28.9883ZM190.202 21.918C190.202 22.1784 190.157 22.4453 190.066 22.7188C189.74 23.6302 188.991 24.2747 187.82 24.6523C188.132 24.6914 188.432 24.75 188.718 24.8281C190.293 25.2448 191.081 26.1758 191.081 27.6211C191.081 28.2721 190.886 28.8711 190.495 29.418C189.701 30.4727 188.412 31 186.628 31H179.948V30.4727H181.511V19.8086H179.948V19.2812H186.277C186.993 19.2812 187.631 19.3594 188.191 19.5156C189.532 19.9062 190.202 20.707 190.202 21.918ZM185.183 19.8086H184.245V24.3789H185.339C185.573 24.3789 185.795 24.3529 186.003 24.3008C186.915 24.0404 187.37 23.2982 187.37 22.0742C187.357 20.5898 186.628 19.8346 185.183 19.8086ZM185.847 24.9258H184.245V30.4727H185.554C185.723 30.4727 185.892 30.4596 186.062 30.4336C187.416 30.2383 188.093 29.2552 188.093 27.4844C188.093 27.0938 188.034 26.7292 187.917 26.3906C187.579 25.4141 186.889 24.9258 185.847 24.9258ZM201.387 30.4922C201.478 30.4922 201.556 30.4987 201.621 30.5117C201.777 30.5508 201.855 30.7135 201.855 31H198.379L198.281 29.3984C198.242 29.4766 198.203 29.5547 198.164 29.6328C197.552 30.6745 196.66 31.1953 195.488 31.1953C193.652 31.1823 192.721 30.1211 192.695 28.0117V23.1094H191.562V22.6016H195.176V28.3438C195.176 28.526 195.189 28.7018 195.215 28.8711C195.345 29.7435 195.781 30.1797 196.523 30.1797C196.719 30.1797 196.914 30.1341 197.109 30.043C197.76 29.7174 198.132 29.0469 198.223 28.0312L198.242 23.1094H197.285V22.6016H200.723V30.4922H201.387ZM209.309 31L209.036 29.1641C208.971 29.3333 208.893 29.4961 208.802 29.6523C208.216 30.681 207.317 31.1953 206.106 31.1953C205.377 31.1953 204.713 30.974 204.114 30.5312C203.059 29.763 202.532 28.5716 202.532 26.957C202.532 25.6549 202.871 24.5742 203.548 23.7148C204.329 22.7643 205.338 22.2891 206.575 22.2891C207.499 22.2891 208.294 22.5755 208.958 23.1484V18.8125H207.18V18.3047H211.438V30.4727H212.337C212.428 30.4727 212.506 30.4792 212.571 30.4922C212.727 30.5312 212.805 30.7005 212.805 31H209.309ZM205.208 26.7227C205.208 27.2174 205.24 27.6667 205.305 28.0703C205.527 29.5547 206.093 30.2969 207.005 30.2969C207.278 30.2969 207.532 30.2253 207.766 30.082C208.587 29.5482 208.997 28.3047 208.997 26.3516C208.997 25.9089 208.971 25.4922 208.919 25.1016C208.697 23.6562 208.118 22.9336 207.18 22.9336C206.92 22.9336 206.673 22.9987 206.438 23.1289C205.618 23.6237 205.208 24.8216 205.208 26.7227ZM220.162 31L219.888 29.1641C219.823 29.3333 219.745 29.4961 219.654 29.6523C219.068 30.681 218.17 31.1953 216.959 31.1953C216.229 31.1953 215.565 30.974 214.966 30.5312C213.912 29.763 213.384 28.5716 213.384 26.957C213.384 25.6549 213.723 24.5742 214.4 23.7148C215.181 22.7643 216.19 22.2891 217.427 22.2891C218.352 22.2891 219.146 22.5755 219.81 23.1484V18.8125H218.033V18.3047H222.291V30.4727H223.189C223.28 30.4727 223.358 30.4792 223.423 30.4922C223.58 30.5312 223.658 30.7005 223.658 31H220.162ZM216.06 26.7227C216.06 27.2174 216.093 27.6667 216.158 28.0703C216.379 29.5547 216.946 30.2969 217.857 30.2969C218.13 30.2969 218.384 30.2253 218.619 30.082C219.439 29.5482 219.849 28.3047 219.849 26.3516C219.849 25.9089 219.823 25.4922 219.771 25.1016C219.55 23.6562 218.97 22.9336 218.033 22.9336C217.772 22.9336 217.525 22.9987 217.291 23.1289C216.47 23.6237 216.06 24.8216 216.06 26.7227ZM226.19 34.125C226.32 34.125 226.457 34.099 226.6 34.0469C227.173 33.8385 227.772 32.9596 228.397 31.4102L224.588 23.0898H223.768V22.6016H228.358V23.0898H227.166L229.53 28.5391L231.659 23.0898H230.194V22.6016H233.221C233.221 22.6667 233.215 22.7318 233.202 22.7969C233.176 22.9922 233.019 23.0898 232.733 23.0898C232.524 23.1159 232.31 23.3047 232.088 23.6562L229.159 31.2539C228.911 31.9049 228.651 32.4583 228.377 32.9141C227.661 34.1771 226.756 34.8086 225.662 34.8086C225.181 34.8086 224.758 34.7109 224.393 34.5156C223.872 34.2422 223.612 33.8906 223.612 33.4609C223.612 33.3698 223.625 33.2721 223.651 33.168C223.781 32.7643 224.08 32.5625 224.549 32.5625C224.771 32.5625 224.966 32.6211 225.135 32.7383C225.278 32.8555 225.441 33.1419 225.623 33.5977C225.767 33.9492 225.955 34.125 226.19 34.125Z" fill="white" fill-opacity="0.8"/>
</svg>
