<svg width="70" height="12" viewBox="0 0 70 12" fill="none" xmlns="http://www.w3.org/2000/svg">
<path d="M7.00023 3.09668C7.00023 3.26595 6.97061 3.43945 6.91137 3.61719C6.69978 4.20964 6.21312 4.62858 5.4514 4.87402C5.65453 4.89941 5.84919 4.9375 6.03539 4.98828C7.05948 5.25911 7.57152 5.86426 7.57152 6.80371C7.57152 7.22689 7.44457 7.61621 7.19066 7.97168C6.67439 8.65723 5.8365 9 4.67699 9H0.335194V8.65723H1.35082V1.72559H0.335194V1.38281H4.44847C4.91397 1.38281 5.32868 1.43359 5.69262 1.53516C6.56436 1.78906 7.00023 2.30957 7.00023 3.09668ZM3.73754 1.72559H3.12816V4.69629H3.8391C3.99144 4.69629 4.13532 4.67936 4.27074 4.64551C4.86319 4.47624 5.15941 3.99382 5.15941 3.19824C5.15095 2.2334 4.67699 1.74251 3.73754 1.72559ZM4.16918 5.05176H3.12816V8.65723H3.97875C4.08877 8.65723 4.1988 8.64876 4.30883 8.63184C5.18903 8.50488 5.62914 7.86589 5.62914 6.71484C5.62914 6.46094 5.59105 6.22396 5.51488 6.00391C5.29483 5.36914 4.84626 5.05176 4.16918 5.05176ZM10.8296 8.66992C10.8804 8.66992 10.927 8.67415 10.9693 8.68262C11.0793 8.69954 11.1343 8.80534 11.1343 9H8.01129V8.66992C8.12131 8.66992 8.21864 8.66146 8.30328 8.64453C8.5995 8.59375 8.74762 8.38216 8.74762 8.00977V3.87109H8.01129V3.54102H10.3599V8.66992H10.8296ZM10.4742 1.87793C10.4742 2.03874 10.4319 2.19108 10.3472 2.33496C10.1695 2.64811 9.89443 2.80469 9.52203 2.80469C9.36969 2.80469 9.22157 2.7666 9.07769 2.69043C8.74762 2.52116 8.58258 2.25033 8.58258 1.87793C8.58258 1.71712 8.62066 1.56478 8.69683 1.4209C8.88303 1.09082 9.1581 0.925781 9.52203 0.925781C9.68284 0.925781 9.83518 0.968099 9.97906 1.05273C10.3091 1.23047 10.4742 1.50553 10.4742 1.87793ZM14.7352 8.66992C14.786 8.66992 14.8326 8.67415 14.8749 8.68262C14.9849 8.69954 15.0399 8.80534 15.0399 9H11.4471V8.66992C11.5572 8.66992 11.6545 8.66146 11.7391 8.64453C12.0354 8.59375 12.1835 8.38216 12.1835 8.00977V3.87109H11.4471V3.54102H13.6688L13.7577 4.72168C13.8508 4.4847 13.9862 4.26465 14.1639 4.06152C14.5617 3.64681 15.023 3.43945 15.5477 3.43945C15.6578 3.43945 15.7636 3.45215 15.8651 3.47754C16.2798 3.58757 16.4872 3.85417 16.4872 4.27734C16.4872 4.39583 16.4618 4.51009 16.411 4.62012C16.2671 4.94173 16.0259 5.10254 15.6874 5.10254C15.5858 5.10254 15.4927 5.08984 15.4081 5.06445C15.2304 4.99674 15.0653 4.82747 14.913 4.55664C14.8029 4.36198 14.7014 4.26465 14.6083 4.26465C14.5575 4.26465 14.5025 4.27734 14.4432 4.30273C14.0708 4.4974 13.855 5.03906 13.7958 5.92773V8.66992H14.7352ZM21.1418 9L20.9641 7.80664C20.9217 7.91667 20.871 8.02246 20.8117 8.12402C20.4309 8.79264 19.8469 9.12695 19.0598 9.12695C18.5858 9.12695 18.1542 8.98307 17.7648 8.69531C17.0793 8.19596 16.7365 7.42155 16.7365 6.37207C16.7365 5.52572 16.9566 4.82324 17.3967 4.26465C17.9045 3.64681 18.5604 3.33789 19.3645 3.33789C19.9654 3.33789 20.4816 3.52409 20.9133 3.89648V1.07812H19.758V0.748047H22.5256V8.65723H23.1096C23.1688 8.65723 23.2196 8.66146 23.2619 8.66992C23.3635 8.69531 23.4143 8.80534 23.4143 9H21.1418ZM18.4758 6.21973C18.4758 6.54134 18.4969 6.83333 18.5393 7.0957C18.6831 8.06055 19.0513 8.54297 19.6437 8.54297C19.8215 8.54297 19.9865 8.49642 20.1389 8.40332C20.6721 8.05632 20.9387 7.24805 20.9387 5.97852C20.9387 5.69076 20.9217 5.41992 20.8879 5.16602C20.744 4.22656 20.3674 3.75684 19.758 3.75684C19.5887 3.75684 19.4279 3.79915 19.2756 3.88379C18.7424 4.2054 18.4758 4.98405 18.4758 6.21973ZM26.5454 8.66992C26.5962 8.66992 26.6428 8.67415 26.6851 8.68262C26.7951 8.69954 26.8501 8.80534 26.8501 9H23.7271V8.66992C23.8371 8.66992 23.9344 8.66146 24.0191 8.64453C24.3153 8.59375 24.4634 8.38216 24.4634 8.00977V3.87109H23.7271V3.54102H26.0757V8.66992H26.5454ZM26.19 1.87793C26.19 2.03874 26.1476 2.19108 26.063 2.33496C25.8853 2.64811 25.6102 2.80469 25.2378 2.80469C25.0855 2.80469 24.9374 2.7666 24.7935 2.69043C24.4634 2.52116 24.2984 2.25033 24.2984 1.87793C24.2984 1.71712 24.3364 1.56478 24.4126 1.4209C24.5988 1.09082 24.8739 0.925781 25.2378 0.925781C25.3986 0.925781 25.551 0.968099 25.6948 1.05273C26.0249 1.23047 26.19 1.50553 26.19 1.87793ZM30.1336 3.68066C29.4565 3.70605 29.0884 4.42122 29.0291 5.82617L29.8416 5.86426C30.1802 5.88118 30.4341 5.86003 30.6034 5.80078C30.8403 5.70768 30.9588 5.46224 30.9588 5.06445C30.9504 4.15885 30.6753 3.69759 30.1336 3.68066ZM32.5077 7.69238C32.4569 7.8278 32.3892 7.95898 32.3045 8.08594C31.8729 8.77995 31.1619 9.12695 30.1717 9.12695C29.6131 9.12695 29.1138 9.0127 28.6737 8.78418C27.7511 8.30176 27.2899 7.44694 27.2899 6.21973C27.2899 5.46647 27.493 4.83594 27.8993 4.32812C28.4325 3.67643 29.1772 3.35059 30.1336 3.35059C30.6584 3.35059 31.1281 3.43945 31.5428 3.61719C32.2791 3.94727 32.6473 4.47201 32.6473 5.19141C32.6473 5.33529 32.6219 5.46647 32.5711 5.58496C32.3511 6.05892 31.5597 6.27474 30.1971 6.23242L29.0291 6.19434C29.0376 6.68522 29.0799 7.1084 29.1561 7.46387C29.3508 8.32715 29.7866 8.75879 30.4637 8.75879C30.6753 8.75879 30.8827 8.7207 31.0858 8.64453C31.5936 8.45833 31.966 8.1071 32.203 7.59082L32.5077 7.69238ZM41.9565 3.09668C41.9565 3.26595 41.9269 3.43945 41.8677 3.61719C41.6561 4.20964 41.1694 4.62858 40.4077 4.87402C40.6108 4.89941 40.8055 4.9375 40.9917 4.98828C42.0158 5.25911 42.5278 5.86426 42.5278 6.80371C42.5278 7.22689 42.4009 7.61621 42.1469 7.97168C41.6307 8.65723 40.7928 9 39.6333 9H35.2915V8.65723H36.3071V1.72559H35.2915V1.38281H39.4048C39.8703 1.38281 40.285 1.43359 40.6489 1.53516C41.5206 1.78906 41.9565 2.30957 41.9565 3.09668ZM38.6938 1.72559H38.0844V4.69629H38.7954C38.9477 4.69629 39.0916 4.67936 39.227 4.64551C39.8195 4.47624 40.1157 3.99382 40.1157 3.19824C40.1072 2.2334 39.6333 1.74251 38.6938 1.72559ZM39.1255 5.05176H38.0844V8.65723H38.935C39.0451 8.65723 39.1551 8.64876 39.2651 8.63184C40.1453 8.50488 40.5854 7.86589 40.5854 6.71484C40.5854 6.46094 40.5473 6.22396 40.4712 6.00391C40.2511 5.36914 39.8025 5.05176 39.1255 5.05176ZM49.2264 8.66992C49.2856 8.66992 49.3364 8.67415 49.3787 8.68262C49.4803 8.70801 49.5311 8.8138 49.5311 9H47.2713L47.2078 7.95898C47.1824 8.00977 47.157 8.06055 47.1316 8.11133C46.7339 8.78841 46.1541 9.12695 45.3924 9.12695C44.199 9.11849 43.5939 8.42871 43.577 7.05762V3.87109H42.8406V3.54102H45.1893V7.27344C45.1893 7.39193 45.1977 7.50618 45.2146 7.61621C45.2993 8.18327 45.5828 8.4668 46.0652 8.4668C46.1922 8.4668 46.3191 8.43717 46.4461 8.37793C46.8693 8.16634 47.1105 7.73047 47.1697 7.07031L47.1824 3.87109H46.5603V3.54102H48.7947V8.66992H49.2264ZM54.3761 9L54.1984 7.80664C54.156 7.91667 54.1053 8.02246 54.046 8.12402C53.6652 8.79264 53.0812 9.12695 52.2941 9.12695C51.8201 9.12695 51.3885 8.98307 50.9991 8.69531C50.3136 8.19596 49.9708 7.42155 49.9708 6.37207C49.9708 5.52572 50.1909 4.82324 50.631 4.26465C51.1388 3.64681 51.7947 3.33789 52.5987 3.33789C53.1997 3.33789 53.7159 3.52409 54.1476 3.89648V1.07812H52.9923V0.748047H55.7599V8.65723H56.3439C56.4031 8.65723 56.4539 8.66146 56.4962 8.66992C56.5978 8.69531 56.6486 8.80534 56.6486 9H54.3761ZM51.7101 6.21973C51.7101 6.54134 51.7312 6.83333 51.7736 7.0957C51.9174 8.06055 52.2856 8.54297 52.878 8.54297C53.0558 8.54297 53.2208 8.49642 53.3732 8.40332C53.9064 8.05632 54.173 7.24805 54.173 5.97852C54.173 5.69076 54.156 5.41992 54.1222 5.16602C53.9783 4.22656 53.6017 3.75684 52.9923 3.75684C52.823 3.75684 52.6622 3.79915 52.5099 3.88379C51.9767 4.2054 51.7101 4.98405 51.7101 6.21973ZM61.4301 9L61.2524 7.80664C61.2101 7.91667 61.1593 8.02246 61.1 8.12402C60.7192 8.79264 60.1352 9.12695 59.3481 9.12695C58.8741 9.12695 58.4425 8.98307 58.0532 8.69531C57.3676 8.19596 57.0248 7.42155 57.0248 6.37207C57.0248 5.52572 57.2449 4.82324 57.685 4.26465C58.1928 3.64681 58.8487 3.33789 59.6528 3.33789C60.2537 3.33789 60.77 3.52409 61.2016 3.89648V1.07812H60.0463V0.748047H62.8139V8.65723H63.3979C63.4571 8.65723 63.5079 8.66146 63.5502 8.66992C63.6518 8.69531 63.7026 8.80534 63.7026 9H61.4301ZM58.7641 6.21973C58.7641 6.54134 58.7853 6.83333 58.8276 7.0957C58.9715 8.06055 59.3396 8.54297 59.9321 8.54297C60.1098 8.54297 60.2748 8.49642 60.4272 8.40332C60.9604 8.05632 61.227 7.24805 61.227 5.97852C61.227 5.69076 61.2101 5.41992 61.1762 5.16602C61.0323 4.22656 60.6557 3.75684 60.0463 3.75684C59.8771 3.75684 59.7162 3.79915 59.5639 3.88379C59.0307 4.2054 58.7641 4.98405 58.7641 6.21973ZM65.3484 11.0312C65.433 11.0312 65.5219 11.0143 65.615 10.9805C65.9874 10.8451 66.3767 10.2738 66.783 9.2666L64.3074 3.8584H63.7742V3.54102H66.7576V3.8584H65.9832L67.5193 7.40039L68.9031 3.8584H67.9509V3.54102H69.9187C69.9187 3.58333 69.9145 3.62565 69.906 3.66797C69.8891 3.79492 69.7875 3.8584 69.6013 3.8584C69.4659 3.87533 69.3263 3.99805 69.1824 4.22656L67.2781 9.16504C67.1173 9.58822 66.948 9.94792 66.7703 10.2441C66.3048 11.0651 65.7166 11.4756 65.0056 11.4756C64.6925 11.4756 64.4174 11.4121 64.1804 11.2852C63.8419 11.1074 63.6726 10.8789 63.6726 10.5996C63.6726 10.5404 63.6811 10.4769 63.698 10.4092C63.7826 10.1468 63.9773 10.0156 64.282 10.0156C64.4259 10.0156 64.5528 10.0537 64.6628 10.1299C64.7559 10.2061 64.8617 10.3923 64.9802 10.6885C65.0733 10.917 65.1961 11.0312 65.3484 11.0312Z" fill="#B9B9B9"/>
</svg>
