<svg width="12" height="11" viewBox="0 0 12 11" fill="none" xmlns="http://www.w3.org/2000/svg">
<path d="M1.2 1.2H3L4.2 0H7.8L9 1.2H10.8C11.1183 1.2 11.4235 1.32643 11.6485 1.55147C11.8736 1.77652 12 2.08174 12 2.4V9.6C12 9.91826 11.8736 10.2235 11.6485 10.4485C11.4235 10.6736 11.1183 10.8 10.8 10.8H1.2C0.88174 10.8 0.576515 10.6736 0.351472 10.4485C0.126428 10.2235 0 9.91826 0 9.6V2.4C0 2.08174 0.126428 1.77652 0.351472 1.55147C0.576515 1.32643 0.88174 1.2 1.2 1.2ZM6 3C5.20435 3 4.44129 3.31607 3.87868 3.87868C3.31607 4.44129 3 5.20435 3 6C3 6.79565 3.31607 7.55871 3.87868 8.12132C4.44129 8.68393 5.20435 9 6 9C6.79565 9 7.55871 8.68393 8.12132 8.12132C8.68393 7.55871 9 6.79565 9 6C9 5.20435 8.68393 4.44129 8.12132 3.87868C7.55871 3.31607 6.79565 3 6 3ZM6 4.2C6.47739 4.2 6.93523 4.38964 7.27279 4.72721C7.61036 5.06477 7.8 5.52261 7.8 6C7.8 6.47739 7.61036 6.93523 7.27279 7.27279C6.93523 7.61036 6.47739 7.8 6 7.8C5.52261 7.8 5.06477 7.61036 4.72721 7.27279C4.38964 6.93523 4.2 6.47739 4.2 6C4.2 5.52261 4.38964 5.06477 4.72721 4.72721C5.06477 4.38964 5.52261 4.2 6 4.2Z" fill="white"/>
</svg>
