<svg width="26" height="27" viewBox="0 0 26 27" fill="none" xmlns="http://www.w3.org/2000/svg">
<path d="M18.7325 25.5722H6.26751C2.93718 25.5722 0.820036 23.5859 0.629731 20.2675L0.0112407 10.4549C-0.0839117 8.96811 0.427532 7.54083 1.45042 6.45847C2.46142 5.37611 3.8887 4.75762 5.36356 4.75762C5.74417 4.75762 6.11289 4.53163 6.2913 4.17481L7.14767 2.47396C7.84942 1.08236 9.60973 0 11.1441 0H13.8678C15.4022 0 17.1506 1.08236 17.8523 2.46207L18.7087 4.1986C18.8871 4.53163 19.2439 4.75762 19.6364 4.75762C21.1113 4.75762 22.5386 5.37611 23.5496 6.45847C24.5725 7.55272 25.0839 8.96811 24.9888 10.4549L24.3703 20.2794C24.1562 23.6454 22.0985 25.5722 18.7325 25.5722ZM11.1441 1.78411C10.2639 1.78411 9.14587 2.47396 8.74147 3.27086L7.8851 4.98361C7.38555 5.94703 6.42213 6.54173 5.36356 6.54173C4.36446 6.54173 3.43672 6.94613 2.74687 7.67166C2.06891 8.3972 1.72398 9.34872 1.79535 10.3359L2.41384 20.1604C2.55656 22.563 3.85302 23.7881 6.26751 23.7881H18.7325C21.1351 23.7881 22.4315 22.563 22.5862 20.1604L23.2047 10.3359C23.2641 9.34872 22.9311 8.3972 22.2531 7.67166C21.5633 6.94613 20.6355 6.54173 19.6364 6.54173C18.5779 6.54173 17.6144 5.94703 17.1149 5.0074L16.2466 3.27086C15.8541 2.48586 14.7361 1.796 13.8559 1.796H11.1441V1.78411Z" fill="#0B4648"/>
<path d="M14.2806 8.92034H10.7124C10.2247 8.92034 9.82031 8.51594 9.82031 8.02828C9.82031 7.54063 10.2247 7.13623 10.7124 7.13623H14.2806C14.7682 7.13623 15.1726 7.54063 15.1726 8.02828C15.1726 8.51594 14.7682 8.92034 14.2806 8.92034Z" fill="#0B4648"/>
<path d="M12.4998 20.8146C9.87122 20.8146 7.74219 18.6855 7.74219 16.0569C7.74219 13.4284 9.87122 11.2993 12.4998 11.2993C15.1284 11.2993 17.2574 13.4284 17.2574 16.0569C17.2574 18.6855 15.1284 20.8146 12.4998 20.8146ZM12.4998 13.0834C10.8584 13.0834 9.5263 14.4156 9.5263 16.0569C9.5263 17.6983 10.8584 19.0305 12.4998 19.0305C14.1412 19.0305 15.4733 17.6983 15.4733 16.0569C15.4733 14.4156 14.1412 13.0834 12.4998 13.0834Z" fill="#0B4648"/>
</svg>
