<svg width="20" height="20" viewBox="0 0 20 20" fill="none" xmlns="http://www.w3.org/2000/svg">
<rect width="20" height="20" rx="3" fill="#48685E"/>
<path d="M5.2 6.2H7L8.2 5H11.8L13 6.2H14.8C15.1183 6.2 15.4235 6.32643 15.6485 6.55147C15.8736 6.77652 16 7.08174 16 7.4V14.6C16 14.9183 15.8736 15.2235 15.6485 15.4485C15.4235 15.6736 15.1183 15.8 14.8 15.8H5.2C4.88174 15.8 4.57652 15.6736 4.35147 15.4485C4.12643 15.2235 4 14.9183 4 14.6V7.4C4 7.08174 4.12643 6.77652 4.35147 6.55147C4.57652 6.32643 4.88174 6.2 5.2 6.2ZM10.654 8.87L9.43 10.508L10.36 11.75L9.838 12.146L8.362 10.184L6.4 12.8H13.6L10.654 8.87Z" fill="white"/>
</svg>
