<svg width="16" height="17" viewBox="0 0 16 17" fill="none" xmlns="http://www.w3.org/2000/svg">
    <path d="M8 16.5333C12.4183 16.5333 16 15.0648 16 13.2533C16 11.4418 12.4183 9.97327 8 9.97327C3.58172 9.97327 0 11.4418 0 13.2533C0 15.0648 3.58172 16.5333 8 16.5333Z" fill="#97B113"/>
    <path opacity="0.3" d="M6.93336 12.5333C6.93336 12.5333 7.73336 10.7733 8.42669 9.97327H8.18669C8.18669 9.97327 6.93336 11.4933 6.40002 12.4533L6.93336 12.5333Z" fill="#1E1E1E"/>
    <path d="M6.55999 14.4C7.84129 14.4 8.87999 13.9583 8.87999 13.4134C8.87999 12.8684 7.84129 12.4267 6.55999 12.4267C5.27869 12.4267 4.23999 12.8684 4.23999 13.4134C4.23999 13.9583 5.27869 14.4 6.55999 14.4Z" fill="#C7C7C7"/>
    <path d="M6.55999 12.8534C7.67999 12.8534 8.61332 13.1734 8.82666 13.6267C8.85332 13.5467 8.87999 13.4934 8.87999 13.4134C8.87999 12.88 7.83999 12.4267 6.55999 12.4267C5.27999 12.4267 4.23999 12.8534 4.23999 13.4134C4.23999 13.4934 4.26666 13.5467 4.29332 13.6267C4.53332 13.2 5.43999 12.8534 6.55999 12.8534Z" fill="#3D2905"/>
    <path d="M11.4666 2.48C11.2266 2.34667 7.25329 0.293333 6.66663 0V5.52C7.25329 5.22667 11.2266 3.17333 11.4666 3.04C11.6533 2.96 11.6533 2.58667 11.4666 2.48Z" fill="#ED4C5C"/>
    <path opacity="0.5" d="M6.93333 14.3733C6.93333 14.3733 6.69333 14.4 6.29333 14.4V12.48H6.93333V14.3733Z" fill="#1E1E1E"/>
    <path d="M6.1333 0H6.66663V14.4H6.1333V0Z" fill="#D3976E"/>
    <path d="M6.1333 13.92H6.66663V14.4H6.1333V13.92Z" fill="#89664C"/>
</svg>
