<svg width="16" height="17" viewBox="0 0 16 17" fill="none" xmlns="http://www.w3.org/2000/svg">
<path d="M8 16.5333C12.4183 16.5333 16 15.0648 16 13.2533C16 11.4418 12.4183 9.97327 8 9.97327C3.58172 9.97327 0 11.4418 0 13.2533C0 15.0648 3.58172 16.5333 8 16.5333Z" fill="#97B113"/>
<path opacity="0.3" d="M6.93372 12.5333C6.93372 12.5333 7.73372 10.7733 8.42706 9.97327H8.18706C8.18706 9.97327 6.93372 11.4933 6.40039 12.4533L6.93372 12.5333Z" fill="#1E1E1E"/>
<path d="M6.56023 14.4C7.84153 14.4 8.88023 13.9582 8.88023 13.4133C8.88023 12.8684 7.84153 12.4266 6.56023 12.4266C5.27893 12.4266 4.24023 12.8684 4.24023 13.4133C4.24023 13.9582 5.27893 14.4 6.56023 14.4Z" fill="#C7C7C7"/>
<path d="M6.56023 12.8533C7.68023 12.8533 8.61357 13.1733 8.8269 13.6266C8.85357 13.5466 8.88023 13.4933 8.88023 13.4133C8.88023 12.88 7.84023 12.4266 6.56023 12.4266C5.28023 12.4266 4.24023 12.8533 4.24023 13.4133C4.24023 13.4933 4.2669 13.5466 4.29357 13.6266C4.53357 13.2 5.44023 12.8533 6.56023 12.8533Z" fill="#3D2905"/>
<path d="M11.467 2.48C11.227 2.34667 7.25366 0.293333 6.66699 0V5.52C7.25366 5.22667 11.227 3.17333 11.467 3.04C11.6537 2.96 11.6537 2.58667 11.467 2.48Z" fill="#ED4C5C"/>
<path opacity="0.5" d="M6.93297 14.3733C6.93297 14.3733 6.69297 14.4 6.29297 14.4V12.48H6.93297V14.3733Z" fill="#1E1E1E"/>
<path d="M6.13379 0H6.66712V14.4H6.13379V0Z" fill="#D3976E"/>
<path d="M6.13379 13.92H6.66712V14.4H6.13379V13.92Z" fill="#89664C"/>
</svg>
