<svg width="20" height="21" viewBox="0 0 20 21" fill="none" xmlns="http://www.w3.org/2000/svg">
    <path d="M18.6024 12.5183L15.922 10.7644L16.954 8.87238C17.2029 8.39994 17.3333 7.8741 17.334 7.3401V4.34068C17.3361 3.49731 17.0918 2.67169 16.6312 1.9652C16.1706 1.25871 15.5137 0.702117 14.7412 0.363758C13.9687 0.0253996 13.1141 -0.0799913 12.2826 0.0605268C11.451 0.201045 10.6785 0.581355 10.0601 1.15476L10.966 2.13277C11.3946 1.73655 11.9294 1.47398 12.505 1.37726C13.0806 1.28053 13.6719 1.35387 14.2064 1.58826C14.7409 1.82265 15.1954 2.20792 15.5142 2.69683C15.8329 3.18574 16.0021 3.75703 16.0009 4.34068V7.3401C16.0008 7.65104 15.9263 7.95745 15.7837 8.23376L14.1625 11.206L17.8725 13.6336C18.1174 13.7939 18.3184 14.0128 18.4572 14.2705C18.5959 14.5282 18.6681 14.8165 18.6671 15.1092V17.3382H15.6677V18.6712H20.0002V15.1092C20.0015 14.595 19.8744 14.0887 19.6303 13.6363C19.3861 13.1838 19.0328 12.7995 18.6024 12.5183Z" fill="black"/>
    <path d="M12.6034 13.8513L9.92299 12.0975L10.955 10.2055C11.2039 9.73303 11.3343 9.20719 11.335 8.67318V5.67377C11.3341 4.52409 10.8773 3.42169 10.0647 2.60843C9.25203 1.79516 8.14999 1.33745 7.00031 1.33569C4.61256 1.33569 2.67002 3.28177 2.67002 5.67377V8.67318C2.66748 9.20694 2.79646 9.73311 3.04557 10.2052L4.08321 12.1075L1.41835 13.8513C0.988438 14.1321 0.635441 14.5158 0.391392 14.9675C0.147344 15.4193 0.01997 15.9249 0.0208293 16.4383L0 20.0043H14.0012V16.4423C14.0025 15.9281 13.8753 15.4218 13.6312 14.9693C13.3871 14.5169 13.0338 14.1326 12.6034 13.8513ZM12.6681 18.6712H1.34082L1.35374 16.4423C1.35273 16.1496 1.42489 15.8613 1.56365 15.6036C1.70241 15.3459 1.90338 15.1269 2.14829 14.9667L5.84266 12.5493L4.21585 9.56684C4.07482 9.29013 4.00188 8.98376 4.0031 8.67318V5.67377C4.0031 4.87827 4.31911 4.11536 4.88161 3.55286C5.44411 2.99036 6.20702 2.67435 7.00251 2.67435C7.79801 2.67435 8.56092 2.99036 9.12342 3.55286C9.68592 4.11536 10.0019 4.87827 10.0019 5.67377V8.67318C10.0018 8.98413 9.92731 9.29054 9.78468 9.56684L8.1635 12.5391L11.8735 14.9667C12.1184 15.127 12.3194 15.3459 12.4582 15.6036C12.5969 15.8613 12.6691 16.1496 12.6681 16.4423V18.6712Z" fill="black"/>
</svg>
