<svg width="21" height="19" viewBox="0 0 21 19" fill="none" xmlns="http://www.w3.org/2000/svg">
<path d="M10.5855 0C12.4376 0 14.1506 0.351885 15.7246 1.05565C17.2985 1.75942 18.5428 2.71641 19.4574 3.9266C20.372 5.13674 20.8294 6.45678 20.8294 7.88668C20.8294 9.31654 20.372 10.6384 19.4574 11.8524C18.5428 13.0663 17.3004 14.0251 15.7303 14.7289C14.1601 15.4326 12.4452 15.7845 10.5855 15.7845C9.99857 15.7845 9.3926 15.7435 8.76762 15.6617C6.05419 17.5011 4.60986 18.432 4.43455 18.4544C4.3507 18.4842 4.27065 18.4804 4.19444 18.4432C4.16394 18.4209 4.14109 18.3911 4.12584 18.3538C4.11059 18.3166 4.10299 18.2831 4.10299 18.2533V18.2086C4.14874 17.9181 4.49551 16.708 5.14339 14.5781C3.67235 13.8631 2.50428 12.9155 1.63919 11.7351C0.774099 10.5547 0.341553 9.27188 0.341553 7.88668C0.341553 6.45678 0.79887 5.13674 1.7135 3.9266C2.62814 2.71641 3.87242 1.75942 5.44635 1.05565C7.02028 0.351885 8.73332 0 10.5855 0Z" fill="black"/>
</svg>
