<svg width="228" height="43" viewBox="0 0 228 43" fill="none" xmlns="http://www.w3.org/2000/svg">
    <g filter="url(#filter0_d_497_156)">
        <path d="M4.1 28V6.61L22.16 6.55C24.54 6.55 26.3 7.05 27.44 8.05C28.6 9.03 29.18 10.51 29.18 12.49C29.18 14.47 28.52 15.92 27.2 16.84C28.08 17.32 28.73 17.96 29.15 18.76C29.57 19.54 29.78 20.55 29.78 21.79C29.78 23.81 29.2 25.35 28.04 26.41C26.9 27.45 25.14 27.97 22.76 27.97L4.1 28ZM21.59 10.39H8.9V15.19H21.59C23.41 15.19 24.32 14.37 24.32 12.73C24.32 11.17 23.41 10.39 21.59 10.39ZM22.19 19.03H8.9V24.13H22.19C24.01 24.13 24.92 23.27 24.92 21.55C24.92 19.87 24.01 19.03 22.19 19.03ZM32.1746 28V12.55H36.5246V28H32.1746ZM32.1446 10V6.61H36.5546V10H32.1446ZM39.3711 28V12.55H51.1911C52.9311 12.55 54.2111 12.99 55.0311 13.87C55.8511 14.73 56.2611 15.87 56.2611 17.29V20.5H51.8511V17.83C51.8511 16.63 51.2511 16.03 50.0511 16.03H43.7811V28H39.3711ZM77.8044 28H73.4544V6.55H77.8044V28ZM77.0544 28H66.7044C64.0244 28 61.9344 27.34 60.4344 26.02C58.9344 24.7 58.1844 22.79 58.1844 20.29C58.1844 17.77 58.9344 15.85 60.4344 14.53C61.9344 13.21 64.0244 12.55 66.7044 12.55H76.7544V16H66.7044C65.4044 16 64.4044 16.36 63.7044 17.08C63.0244 17.78 62.6844 18.85 62.6844 20.29C62.6844 21.71 63.0244 22.78 63.7044 23.5C64.4044 24.2 65.4044 24.55 66.7044 24.55H77.0544V28ZM80.6586 28V12.55H85.0086V28H80.6586ZM80.6286 10V6.61H85.0386V10H80.6286ZM95.7751 28.15C93.0951 28.15 91.0051 27.49 89.5051 26.17C88.0051 24.83 87.2551 22.87 87.2551 20.29C87.2551 17.69 88.0051 15.73 89.5051 14.41C91.0051 13.07 93.0951 12.4 95.7751 12.4H103.275C105.035 12.4 106.375 12.82 107.295 13.66C108.235 14.48 108.705 15.66 108.705 17.2C108.705 20.34 106.895 21.91 103.275 21.91H91.9351C92.3551 23.77 93.6351 24.7 95.7751 24.7H107.925V28.15H95.7751ZM95.7751 15.85C93.7151 15.85 92.4451 16.72 91.9651 18.46H103.065C103.465 18.46 103.775 18.34 103.995 18.1C104.235 17.86 104.355 17.53 104.355 17.11C104.355 16.27 103.925 15.85 103.065 15.85H95.7751ZM111.41 28V6.61L129.47 6.55C131.85 6.55 133.61 7.05 134.75 8.05C135.91 9.03 136.49 10.51 136.49 12.49C136.49 14.47 135.83 15.92 134.51 16.84C135.39 17.32 136.04 17.96 136.46 18.76C136.88 19.54 137.09 20.55 137.09 21.79C137.09 23.81 136.51 25.35 135.35 26.41C134.21 27.45 132.45 27.97 130.07 27.97L111.41 28ZM128.9 10.39H116.21V15.19H128.9C130.72 15.19 131.63 14.37 131.63 12.73C131.63 11.17 130.72 10.39 128.9 10.39ZM129.5 19.03H116.21V24.13H129.5C131.32 24.13 132.23 23.27 132.23 21.55C132.23 19.87 131.32 19.03 129.5 19.03ZM144.404 28C142.644 28 141.354 27.56 140.534 26.68C139.734 25.8 139.334 24.66 139.334 23.26V12.55H143.684V22.75C143.684 23.95 144.284 24.55 145.484 24.55H151.724C152.924 24.55 153.524 23.95 153.524 22.75V12.55H157.874V23.26C157.874 24.66 157.464 25.8 156.644 26.68C155.844 27.56 154.564 28 152.804 28H144.404ZM179.588 28H175.238V6.55H179.588V28ZM178.838 28H168.488C165.808 28 163.718 27.34 162.218 26.02C160.718 24.7 159.968 22.79 159.968 20.29C159.968 17.77 160.718 15.85 162.218 14.53C163.718 13.21 165.808 12.55 168.488 12.55H178.538V16H168.488C167.188 16 166.188 16.36 165.488 17.08C164.808 17.78 164.468 18.85 164.468 20.29C164.468 21.71 164.808 22.78 165.488 23.5C166.188 24.2 167.188 24.55 168.488 24.55H178.838V28ZM201.462 28H197.112V6.55H201.462V28ZM200.712 28H190.362C187.682 28 185.592 27.34 184.092 26.02C182.592 24.7 181.842 22.79 181.842 20.29C181.842 17.77 182.592 15.85 184.092 14.53C185.592 13.21 187.682 12.55 190.362 12.55H200.412V16H190.362C189.062 16 188.062 16.36 187.362 17.08C186.682 17.78 186.342 18.85 186.342 20.29C186.342 21.71 186.682 22.78 187.362 23.5C188.062 24.2 189.062 24.55 190.362 24.55H200.712V28ZM207.796 34.75V31.3H216.856C218.056 31.3 218.656 30.69 218.656 29.47V28H209.386C207.626 28 206.336 27.56 205.516 26.68C204.716 25.8 204.316 24.66 204.316 23.26V12.55H208.666V22.75C208.666 23.95 209.266 24.55 210.466 24.55H218.506V12.55H223.006V30.01C223.006 31.43 222.596 32.57 221.776 33.43C220.956 34.31 219.676 34.75 217.936 34.75H207.796Z" fill="url(#paint0_linear_497_156)"/>
    </g>
    <defs>
        <filter id="filter0_d_497_156" x="-2" y="0" width="230" height="44" filterUnits="userSpaceOnUse" color-interpolation-filters="sRGB">
            <feFlood flood-opacity="0" result="BackgroundImageFix"/>
            <feColorMatrix in="SourceAlpha" type="matrix" values="0 0 0 0 0 0 0 0 0 0 0 0 0 0 0 0 0 0 127 0" result="hardAlpha"/>
            <feOffset dy="4"/>
            <feGaussianBlur stdDeviation="2"/>
            <feComposite in2="hardAlpha" operator="out"/>
            <feColorMatrix type="matrix" values="0 0 0 0 0 0 0 0 0 0 0 0 0 0 0 0 0 0 0.25 0"/>
            <feBlend mode="normal" in2="BackgroundImageFix" result="effect1_dropShadow_497_156"/>
            <feBlend mode="normal" in="SourceGraphic" in2="effect1_dropShadow_497_156" result="shape"/>
        </filter>
        <linearGradient id="paint0_linear_497_156" x1="158.926" y1="-2.79146e-07" x2="156.177" y2="41.7945" gradientUnits="userSpaceOnUse">
            <stop stop-color="#03C75A"/>
            <stop offset="1" stop-color="#85C644"/>
        </linearGradient>
    </defs>
</svg>
