<svg width="60" height="60" viewBox="0 0 60 60" fill="none" xmlns="http://www.w3.org/2000/svg">
<rect x="0.5" y="0.5" width="59" height="59" rx="3.5" fill="white" stroke="#E2E2E2"/>
<path d="M39.2113 8.63616C36.8724 6.29129 33.6057 5 30 5C26.3751 5 23.0976 6.28348 20.7695 8.61384C18.4162 10.9699 17.2696 14.1719 17.5388 17.6295C18.0725 24.4509 23.6624 30 30 30C36.3376 30 41.918 24.452 42.46 17.6317C42.7328 14.2054 41.579 11.01 39.2113 8.63616Z" fill="#48685E"/>
<path d="M51.1533 54.9994H8.84674C8.29298 55.0061 7.74459 54.898 7.24145 54.6832C6.73831 54.4683 6.29308 54.1519 5.93816 53.7572C5.15693 52.89 4.84204 51.7058 5.0752 50.5083C6.0896 45.2829 9.25538 40.8933 14.2312 37.8119C18.6518 35.0764 24.2514 33.5708 30 33.5708C35.7486 33.5708 41.3482 35.0775 45.7688 37.8119C50.7446 40.8922 53.9104 45.2817 54.9248 50.5072C55.158 51.7047 54.8431 52.8889 54.0618 53.7561C53.707 54.151 53.2619 54.4676 52.7587 54.6827C52.2556 54.8977 51.7071 55.0059 51.1533 54.9994Z" fill="#48685E"/>
</svg>
