<svg width="30" height="30" viewBox="0 0 30 30" fill="none" xmlns="http://www.w3.org/2000/svg">
<path d="M23.25 26.6667C22.8639 28.5685 21.1825 30 19.1667 30H4.16667C1.86548 30 0 28.1345 0 25.8333V14.1667C0 12.1509 1.43147 10.4694 3.33333 10.0833V8.33333C3.33333 3.73096 7.06429 0 11.6667 0C16.269 0 20 3.73096 20 8.33333V10.0833C21.9019 10.4694 23.3333 12.1509 23.3333 14.1667V16.6667H25.8333C28.1345 16.6667 30 18.5321 30 20.8333V22.5C30 24.8012 28.1345 26.6667 25.8333 26.6667H23.25ZM21.5244 26.6667H14.1667C11.8655 26.6667 10 24.8012 10 22.5V20.8333C10 18.5321 11.8655 16.6667 14.1667 16.6667H21.6667V14.1667C21.6667 12.8508 20.6501 11.7724 19.3594 11.674C19.2975 11.6886 19.233 11.6964 19.1667 11.6964C19.09 11.6964 19.0158 11.686 18.9453 11.6667H4.16667C2.78595 11.6667 1.66667 12.786 1.66667 14.1667V25.8333C1.66667 27.214 2.78595 28.3333 4.16667 28.3333H19.1667C20.2552 28.3333 21.1812 27.6377 21.5244 26.6667ZM5 10H18.3333V8.33333C18.3333 4.65143 15.3486 1.66667 11.6667 1.66667C7.98477 1.66667 5 4.65143 5 8.33333V10ZM28.3333 22.5V20.8333C28.3333 19.4526 27.214 18.3333 25.8333 18.3333H14.1667C12.786 18.3333 11.6667 19.4526 11.6667 20.8333V22.5C11.6667 23.8807 12.786 25 14.1667 25H25.8333C27.214 25 28.3333 23.8807 28.3333 22.5ZM14.1667 20H15.8333C16.2936 20 16.6667 20.3731 16.6667 20.8333V22.5C16.6667 22.9602 16.2936 23.3333 15.8333 23.3333H14.1667C13.7064 23.3333 13.3333 22.9602 13.3333 22.5V20.8333C13.3333 20.3731 13.7064 20 14.1667 20ZM19.1667 20H20.8333C21.2936 20 21.6667 20.3731 21.6667 20.8333V22.5C21.6667 22.9602 21.2936 23.3333 20.8333 23.3333H19.1667C18.7064 23.3333 18.3333 22.9602 18.3333 22.5V20.8333C18.3333 20.3731 18.7064 20 19.1667 20ZM24.1667 20H25.8333C26.2936 20 26.6667 20.3731 26.6667 20.8333V22.5C26.6667 22.9602 26.2936 23.3333 25.8333 23.3333H24.1667C23.7064 23.3333 23.3333 22.9602 23.3333 22.5V20.8333C23.3333 20.3731 23.7064 20 24.1667 20Z" fill="#0B4648"/>
</svg>
