<svg width="15" height="16" viewBox="0 0 15 16" fill="none" xmlns="http://www.w3.org/2000/svg">
<path d="M12.2459 0H12.2536C13.0132 0 13.7005 0.309618 14.1961 0.809555L14.1963 0.80976C14.693 1.30835 15 1.99607 15 2.75552C15 3.51815 14.6904 4.20846 14.19 4.70762L14.1899 4.70768L4.4928 14.419L0 15.0068L0.588458 10.514L10.3034 0.815447C10.7991 0.314366 11.4859 0.00307771 12.2453 0H12.2459H12.2459ZM4.15978 13.7445L13.6876 4.20533C14.0585 3.8367 14.2881 3.32623 14.2881 2.76211V2.76153V2.76044C14.2881 2.19549 14.0604 1.68373 13.6917 1.31195L13.6918 1.3121C13.3241 0.94131 12.8145 0.711801 12.2512 0.711801C11.6855 0.711801 11.1739 0.943333 10.806 1.31682L10.8057 1.31707L1.2623 10.847L0.825413 14.1814L4.15978 13.7445ZM12.357 6.03686L8.96991 2.64986L9.47371 2.14607L12.8607 5.53309L12.357 6.03686ZM0 15.0075L0.626168 10.233L1.01752 10.3368C1.92114 10.5818 2.69619 11.0443 3.31118 11.6656L3.31159 11.6661C3.94828 12.2847 4.42169 13.0681 4.66308 13.9475L4.67138 13.9829L4.77598 14.3742L0 15.0075ZM1.22317 11.1473L0.825413 14.1807L3.85879 13.7779C3.62125 13.1493 3.26473 12.6138 2.81319 12.1759L2.8121 12.1748L2.80642 12.1691C2.37092 11.7282 1.8423 11.3803 1.25236 11.1572L1.22251 11.1473L1.22317 11.1473ZM3.34005 12.1705L2.83699 11.6675L10.6642 3.84031L11.1672 4.34338L3.34005 12.1705Z" fill="white"/>
</svg>
